<svg xmlns="http://www.w3.org/2000/svg" viewBox="0 0 196.9 56.7"><title>Asset 6</title><g id="Layer_2" data-name="Layer 2"><g id="Layer_1-2" data-name="Layer 1"><path d="M22.6,28.1V22.8H5.6a5.2,5.2,0,0,0-3.9,1.7A5.3,5.3,0,0,0,0,28.9a5.8,5.8,0,0,0,5.8,5.2H22.6V51a5.3,5.3,0,0,0,1.7,4,5.6,5.6,0,0,0,4.3,1.7,5.8,5.8,0,0,0,5.3-5.8V34.1H28.6A6,6,0,0,1,22.6,28.1Z" fill="#094063"/><path d="M56.5,28a5.8,5.8,0,0,0-5.8-5.2H33.9V5.9a5.3,5.3,0,0,0-1.7-4A5.8,5.8,0,0,0,27.8.2,5.7,5.7,0,0,0,22.6,6V22.8h5.3a6,6,0,0,1,6,6v5.3H50.8a5.3,5.3,0,0,0,4-1.7A5.7,5.7,0,0,0,56.5,28Z" fill="#89cbf0"/><path d="M27.9,22.8H22.6v5.3a6,6,0,0,0,6,6h5.3V28.8A6,6,0,0,0,27.9,22.8Z" fill="#5299d3"/><path d="M71.8,1.6h9c4.8,0,8.8,1.6,8.8,7.1,0,3.2-1.7,5.8-5,6.4l5.9,9.8H84.4l-4.9-9.3H76.9v9.3H71.8Zm5.1,9.6H80c1.9,0,4.3,0,4.3-2.6s-2.1-2.7-4-2.7H76.9Z" fill="#094063"/><path d="M107.7,22.1a8.8,8.8,0,0,1-6.8,3.2C96,25.3,92,22,92,16.9s4-8.4,8.9-8.4,7.5,3.3,7.5,8.4v1.5H97a3.7,3.7,0,0,0,3.7,3.1,4.2,4.2,0,0,0,3.5-1.9Zm-4.2-7a2.9,2.9,0,0,0-3-3,3.2,3.2,0,0,0-3.5,3Z" fill="#094063"/><path d="M111.5,0h4.9V24.9h-4.9Z" fill="#094063"/><path d="M122.5,1a2.9,2.9,0,0,1,2.9,2.9,2.9,2.9,0,0,1-2.9,2.8,2.8,2.8,0,0,1-2.8-2.8A2.8,2.8,0,0,1,122.5,1Zm-2.4,7.9H125v16h-4.9Z" fill="#094063"/><path d="M138.6,22.9h-.1a5.6,5.6,0,0,1-5,2.4c-3,0-5.7-1.7-5.7-4.9,0-5.6,6.7-5.7,10.8-5.7a2.9,2.9,0,0,0-3.2-2.8,5.3,5.3,0,0,0-4,1.9l-2.6-2.7a10.3,10.3,0,0,1,7-2.6c5.8,0,7.3,2.9,7.3,8.3v8.1h-4.5Zm-1.2-5c-1.5,0-4.9.1-4.9,2.3s1.3,1.7,2.3,1.7,3.8-1,3.8-3v-1Z" fill="#094063"/><path d="M146.2,8.9H151v2.2h.1a4.9,4.9,0,0,1,4.6-2.6c5,0,6,3.3,6,7.6v8.8h-5V17.1c0-1.9,0-4.3-2.6-4.3s-2.9,2.1-2.9,4.1v8h-5Z" fill="#094063"/><path d="M176,14.1a3.1,3.1,0,0,0-2.5-1.3,3.8,3.8,0,0,0-3.9,4.1,3.7,3.7,0,0,0,3.9,4,3.2,3.2,0,0,0,2.5-1.2l3.2,3.5a8.2,8.2,0,0,1-5.7,2.1c-4.9,0-8.8-3.3-8.8-8.4s3.9-8.4,8.8-8.4a8.2,8.2,0,0,1,5.7,2.1Z" fill="#094063"/><path d="M196.2,22.1a8.8,8.8,0,0,1-6.8,3.2c-4.9,0-8.9-3.3-8.9-8.4s4-8.4,8.9-8.4,7.5,3.3,7.5,8.4v1.5H185.5a3.7,3.7,0,0,0,3.7,3.1,4.2,4.2,0,0,0,3.5-1.9Zm-4.2-7a2.9,2.9,0,0,0-3-3,3.2,3.2,0,0,0-3.5,3Z" fill="#094063"/><path d="M71.7,37.5h9.2v2.3H74.2v3.7h6.3v2.4H74.2v5.9H71.7Z" fill="#5299d3"/><path d="M89.2,50.5h-.1A3.5,3.5,0,0,1,86,52.1c-1.8,0-3.6-1-3.6-3s3.7-3.3,6.2-3.3h.6v-.3c0-1.2-1-1.8-2.3-1.8a4,4,0,0,0-2.6,1l-1.2-1.3a5.6,5.6,0,0,1,4.1-1.6c4.2,0,4.2,3,4.2,4.4v5.6H89.2Zm-.2-3h-.5c-1.3,0-3.6.1-3.6,1.5s.9,1.2,1.7,1.2S89,49.4,89,48Z" fill="#5299d3"/><path d="M93.9,42.1h2.3v1.5h0a3.2,3.2,0,0,1,3-1.8,2.9,2.9,0,0,1,3,1.8,3.6,3.6,0,0,1,3.2-1.8c2.6,0,3.6,1.9,3.6,4.2v5.8h-2.5V46.3c0-1.2-.3-2.3-1.8-2.3s-2.1,1.3-2.1,2.5v5.3h-2.4V46c0-1.2-.5-2-1.7-2s-2.2,1.2-2.2,2.5v5.3H93.9Z" fill="#5299d3"/><path d="M112.8,37.3a1.5,1.5,0,0,1,1.6,1.5,1.5,1.5,0,0,1-1.6,1.4,1.5,1.5,0,1,1,0-2.9Zm-1.2,4.8h2.5v9.7h-2.5Z" fill="#5299d3"/><path d="M116.9,36.5h2.5V51.8h-2.5Z" fill="#5299d3"/><path d="M120.8,42.1h2.7l2.7,6.7h.1l2.4-6.7h2.5l-4.6,11.8c-.7,1.8-1.5,2.8-3.7,2.8a5.7,5.7,0,0,1-1.8-.3l.3-2.1,1.2.2c1.2,0,1.5-.4,1.9-1.4l.5-1.2Z" fill="#5299d3"/><path d="M148.8,40.8a4.1,4.1,0,0,0-3.1-1.4,4.9,4.9,0,0,0-4.9,5.1c0,3.1,2,5.4,4.9,5.4a4.3,4.3,0,0,0,3.3-1.8l2.1,1.5a6.5,6.5,0,0,1-5.4,2.6,7.2,7.2,0,0,1-7.6-7.5,7.2,7.2,0,0,1,7.6-7.6,6.3,6.3,0,0,1,5.1,2.3Z" fill="#5299d3"/><path d="M152.6,36.5h2.5V51.8h-2.5Z" fill="#5299d3"/><path d="M159.1,37.3a1.5,1.5,0,0,1,1.6,1.5,1.5,1.5,0,0,1-1.6,1.4,1.5,1.5,0,1,1,0-2.9Zm-1.2,4.8h2.4v9.7h-2.4Z" fill="#5299d3"/><path d="M163.1,42.1h2.3v1.5h.1a3.1,3.1,0,0,1,3-1.8c2.6,0,3.5,1.9,3.5,3.9v6.1h-2.4V46.9c0-1.1-.1-2.9-1.8-2.9s-2.2,1.2-2.2,2.5v5.3h-2.5Z" fill="#5299d3"/><path d="M176,37.3a1.5,1.5,0,0,1,1.6,1.5,1.5,1.5,0,0,1-1.6,1.4,1.5,1.5,0,0,1-1.5-1.4A1.5,1.5,0,0,1,176,37.3Zm-1.2,4.8h2.4v9.7h-2.4Z" fill="#5299d3"/><path d="M186.7,45a2.8,2.8,0,0,0-1.9-1,3,3,0,0,0,0,5.9,2.5,2.5,0,0,0,1.9-.9l1.7,1.7a5.7,5.7,0,0,1-3.6,1.4,5.2,5.2,0,1,1,3.6-8.8Z" fill="#5299d3"/><path d="M195,44.8a2.2,2.2,0,0,0-1.9-1c-.7,0-1.4.3-1.4,1s5.2.3,5.2,4.1-2.2,3.2-4.2,3.2a4.8,4.8,0,0,1-3.8-1.5l1.7-1.6a2.8,2.8,0,0,0,2.3,1.2c.7,0,1.6-.3,1.6-1.1s-5.3-.4-5.3-4.1c0-2.2,2-3.2,4-3.2a4,4,0,0,1,3.4,1.5Z" fill="#5299d3"/></g></g></svg>