<svg xmlns="http://www.w3.org/2000/svg" viewBox="0 0 200 162.4"><title>affordable</title><g id="Layer_2" data-name="Layer 2"><g id="actualsize"><g id="icon_bg"><path d="M194.2,95c6.9-15.6,8.5-34.1,0-49-5.9-10.2-16-17.8-26.9-23.2S144.4,14,132.6,10.4C111.4,3.8,88.7-3.8,67.3,2.2,47.9,7.6,33.9,23,21,37.7,13.7,46,6.2,54.9,4.3,65.5c-1.3,8,.6,16.3-1,24.2-1.3,6-4.5,12-2.8,17.8,1.1,3.8,4.2,6.8,7.2,9.6,21.9,20,48,37.2,77.9,43.2,17.7,3.6,36.7,2.7,53.6-3.3a77.1,77.1,0,0,0,23.7-13c3.6-3,4.9-5,6.2-9.2s3.2-7,6.2-10.7C182.7,115.1,189.6,105.6,194.2,95Z" fill="#107bc0" opacity="0.02"/></g><path d="M62.1,151.7l8.4-8.3L93.4,148h41.3L160,122.6a6.4,6.4,0,0,0-.1-9.3,6.7,6.7,0,0,0-9.2.3l-16,16.1-29.8-6.9-9.2-9.2a26,26,0,0,0-36.7,0L41.5,131.1a4.5,4.5,0,0,0,0,6.3l14.4,14.3A4.2,4.2,0,0,0,62.1,151.7Z" fill="#d19a6e"/><path d="M129.4,122.5l-24.4.2v13l24.5-.2a6.6,6.6,0,0,0,6.4-6.6A6.5,6.5,0,0,0,129.4,122.5Z" fill="#d19a6e"/><path d="M105,130.3v5.4l24.5-.2a6.6,6.6,0,0,0,6.3-5.2Z" fill="#ad8061"/><path d="M160,113.5l-27.6,27.6H91.1l-23.4-6.4a3.3,3.3,0,0,0-3.2.9L52.1,148l3.8,3.7a4.2,4.2,0,0,0,6.2,0l8.4-8.3L93.4,148h41.3L160,122.6A6.3,6.3,0,0,0,160,113.5Z" fill="#b78563"/><path d="M23,100.8H177a3,3,0,0,0,3-3V12.4a3,3,0,0,0-3-3H23a3,3,0,0,0-3,3V97.8A3,3,0,0,0,23,100.8Z" fill="#aff0e8"/><path d="M168.6,100.8H177a3,3,0,0,0,3-3V12.4a3,3,0,0,0-3-3h-8.4Z" fill="#74dbc9"/><path d="M31.4,38V72.3A17.1,17.1,0,0,1,48.6,89.4H151.4a17.1,17.1,0,0,1,17.2-17.1V38a17.2,17.2,0,0,1-17.2-17.2H48.6A17.2,17.2,0,0,1,31.4,38Zm100,17.1a8.6,8.6,0,1,1,8.6,8.6A8.7,8.7,0,0,1,131.4,55.1Zm-80,0A8.6,8.6,0,1,1,60,63.7,8.7,8.7,0,0,1,51.4,55.1Z" fill="#2db59f"/><path d="M54.3,37.8H65.7a2.7,2.7,0,0,0,0-5.4H54.3a2.7,2.7,0,0,0,0,5.4Z" fill="#74dbc9"/><path d="M54.3,77.8H65.7a2.7,2.7,0,1,0,0-5.4H54.3a2.7,2.7,0,1,0,0,5.4Z" fill="#74dbc9"/><path d="M134.3,37.8h11.4a2.7,2.7,0,0,0,0-5.4H134.3a2.7,2.7,0,0,0,0,5.4Z" fill="#74dbc9"/><path d="M134.3,77.8h11.4a2.7,2.7,0,1,0,0-5.4H134.3a2.7,2.7,0,0,0,0,5.4Z" fill="#74dbc9"/><circle cx="98.7" cy="55.1" r="19.1" fill="#aff0e8"/></g></g></svg>