<svg xmlns="http://www.w3.org/2000/svg" viewBox="0 0 323.1 262.1"><title>chronic-ill</title><g id="Layer_2" data-name="Layer 2"><g id="actualsize"><g opacity="0.6"><g opacity="0.05"><path d="M126.7,227.6c-33.4,27.9-75.4,54.8-110.6,12.5-21.7-26-21.6-69.4,1-94.8,30.7-34.6,64.5-12.4,97.9,3.7,15.3,7.4,38.4,12.8,39.9,33.3C156.1,200.4,139.3,217.2,126.7,227.6Z" fill="#107bc0"/></g><g opacity="0.05"><path d="M265.8,34.5c-24.3-20-54.4-39-87.3-33.6-29.4,4.9-54.4,26-76.7,44.3C74,68,41,90.1,18,118c-14.6,17.7-9.3,32,5.8,47.5,23.6,24.3,52,45.5,78.8,66.2,17.6,13.4,36.9,27.1,59.5,29.8,26,3.1,52.1-7.5,75.5-17.4,28-11.9,55.6-25.9,72-52.8C342.7,137.1,310,70.9,265.8,34.5Z" fill="#107bc0"/></g></g><path d="M192,66.9H131A32.8,32.8,0,0,0,98.2,99.8v79.8a50.7,50.7,0,0,0,8.8,28.4h0a63.7,63.7,0,0,0,52.4,27.6h4.3a63.3,63.3,0,0,0,52.3-27.6h0a50.7,50.7,0,0,0,8.8-28.4V99.7A32.8,32.8,0,0,0,192,66.9Z" fill="#89cbf0"/><path d="M205.7,69.9V189.6a17.3,17.3,0,0,1-3.1,9.9l-15.4,22.7a30.9,30.9,0,0,1-25.4,13.3h1.9a63.3,63.3,0,0,0,52.3-27.6h0a50.7,50.7,0,0,0,8.8-28.4V99.7A32.8,32.8,0,0,0,205.7,69.9Z" fill="#79b2cc"/><path d="M129,227.8a64.3,64.3,0,0,0,30.5,7.8h4.3a62.5,62.5,0,0,0,30.4-7.8V199.6a2.7,2.7,0,0,0-2.8-2.7H131.8a2.8,2.8,0,0,0-2.8,2.7v28.2Z" fill="#2c5871"/><path d="M191.4,196.9H131.8a2.8,2.8,0,0,0-2.8,2.7v16.7h65.2V199.6A2.7,2.7,0,0,0,191.4,196.9Z" fill="#1d4859"/><path d="M172.8,262.1H150.5a1.5,1.5,0,0,1-1.4-1.5V196.9h25.2v63.7A1.5,1.5,0,0,1,172.8,262.1Z" fill="#e1effb"/><path d="M154.8,196.9v65.2h17.9a1.5,1.5,0,0,0,1.4-1.5V196.9Z" fill="#baced8"/><rect x="149" y="209.5" width="25.1" height="17.79" fill="#f9644b"/><rect x="154.8" y="209.5" width="19.4" height="17.79" fill="#db3f2e"/><path d="M204.8,154.6H118.3a2.8,2.8,0,0,1-2.8-2.8V103.6a2.8,2.8,0,0,1,2.8-2.8h86.5a2.9,2.9,0,0,1,2.8,2.8v48.3A2.7,2.7,0,0,1,204.8,154.6Z" fill="#e1effb"/><path d="M204.8,100.7H188.2v54h16.6a2.7,2.7,0,0,0,2.8-2.8V103.5A2.9,2.9,0,0,0,204.8,100.7Z" fill="#baced8"/><path d="M145.7,123.6c5.8,0,10.2,2.4,10.2,9.2v.9c0,7.1-4.5,9.7-10,9.7s-10.3-3.8-10.3-7.8c0-2,1.1-2.6,2.8-2.6s2.8,1,2.8,2.2,2,3.3,4.5,3.3,4.6-1.5,4.6-4.8v-.9c0-3.2-1.7-4.8-4.5-4.8h-6.5c-1.7,0-2.2-.9-2.2-2.2v-1.1l1.1-11.4c.1-1.1.5-1.8,1.1-1.8h13.4c1.1,0,1.7,1.2,1.7,2.4s-.6,2.5-1.7,2.5h-9.8l-.5,7.2Z" fill="#084063"/><path d="M164,140.5a3,3,0,0,1-2.9,2.9,3,3,0,1,1,0-5.9A3.1,3.1,0,0,1,164,140.5Z" fill="#084063"/><path d="M185.9,119.1c0,3.7-1.7,5.8-4.2,6.7,3.2,1.1,5.2,3.7,5.2,8.1v.6c0,6.4-4.4,8.9-10.1,8.9s-10.2-2.5-10.2-8.9V134c0-4.5,2-7.1,5.1-8.2-2.5-.9-4.1-3-4.1-6.7-.1-5.5,3.8-7.6,9.1-7.6S185.9,113.6,185.9,119.1ZM181.3,133c0-3.3-1.7-4.8-4.6-4.8s-4.5,1.5-4.5,4.8v.8c0,3.5,1.7,5,4.6,5s4.5-1.6,4.5-5ZM173,119.8c0,2.7,1.4,3.8,3.7,3.8s3.8-1.1,3.8-3.8-1.4-3.7-3.8-3.7S173,117.1,173,119.8Z" fill="#084063"/><path d="M207.6,171.5H115.5a3,3,0,0,1,0-5.9h92.1a3,3,0,1,1,0,5.9Z" fill="#e1effb"/></g></g></svg>