<svg xmlns="http://www.w3.org/2000/svg" viewBox="0 0 200 162.4"><title>clock</title><g id="Layer_2" data-name="Layer 2"><g id="actualsize"><g id="icon_bg"><path d="M194.2,95c6.9-15.6,8.5-34.1,0-49-5.9-10.2-16-17.8-26.9-23.2S144.4,14,132.6,10.4C111.4,3.8,88.7-3.8,67.3,2.2,47.9,7.6,33.9,23,21,37.7,13.7,46,6.2,54.9,4.3,65.5c-1.3,8,.6,16.3-1,24.2-1.3,6-4.5,12-2.8,17.8,1.1,3.8,4.2,6.8,7.2,9.6,21.9,20,48,37.2,77.9,43.2,17.7,3.6,36.7,2.7,53.6-3.3a77.1,77.1,0,0,0,23.7-13c3.6-3,4.9-5,6.2-9.2s3.2-7,6.2-10.7C182.7,115.1,189.6,105.6,194.2,95Z" fill="#107bc0" opacity="0.02"/></g><circle cx="100" cy="81.2" r="74.3" fill="#e0e1e2"/><circle cx="100" cy="81.2" r="42.9" fill="#fff"/><path d="M100,161.2a80,80,0,1,1,80-80A80.1,80.1,0,0,1,100,161.2Zm0-148.6a68.6,68.6,0,1,0,68.6,68.6A68.7,68.7,0,0,0,100,12.6Z" fill="#084063"/><path d="M100,15.2A2.8,2.8,0,0,0,97.1,18v2.9a2.9,2.9,0,0,0,5.8,0V18A2.8,2.8,0,0,0,100,15.2Z" fill="#084063"/><path d="M100,138a2.9,2.9,0,0,0-2.9,2.9v2.8a2.9,2.9,0,0,0,5.8,0v-2.8A2.9,2.9,0,0,0,100,138Z" fill="#084063"/><path d="M162.9,78H160a2.9,2.9,0,1,0,0,5.7h2.9a2.9,2.9,0,0,0,0-5.7Z" fill="#084063"/><path d="M40,78H37.1a2.9,2.9,0,0,0,0,5.7H40A2.9,2.9,0,1,0,40,78Z" fill="#084063"/><path d="M142.4,34.4l-2,2a3,3,0,0,0,0,4.1,3.2,3.2,0,0,0,2,.8,2.8,2.8,0,0,0,2-.8l2.1-2.1a2.8,2.8,0,0,0,0-4A3,3,0,0,0,142.4,34.4Z" fill="#084063"/><path d="M55.6,121.3l-2.1,2a2.8,2.8,0,0,0,0,4,2.9,2.9,0,0,0,2.1.9,2.8,2.8,0,0,0,2-.9l2-2a2.8,2.8,0,0,0-4-4Z" fill="#084063"/><path d="M144.4,121.3a2.8,2.8,0,0,0-4,4l2,2a2.8,2.8,0,0,0,2,.9,2.9,2.9,0,0,0,2.1-.9,2.8,2.8,0,0,0,0-4Z" fill="#084063"/><path d="M57.6,34.4a3,3,0,0,0-4.1,0,2.8,2.8,0,0,0,0,4l2.1,2.1a2.8,2.8,0,0,0,2,.8,3.2,3.2,0,0,0,2-.8,3,3,0,0,0,0-4.1Z" fill="#084063"/><path d="M131.4,84.1H108.6a2.9,2.9,0,0,1-2.9-2.9,2.8,2.8,0,0,1,2.9-2.8h22.8a2.8,2.8,0,0,1,2.9,2.8A2.9,2.9,0,0,1,131.4,84.1Z" fill="#424a60"/><path d="M100,75.5a2.9,2.9,0,0,1-2.9-2.9V41.2a2.9,2.9,0,0,1,5.8,0V72.6A2.9,2.9,0,0,1,100,75.5Z" fill="#424a60"/><path d="M100,92.6a11.4,11.4,0,1,1,11.4-11.4A11.4,11.4,0,0,1,100,92.6Zm0-17.1a5.7,5.7,0,0,0-5.7,5.7,5.7,5.7,0,1,0,11.4,0A5.7,5.7,0,0,0,100,75.5Z" fill="#424a60"/></g></g></svg>