<svg xmlns="http://www.w3.org/2000/svg" viewBox="0 0 200 162.4"><title>custcare</title><g id="Layer_2" data-name="Layer 2"><g id="actualsize"><g id="customer_care" data-name="customer care"><g id="icon_bg"><path d="M194.2,95c6.9-15.6,8.5-34.1,0-49-5.9-10.2-16-17.8-26.9-23.2S144.4,14,132.6,10.4C111.4,3.8,88.7-3.8,67.3,2.2,47.9,7.6,33.9,23,21,37.7,13.7,46,6.2,54.9,4.3,65.5c-1.3,8,.6,16.3-1,24.2-1.3,6-4.5,12-2.8,17.8,1.1,3.8,4.2,6.8,7.2,9.6,21.9,20,48,37.2,77.9,43.2,17.7,3.6,36.7,2.7,53.6-3.3a77.1,77.1,0,0,0,23.7-13c3.6-3,4.9-5,6.2-9.2s3.2-7,6.2-10.7C182.7,115.1,189.6,105.6,194.2,95Z" fill="#107bc0" opacity="0.02"/></g><g opacity="0.2"><path d="M159.8,60.9a2.9,2.9,0,0,0-3.7,1.4l-2.4,5.4a55.2,55.2,0,0,0-106.3-4l5.3,1.7a49.6,49.6,0,0,1,95.9,4.8l-5-4.1a2.8,2.8,0,0,0-3.8.4,2.7,2.7,0,0,0,.4,3.9l10.7,8.7a2.3,2.3,0,0,0,1.6.6h.7a2.6,2.6,0,0,0,1.9-1.6l6.1-13.5A2.8,2.8,0,0,0,159.8,60.9Z" fill="#107bc0"/><path d="M147.3,95.4a49.6,49.6,0,0,1-95.9-4.8l5,4a2.6,2.6,0,0,0,3.8-.4,2.7,2.7,0,0,0-.4-3.9L49.1,81.6a2.8,2.8,0,0,0-4.2,1L38.8,96.2a2.7,2.7,0,0,0,1.4,3.6,1.9,1.9,0,0,0,1,.3,3,3,0,0,0,2.7-1.6L46.3,93a55.2,55.2,0,0,0,106.3,4Z" fill="#107bc0"/></g><path d="M47.6.4C27.5.4,22.9,19.6,22.8,40.7a2.4,2.4,0,0,0,1.5,2.1l3,1a48,48,0,0,0,13.6,1.9H54.3a51.5,51.5,0,0,0,14-2l2.6-.9a2.4,2.4,0,0,0,1.5-2.1C72.2,19.6,67.7.4,47.6.4Z" fill="#42210b"/><path d="M75.2,65.9h0A8.3,8.3,0,0,0,71,58.7l-9.3-5.3c-7.8-4.5-20.5-4.5-28.2,0l-9.3,5.3A8.3,8.3,0,0,0,20,65.9h0a9,9,0,0,0,9,9H66.2A9.1,9.1,0,0,0,75.2,65.9Z" fill="#d19a6e"/><path d="M61.4,22.4V36.6A9.1,9.1,0,0,1,57,44.4h0a18.1,18.1,0,0,1-18.8,0h0a9.1,9.1,0,0,1-4.4-7.8V22.4s16.5,0,22.1-5.5Z" fill="#d19a6e"/><path d="M53.2,36.3a1.1,1.1,0,0,1,1,1.5c-1.3,2.8-3.7,4.7-6.5,4.7a7.3,7.3,0,0,1-6.5-4.7,1.1,1.1,0,0,1,1-1.5Z" fill="#fff"/><path d="M71,58.7l-8.1-4.6h0a18.8,18.8,0,0,1-30.7,0h0l-8,4.6A8.3,8.3,0,0,0,20,65.9h0a9,9,0,0,0,9,9H66.2a9.1,9.1,0,0,0,9-9h0A8.3,8.3,0,0,0,71,58.7Z" fill="#89cbf0"/><path d="M174.6,140.5l-12.3-4.6a58.7,58.7,0,0,0-15-1.7,83.2,83.2,0,0,0-16.8,2.1l-11.3,5.2c-3.3,1.1-5.4,3.1-5.4,6.4l4.5,5.1a11.6,11.6,0,0,1,2.5,4.1,5.6,5.6,0,0,0,5.3,3.7l41.6-1c3.1,0,8.4-1.4,8.4-4.3l2-7.6C178.1,144.6,177.9,141.6,174.6,140.5Z" fill="#c69e7b"/><path d="M174.6,139.8l-10.2-3.1-14,11.4a5.4,5.4,0,0,1-7,0l-13.6-11.4-11.9,4.5a6.3,6.3,0,0,0-4.1,6h0A14.9,14.9,0,0,0,128.7,162h36.8A14.5,14.5,0,0,0,180,147.5h0A8.2,8.2,0,0,0,174.6,139.8Z" fill="#084063"/><path d="M165.4,94.9l-1.7,25.8a8.7,8.7,0,0,1-3.3,6.1l-4.5,3.4a13.1,13.1,0,0,1-7.8,2.6h0a20.2,20.2,0,0,1-12.1-4l-2.6-2a8.7,8.7,0,0,1-3.3-6.1l-1.7-25.8a11,11,0,0,1,11-11.8h15A11,11,0,0,1,165.4,94.9Z" fill="#c69e7b"/><path d="M152.7,119.6a1.2,1.2,0,0,1,1.1,1.7c-1.3,3.2-4,5.4-7.2,5.4s-5.8-2.2-7.1-5.4a1.2,1.2,0,0,1,1.1-1.7Z" fill="#fff"/><path d="M167.3,108.7a2.9,2.9,0,0,0-3,2.6,8.4,8.4,0,0,1-8.2,7.7h-9.2v5.5h9.2a14,14,0,0,0,13.7-12.9A2.7,2.7,0,0,0,167.3,108.7Z" fill="#666"/><path d="M154.4,83.1h-15a11,11,0,0,0-11,11.8l.7,10.3c.9-.1,24.6-1.8,36.2-7.8V94.9A11,11,0,0,0,154.4,83.1Z" fill="#333"/><circle cx="146.9" cy="121.8" r="2.8" fill="#4d4d4d"/></g></g></g></svg>