<svg xmlns="http://www.w3.org/2000/svg" viewBox="0 0 327.1 262.1"><title>emergency</title><g id="Layer_2" data-name="Layer 2"><g id="actualsize"><g opacity="0.6"><g opacity="0.05"><path d="M126.7,227.6c-33.4,27.9-75.4,54.8-110.6,12.5-21.7-26-21.6-69.4,1-94.8,30.7-34.6,64.5-12.4,97.9,3.7,15.3,7.4,38.4,12.8,39.9,33.3C156.1,200.4,139.3,217.2,126.7,227.6Z" fill="#107bc0"/></g><g opacity="0.05"><path d="M269.8,34.5c-24.3-20-54.4-39-87.3-33.6-29.4,4.9-54.4,26-76.7,44.3C78,68,45,90.1,22,118c-14.6,17.7-9.3,32,5.8,47.5,23.6,24.3,52,45.5,78.8,66.2,17.6,13.4,36.9,27.1,59.5,29.8,26,3.1,52.1-7.5,75.5-17.4,28-11.9,55.6-25.9,72-52.8C346.7,137.1,314,70.9,269.8,34.5Z" fill="#107bc0"/></g></g><path d="M81.7,97.6H66.5a10,10,0,0,0-9.9,9.9V217.9a10,10,0,0,0,9.9,9.9H90.9a24.6,24.6,0,0,1,48.7,0h34.3V107.5a9.9,9.9,0,0,0-9.9-9.9Z" fill="#fffffa"/><path d="M169.7,97.6h-7.9c2.3,0,4.2,4.5,4.2,9.9V227.8h7.9V107.5C173.9,102.1,172.1,97.6,169.7,97.6Z" fill="#e8e8e8"/><path d="M266.9,159.6a14.3,14.3,0,0,1,3.6,9.4v48.9a9.9,9.9,0,0,1-9.9,9.9H242.9a24.7,24.7,0,0,0-48.8,0H173.9V122.5h53.5a14.1,14.1,0,0,1,10.5,4.7Z" fill="#fffffa"/><path d="M230.9,175.1H201a4.7,4.7,0,0,1-4.7-4.7V143.1a4.7,4.7,0,0,1,4.7-4.7h15.4a5.1,5.1,0,0,1,3.7,1.6l14.4,16.8a4.7,4.7,0,0,1,1.2,3.2v10.4A4.8,4.8,0,0,1,230.9,175.1Z" fill="#084063"/><path d="M222.2,122.5H189.5v-5.4a3.9,3.9,0,0,1,4-3.9h24.8a3.9,3.9,0,0,1,3.9,3.9v5.4Z" fill="#333"/><path d="M218.5,113.2H193.2V102.5a12.3,12.3,0,0,1,12.3-12.3h.7a12.3,12.3,0,0,1,12.3,12.3Z" fill="#ef2d57"/><path d="M139.9,231.4a24.7,24.7,0,1,1-24.6-24.6A24.7,24.7,0,0,1,139.9,231.4Z" fill="#333"/><path d="M125.7,231.4A10.5,10.5,0,1,1,115.3,221,10.4,10.4,0,0,1,125.7,231.4Z" fill="#666"/><path d="M243.1,231.4a24.6,24.6,0,1,1-24.6-24.6A24.7,24.7,0,0,1,243.1,231.4Z" fill="#333"/><path d="M229,231.4A10.5,10.5,0,1,1,218.5,221,10.5,10.5,0,0,1,229,231.4Z" fill="#666"/><path d="M218.5,206.8a24.7,24.7,0,0,1,24.4,21h17.7a9.9,9.9,0,0,0,9.9-9.9V196.5H173.9v31.3h20.2A24.7,24.7,0,0,1,218.5,206.8Z" fill="#ef2d57"/><path d="M66.5,227.8H90.9a24.6,24.6,0,0,1,48.7,0h34.3V196.5H56.6v21.4A10,10,0,0,0,66.5,227.8Z" fill="#ef2d57"/><path d="M166.1,196.5h7.8v31.3h-7.8Z" fill="#c72549"/><path d="M110.9,146.8v-4.4H96.8a4.8,4.8,0,0,0-4.7,5,4.8,4.8,0,0,0,4.8,4.4h14v14.1a4.8,4.8,0,1,0,9.5-.1v-14h-4.5A5,5,0,0,1,110.9,146.8Z" fill="#0a4063"/><path d="M139.2,146.7a4.7,4.7,0,0,0-4.8-4.3h-14V128.2a4.8,4.8,0,0,0-5.1-4.7,4.9,4.9,0,0,0-4.4,4.9v14h4.5a5,5,0,0,1,5,5v4.4h14.1a4.8,4.8,0,0,0,3.4-1.4A4.7,4.7,0,0,0,139.2,146.7Z" fill="#88caef"/><path d="M115.4,142.4h-4.5v4.4a5,5,0,0,0,5,5h4.5v-4.4A5,5,0,0,0,115.4,142.4Z" fill="#5298d2"/></g></g></svg>