<?xml version="1.0" encoding="utf-8"?>
<!-- Generator: Adobe Illustrator 22.0.0, SVG Export Plug-In . SVG Version: 6.00 Build 0)  -->
<svg version="1.1" id="Layer_1" xmlns="http://www.w3.org/2000/svg" xmlns:xlink="http://www.w3.org/1999/xlink" x="0px" y="0px"
	 viewBox="0 0 1280 600" enable-background="new 0 0 1280 600" xml:space="preserve">
<title>family</title>
<g id="Layer_3">
	<rect id="bg_align" x="-0.5" y="0.5" fill="#107BC0" fill-opacity="0" width="1280" height="600"/>
	<g id="bg">
		<path id="bg-2" opacity="2.000000e-02" fill="#107BC0" enable-background="new    " d="M938.5,371c-22.3-26.7-52-40.8-81.9-46.9
			s-60.4-4.6-90.6-4.1c-65,1.1-129.1,8.4-194.8,8.4c-261.8,0-159.2,48.1-229.3,101.9c-10.7,8.2-21.7,17.5-27.8,31.6
			c-13.1,30.6,2,69,20.6,94.4c2,2.8,4,5.5,6.2,8.2c8.2,10.3,21.4,16.9,35.9,17.7l176.4,9.7c2.8,0.2,5.6,0.4,8.4,0.8
			c56.6,7.2,119.3,0.9,124.4,0.6l199.9-11.2c13-0.7,25.2-6,33.4-14.8h0.2c22.3-23.7,43.5-53,49-89.8
			C974.3,438.7,960.7,397.8,938.5,371z"/>
		<path id="bg-3" opacity="2.000000e-02" fill="#107BC0" enable-background="new    " d="M884.3,411.8
			c-18.2-21.9-42.6-33.4-67.1-38.4s-49.4-3.8-74.2-3.4c-53.2,0.9-105.6,6.9-159.4,6.9c-214.4,0-130.4,39.4-187.8,83.4
			c-8.7,6.8-17.7,14.4-22.7,26c-10.7,25,1.7,56.4,16.8,77.2l5.1,6.7c6.7,8.5,17.6,13.9,29.4,14.5l144.4,8c2.3,0.1,4.6,0.3,6.9,0.6
			c46.4,5.9,97.7,0.7,101.9,0.5l163.7-9.2c10.6-0.5,20.6-4.9,27.3-12.1h0.1c18.3-19.4,35.7-43.3,40.2-73.5
			C913.4,468.8,902.5,433.7,884.3,411.8z"/>
	</g>
	<g id="plant">
		<g id="plants" opacity="5.000000e-02">
			<path fill="#107BC0" d="M304.8,542.6c-0.1-2.9,0.2-5.8,0.9-8.6c0.6-2.8,2.3-5.4,4.6-7.1c3.2-2.1,7.4-2.2,10.7-0.3
				c3.2,2.1,5.3,5.5,5.6,9.3c0.3,5.3-2.7,10.1-6,14.2s-7,8-8.9,12.9s-1.5,10.5-1.9,15.9s-1.1,10.9-3.5,15.4c-1.8-2.3-0.9-8.2-1-11.1
				c-0.1-4.5-0.3-9-0.4-13.6C304.7,560.6,304.6,551.6,304.8,542.6z"/>
			<path fill="#107BC0" d="M295.5,551.8c8.6,12.9,11.8,28.6,9.1,43.9c1-14-7.5-27-17.5-36.9c-5.6-5.5-11.7-10.4-17.6-15.7
				c-3.5-3.1-13.4-9.1-7.4-13.1C271.8,523.7,291.1,545.3,295.5,551.8z"/>
			<path fill="#107BC0" d="M302.7,595.4c0.5,0.4,1.1,0.6,1.7,0.7c1.6,0.2,3.1-0.5,4.1-1.7c1.3-1.9-0.2-3.6,0.1-5.4s1.5-3.8,2.3-5.4
				c1.7-3.6,4-6.9,6.6-9.9c5.1-6.1,11.8-10.6,19.4-13c2.7-0.8,5.5-1.5,7.8-3.1s4-4.5,3.1-7.1s-4.3-4.3-7.2-3.9s-5.5,2.3-7.9,4.1
				s-7.6,6.3-11.2,9.6s-12,9.8-13.2,16.2c-0.4,2.3,0,4.6,0,6.9s-0.4,4.8-0.7,7.3c-0.1-0.3-0.3-0.6-0.5-0.8c-1.6-1.2-4.3,1-4.8,2.4
				C301.8,593.3,301.9,594.6,302.7,595.4z"/>
		</g>
		<g id="plants-2" opacity="5.000000e-02">
			<path fill="#107BC0" d="M946.5,575.3c0-1,0.1-2,0.3-3c0.2-1,0.8-1.9,1.6-2.5c1.1-0.7,2.5-0.7,3.7-0.1c1.1,0.7,1.8,2,1.9,3.3
				c0.2,1.8-0.9,3.5-2,4.9c-1.3,1.3-2.3,2.8-3.1,4.5c-0.7,1.7-0.6,3.7-0.7,5.5c-0.1,1.9-0.5,3.7-1.2,5.4c-0.6-0.8-0.3-2.9-0.3-3.9
				s-0.2-3.1-0.2-4.7C946.4,581.6,946.4,578.4,946.5,575.3z"/>
			<path fill="#107BC0" d="M943.2,578.5c3,4.5,4.2,10,3.2,15.3c0.4-4.9-2.6-9.4-6.1-12.9c-1.9-1.9-4.1-3.6-6.1-5.4s-4.7-3.2-2.6-4.6
				S941.7,576.2,943.2,578.5z"/>
			<path fill="#107BC0" d="M945.8,593.7l0.5,0.2c0.6,0.1,1.2-0.1,1.5-0.6c0.4-0.7-0.1-1.2,0-1.9c0.2-0.7,0.4-1.3,0.8-1.9
				c0.6-1.2,1.4-2.4,2.3-3.4c1.8-2.1,4.1-3.7,6.8-4.5c1-0.2,1.9-0.6,2.7-1.1c0.9-0.5,1.3-1.5,1-2.5c-0.4-1-1.5-1.5-2.5-1.3
				c-1,0.3-1.9,0.7-2.7,1.4c-1.4,1.1-2.7,2.2-3.9,3.4c-1.6,1.4-4.2,3.4-4.6,5.6c-0.1,0.8-0.1,1.6,0,2.4c0,0.8-0.1,1.7-0.3,2.5
				c0-0.1,0-0.1-0.1-0.2c-0.6-0.5-1.5,0.3-1.7,0.8C945.4,593,945.5,593.4,945.8,593.7z"/>
		</g>
		<g id="plants-3" opacity="5.000000e-02">
			<path fill="#107BC0" d="M271.2,576c0-1,0.1-2,0.3-3c0.3-1,0.8-1.8,1.6-2.4c1.1-0.8,2.6-0.8,3.7-0.1c1.2,0.7,1.9,1.9,2,3.2
				c-0.1,1.8-0.8,3.6-2.1,4.9c-1.2,1.4-2.3,2.9-3.1,4.5c-0.4,1.8-0.6,3.6-0.6,5.5c-0.1,1.9-0.5,3.7-1.3,5.4
				c-0.6-0.8-0.3-2.8-0.3-3.8s-0.1-3.2-0.2-4.8S271.1,579.2,271.2,576z"/>
			<path fill="#107BC0" d="M268,579.2c3,4.5,4.1,10,3.1,15.3c0.4-4.9-2.6-9.4-6-12.8s-4.1-3.7-6.2-5.5s-4.6-3.2-2.5-4.6
				S266.4,577,268,579.2z"/>
			<path fill="#107BC0" d="M270.5,594.4l0.6,0.2c0.5,0.1,1.1-0.1,1.4-0.6c0.5-0.6-0.1-1.2,0-1.8c0.2-0.7,0.5-1.3,0.8-1.9
				c0.6-1.3,1.4-2.4,2.3-3.5c1.8-2.1,4.2-3.6,6.8-4.5c0.9-0.2,1.8-0.6,2.7-1c0.9-0.5,1.3-1.5,1.1-2.5c-0.4-1-1.4-1.6-2.5-1.4
				c-1.1,0.2-2,0.8-2.8,1.5c-1.3,1-2.6,2.1-3.9,3.3c-1.5,1.5-4.1,3.4-4.6,5.6c-0.1,0.8-0.1,1.6,0,2.4c0,0.8-0.1,1.7-0.2,2.5
				c-0.1-0.1-0.1-0.2-0.2-0.2s-1.5,0.3-1.7,0.8C270.2,593.7,270.2,594.1,270.5,594.4z"/>
		</g>
		<g id="plants-4" opacity="5.000000e-02">
			<path fill="#107BC0" d="M980,541.9c0-2.9,0.3-5.8,0.9-8.6c0.7-2.8,2.4-5.4,4.7-7.1c3.2-2.1,7.4-2.2,10.7-0.3
				c3.3,2,5.3,5.5,5.5,9.3c0.4,5.2-2.6,10.1-5.9,14.2s-7.1,8-8.9,12.9s-1.6,10.5-2,15.8s-1.1,11-3.4,15.4c-1.8-2.2-0.9-8.1-1-11
				c-0.2-4.5-0.3-9.1-0.4-13.6C979.9,559.9,979.8,550.9,980,541.9z"/>
			<path fill="#107BC0" d="M970.7,551.1c8.6,12.9,11.9,28.6,9.2,43.9c1-14-7.5-27-17.5-36.9c-5.6-5.5-11.8-10.4-17.6-15.7
				c-3.6-3.2-13.5-9.1-7.4-13.1C947.1,523,966.3,544.6,970.7,551.1z"/>
			<path fill="#107BC0" d="M978,594.7c0.5,0.4,1.1,0.6,1.7,0.7c1.6,0.2,3.2-0.5,4.1-1.8c1.3-1.8-0.2-3.5,0-5.3
				c0.5-1.9,1.3-3.8,2.3-5.5c1.8-3.5,4-6.8,6.6-9.8c5.1-6.1,11.9-10.6,19.5-13c2.7-0.8,5.5-1.5,7.8-3.1s3.9-4.5,3.1-7.2
				s-4.3-4.2-7.3-3.8s-5.5,2.3-7.8,4.1c-3.9,3-7.6,6.2-11.2,9.6c-4.5,4.2-12,9.8-13.2,16.2c-0.4,2.3,0,4.6-0.1,6.9
				c0,2.4-0.3,4.8-0.7,7.2c-0.1-0.3-0.3-0.5-0.5-0.7c-1.6-1.2-4.2,1-4.8,2.4C977,592.6,977.2,593.9,978,594.7z"/>
		</g>
	</g>
	<g id="groundlevel" opacity="2.000000e-02">
		<path fill="#107BC0" d="M1027.9,596.1H251.1c-2,0-3.6-1.3-3.6-2.8s1.6-2.9,3.6-2.9h776.8c2,0,3.6,1.3,3.6,2.9
			S1029.9,596.1,1027.9,596.1z"/>
	</g>
	<g id="f-head">
		<g id="head">
			<path fill="#E29C5E" d="M394.1,478.5c0,0-4.7,16.2-14.9,12.5c-2.3-0.8-6.6-6.9-6.6-12.5c0-7.5,4.8-13.6,10.8-13.6
				S394.1,471,394.1,478.5z"/>
		</g>
		<g id="hair">
			<path fill="#252525" d="M374,471.7c1.5,2.5,3.9,4.3,6.7,5.1c3.9,0.9,7.9-0.3,10.6-3.2c0.7-0.9,1.2-1.8,1.5-1.7s-1.8,4.5-1.3,9.7
				s1.9,4.1,2.8,8.7s-1.1,7.1,0.2,10.3s9.1,8.2,13.4,6.1s5.7-11.6,3-17.3s-5.9-5.4-6.5-10.1c-0.3-2.9,1.1-3.3,1.3-7.6
				c0.3-3.7-0.5-7.4-2.3-10.6c-3.1-5-8.5-6.5-11.4-7.3s-8.7-2.4-14.6,0.9c-2.1,1-3.8,2.7-4.9,4.7C369.7,465,373.7,471.2,374,471.7z"
				/>
		</g>
		<path fill="#FFFFFF" d="M378.4,485h6c0.2,0,0.5,0.2,0.5,0.4c-0.1,1.1-0.4,3.5-2.5,3.5c-2,0-3.8-1.4-4.4-3.3
			C377.9,485.4,378.1,485,378.4,485z"/>
	</g>
	<g id="legs">
		<path fill="#E29C5E" d="M373.8,596.1c-0.6,0-1.2-0.3-1.7-0.7c-0.8-0.9-0.8-2.3,0.1-3.2l3.5-3.2c1.2-1.2,1.9-2.8,1.8-4.5l-1.6-43.9
			c-0.1-1.2,0.7-2.2,1.9-2.3c0.1,0,0.1,0,0.2,0c1.2-0.1,2.2,0.9,2.3,2.1c0,0,0,0,0,0l1.7,44c0.1,2.9-1.1,5.8-3.2,7.8l-3.5,3.3
			C374.9,595.9,374.4,596.1,373.8,596.1z"/>
		<path fill="#E29C5E" d="M398.2,596.1c-0.5,0-0.9-0.1-1.3-0.4l-4.7-3.3c-2.3-1.6-3.7-4.3-3.7-7.1v-44.4c0-1.2,1-2.2,2.2-2.2h0l0,0
			c1.2,0,2.2,1,2.2,2.2l0,0v44.4c0,1.4,0.7,2.7,1.9,3.5l4.7,3.3c1,0.7,1.2,2.1,0.5,3.1c0,0,0,0,0,0
			C399.6,595.8,398.9,596.1,398.2,596.1z"/>
	</g>
	<g id="body">
		<g id="hands_body">
			<path fill="#E29C5E" d="M404.2,534.9c-1.2,3.8-4,0.4-4.3-1.3s1.1-4.8,1.3-6.8c0.2-2.7,0-5.4-0.4-8.1c-0.8-4.1-1.9-8.1-3.3-12
				c-6.5,7.6-21.8,5.4-28.9-0.4c-1.6,6.3-4.4,14.7-1.5,21c0.9,1.9,5.1,6.1,4,8.1c-2,3.9-5.1-1.3-6.2-3c-4-6.5-3.7-12.1-2.3-19.6
				c0.9-5.1,1.3-14.5,6.6-17s15.1-1.6,21.4-1.2c4.4,0.3,7.9,0.8,9.6,5.1C404.5,510.3,407.4,523.9,404.2,534.9z"/>
		</g>
		<path id="gown" fill="#107BC0" d="M369.9,558.5c-9.4,1.4-4.9-8.7-3.2-13.3s4.3-11.9,6.2-17.9s-0.6-10.8-3.8-16.5
			c-3.2-5.7-4.5-13,4.3-11.2c3.2,0.6,7,1.5,10.5,1.8s5.4-0.7,9.2-1.7c8.7-2.1,7.6,5.8,5,10.8c-2.6,5-6.2,10-3.7,16.3
			s5.4,10.8,8,16.1s8.3,12.1,1.6,15.1c-4.4,2-11.6,0.7-16.3,0.5S375.8,557.6,369.9,558.5z"/>
	</g>
	<g id="grandma">
		<g id="legs-2">
			<path fill="#B66F4F" d="M750.8,595.9c-1.3,0-2.3-1.1-2.2-2.4c0-0.6,0.2-1.1,0.6-1.5l3.5-3.2c1.2-1.1,1.9-2.7,1.9-4.4l-1.4-44
				c0.2-1.2,1.4-2.1,2.7-1.8c0.9,0.2,1.6,0.8,1.8,1.7l1.3,43.9c0.1,3-1.1,5.8-3.2,7.9l-3.5,3.2C751.9,595.7,751.4,595.9,750.8,595.9
				z"/>
			<path fill="#B66F4F" d="M778.3,596.1c-0.5,0-0.9-0.1-1.3-0.4l-4.7-3.3c-2.4-1.6-3.8-4.3-3.7-7.2v-44.3c0.1-1.2,1.1-2.2,2.3-2.3
				l0,0c1.2,0,2.2,1,2.2,2.2c0,0,0,0.1,0,0.1l-0.2,44.3c0,1.4,0.7,2.8,1.9,3.6l4.7,3.3c1,0.7,1.2,2.1,0.5,3.1c0,0,0,0,0,0
				C779.6,595.8,779,596.1,778.3,596.1z"/>
		</g>
		<g id="head-2">
			<path fill="#B66F4F" d="M773.2,461.8c0,0.8-0.1,1.5-0.3,2.3c-2.5,9.5-16.2,9.4-18.6-0.2c-0.2-0.7-0.3-1.5-0.3-2.2
				c0.1-7.3,4.4-13.2,9.7-13.2S773.3,454.5,773.2,461.8z"/>
			<path fill="#FFFFFF" d="M766.4,465.6c2.1,0.8-2,2.7-2.7,2.8s-5.2-2.8-2.7-3.1S765.5,465.2,766.4,465.6z"/>
			<path fill="#B3B3B3" d="M757.9,455c1,2.5,0.3,6-1.9,6.4c-0.1,0-0.1,0-0.1,0.1c0.4,1.7,0,3.7-1.3,4.2c-1.6,0.4-3.1-0.6-3.5-2.2
				c0,0,0-0.1,0-0.1H751c-0.9,0.6-2.1,0.4-2.6-0.5c-0.1-0.2-0.2-0.4-0.3-0.6c-0.4-1.4,0.3-3.2,1.5-3.5l0,0c-0.3-5.8,1.8-2.3,2.8-4.6
				s-2.6-3.3,0.1-5.7c0.3-0.3,2.2-0.4,2.2-0.9s0.1-2,0.9-2.5s3-0.8,3.6,0.2s0.1,0,0.1,0c-0.2-1.1,0.4-2.2,1.4-2.6
				c1.1-0.4,2.5,0.7,2.7,2.1c-0.4-1.1,1-2.2,1.9-1.5c0.7,1,0.9,2.2,0.6,3.3c0,0.1,0.6-0.6,0.6-0.5c0,0.1,0,0.1,0.1,0.1h0.1
				c1.3-1,3-1.3,3.2,0.6h0.2c0.3-1.3,2-1.3,2.8-0.2c0.7,1.2,0.6,2.7-0.3,3.8c0,0.1,0,0.2,0.1,0.2c1.2-0.4,2.4,0,3.2,0.9
				c0.8,1,0.3,3.5-0.9,3.2c1.3,0.2,2.4,1,3,2.1c0.5,1.1-0.1,3-1,3s-0.1,0.2,0,0.2c0.9,0.9,1.2,2.2,0.7,3.4c-0.3,0.9-1.3,1.5-2.3,1.2
				c-0.2-0.1-0.4-0.2-0.6-0.4h-0.1c-0.7,1.5-1.4,2-2.5,1.1c-1.2-1.2-1.5-2.9-0.8-4.4h-0.1c-1.4,0.1-2.6-0.9-2.8-2.3
				c-0.4-1.5-0.8-3.3,0.3-4s0.1,0.1,0.1,0.2s-1.2,0.9-2,0.1s-1.8-2.5-1-3.5c-1.3,1.7-3.2,1-4.5,1.4s-2,2-3.4,2.4
				S757.9,454.9,757.9,455z"/>
		</g>
		<g id="body-2">
			<path fill="#B66F4F" d="M745.4,479c3.3-2.2,6.9-3.7,10.7-4.6c0,0,12.7-3,24.6,3.8c0.8,0.5,1.8,1.2,1.8,2s-6.9,3.7-9.5,4.3
				c-7.5,1.7-18,4.1-24.4-1.4C747.2,482,746.2,480.6,745.4,479z"/>
			<path fill="#B66F4F" d="M740.4,531.1c-0.5-0.2-1-0.6-1.3-1.1c-3.6-6.6-5.3-13.9-5.1-21.4c0.1-7.5,2.2-14.8,6-21.2
				c0.7-1.1,2.1-1.5,3.2-0.8c1.1,0.7,1.5,2.1,0.8,3.2c-3.5,5.7-5.3,12.2-5.4,18.9c-0.2,6.6,1.4,13.2,4.5,19.1c0.6,1,0.3,2.4-0.8,3
				c0,0-0.1,0.1-0.1,0.1C741.7,531.2,741,531.3,740.4,531.1z"/>
			<path fill="#B66F4F" d="M790.5,530.2c-0.4,0.1-0.8,0.1-1.2,0c-1.2-0.3-2-1.5-1.7-2.7c1.7-6.5,2.2-13.3,1.5-20
				c-0.6-6.7-2.4-13.2-5.3-19.3c-0.3-1.2,0.4-2.5,1.7-2.8c0.9-0.2,1.9,0.1,2.4,0.9c6.3,13.2,7.8,28.1,4.2,42.3
				C791.9,529.4,791.3,530,790.5,530.2z"/>
			<path fill="#107BC0" d="M745.3,477.9c1-0.4,6.7-3.2,7.6-2.6c8.7,6.4,12.3,4.9,21.8,0.2c0.6-0.3,5.5,1.9,6.2,2s6.6,6.1,7.3,7.3
				s1,1.6-0.3,3.1s-1.5,2.5-2.8,2.6s-3.1-0.8-4.4-1.7s-2-0.4-2.1,0.8l-0.8,5.5c-0.1,1.4-0.1,18.2-1,19.1s-4.8,1.4-6.2,1.7
				c-2.9,0.5-5.8,0.7-8.7,0.7c-2.5,0.1-5-0.1-7.4-0.5c-1.3-0.3-4.1-0.4-5.1-1.4s-0.8-17.8-1-19.5v-0.6c-0.6-2.8,0.5-5.7-4.5-2.7
				c-0.4,0.3-0.9,0.4-1.4,0.5c-1.9,0.2-5.6-2.1-5.6-4.2s2.4-3.5,3-4.3l2.8-3.5C743.8,478.9,744.3,478.3,745.3,477.9z"/>
			<path fill="#89CBF0" d="M785.5,557.5c0.1-7.7,1-15.5,0.3-23.1c-0.5-6.3-2.1-12.4-4.5-18.2c-0.3-0.8-1.3-2.1-1.4-3
				s1.4-0.9,0.5-2.5c-0.9-1.6-2.9-1.2-4.2-1.3c-6.9-0.1-13.9,0.5-20.8,0.2c-2.6-0.2-7.4-1.6-8.9,1.3c-0.6,1.1,0.5,4.6,0.4,6
				c-0.7,6.3-2.9,12-2.8,18.6v-1.2c-0.5,6.4-0.4,12.8-0.9,19.2s-1.5,12.6-1.2,18.8c0.5,12.1,14.2,10.1,22.7,9.7s20.3,1,20.9-10.4
				C785.8,566.9,785.5,562.2,785.5,557.5z"/>
		</g>
	</g>
	<g id="head-3">
		<path fill="#441E02" d="M828.6,466.2l-0.1,0c-5.6,0-10.1-4.5-10.1-10.1l0-2.1c0-5.6,4.5-10.1,10.1-10.1l0.1,0
			c5.6,0,10.1,4.5,10.1,10.1l0,2.1C838.7,461.7,834.2,466.2,828.6,466.2z"/>
		<path fill="#B57033" d="M818.5,465.6l0-8.2c0-5.6,4.5-10.1,10.1-10.1l0.1,0c5.6,0,10.1,4.5,10.1,10.1l0,8.2
			c0,5.6-4.5,10.1-10.1,10.1l-0.1,0C823,475.7,818.5,471.2,818.5,465.6z"/>
		<path fill="#FFFFFF" d="M824.7,467.2c-0.4,0-0.7,0.3-0.7,0.7c0,0.1,0,0.2,0.1,0.3c0.6,1.8,2.2,3,4.1,3.1c1.9-0.1,3.5-1.3,4.2-3.1
			c0.2-0.3,0-0.8-0.3-0.9c-0.1,0-0.2-0.1-0.3-0.1H824.7z"/>
		<path fill="#441E02" d="M818.9,456.9c0.7,0.3,2-1.2,2.7-3.3c0-0.1,0-0.1,0.1-0.2c3.9,2.9,9.2,2.9,13.2,0.1h0.1
			c0.7,2.1,1.9,3.6,2.7,3.3s0.8-2.2,0.1-4.3c-0.4-1.1-0.9-2.1-1.7-2.9l0,0c-0.8-2.2-4-3.8-7.8-3.8s-6.9,1.6-7.7,3.7
			c-0.8,0.8-1.4,1.9-1.8,3C818.1,454.7,818.1,456.6,818.9,456.9z"/>
	</g>
	<g id="legs-3">
		<path fill="#B57033" d="M851.3,596.1c0.5,0,1-0.3,1.3-0.7c0.6-0.8,0.5-2-0.3-2.7l-3.3-2.5c-1.1-0.9-1.8-2.2-1.9-3.6l-2.2-37.7
			c-0.1-1-0.9-1.9-2-1.8c0,0,0,0,0,0c-1,0.2-1.8,1-1.8,2.1l2.2,37.6c0.2,2.5,1.4,4.8,3.4,6.4l3.2,2.5
			C850.3,596,850.8,596.2,851.3,596.1z"/>
		<path fill="#B57033" d="M815.5,596.1c0.4,0,0.8-0.1,1.1-0.4l4.1-2.8c2-1.4,3.2-3.7,3.2-6.1l0.2-38c0-1-0.9-1.9-1.9-1.9h0l0,0
			c-1.1,0-1.9,0.8-2,1.9v38c0,1.2-0.6,2.3-1.6,3l-4.1,2.8c-0.9,0.6-1.1,1.8-0.5,2.7C814.4,595.8,814.9,596.1,815.5,596.1z"/>
	</g>
	<path id="pants" fill="#094063" d="M814.3,521.4v59.5c0,3.2,2.6,5.8,5.8,5.8h4.5c2.3,0,4.1-1.8,4.1-4.1v-49.5c0-0.3,0.4-0.3,0.5,0
		l9.9,50.9c0.3,1.6,1.7,2.7,3.3,2.7h6.7c1.8,0,3.3-1.4,3.3-3.3c0-0.2,0-0.4,0-0.5l-9.4-62.3c-0.2-1.3-1.4-2.3-2.7-2.3h-22.8
		C815.8,518.3,814.4,519.7,814.3,521.4z"/>
	<g id="hands">
		<path fill="#B57033" d="M843.9,528.7c2.4,0,6.2-5.1,7.6-6.7c3.6-3.5,5.3-8.6,4.3-13.6c-0.5-3-2.1-17.8-5.5-18s1.3,15.9,1.7,18.3
			c0.7,4.9-0.8,8.1-4.1,11.5C847.2,520.9,838.3,528.7,843.9,528.7z"/>
		<path fill="#B57033" d="M805.8,531.2c3.5-0.1,0.7-6.3,0.5-7.9c-0.7-3.7-0.9-7.5-0.8-11.3c0.2-4.1,0.8-8.3,1.8-12.3
			c0.5-1.9,3.9-8.3,2.4-10.2c-3.7-4.5-7.5,16-7.7,18.3S800.7,531.4,805.8,531.2z"/>
	</g>
	<g id="body-3">
		<path fill="#89CBF0" d="M804.8,494.9c1.3,0.4,3.9,1.7,5.2,1.5c0.8-0.2,1.6-0.7,2.1-1.4v25.9c-0.1,1,0.7,1.9,1.8,2
			c0.1,0,0.1,0,0.2,0h29.1c1,0,1.9-0.9,1.9-1.9v0v-26.4c1.2,1.7,1.7,1.9,4.3,1.2s4-0.8,4-3.6s-3.1-10.2-5.1-12s-11.5-2.1-15.6-2.4
			c-1.3-0.2-2.7-0.2-4-0.2h-0.1c-1.3,0-2.7,0-4,0.2c-4.7,0.4-13.5-0.7-16.5,3.7C806.8,483.4,801.8,494.1,804.8,494.9z"/>
		<path fill="#B57033" d="M824.1,478.1L824.1,478.1c-2.7,1.7,2.9,4.4,4.5,4.4s6.7-2.5,5-4.3S825.8,477.6,824.1,478.1z"/>
	</g>
	<g id="head-4">
		<path fill="#B58360" d="M899.2,466.9c0,4.2-3.3,7.9-5.9,10.2c-1.7,1.4-4.1,1.4-5.8,0c-2.5-2.3-5.9-6-5.9-10.2
			c0-6.9,4-12.4,8.8-12.4S899.2,460,899.2,466.9z"/>
		<path fill="#281B13" d="M882.6,464.1c3.3,1.2,2.4-4,1.8-5.3c1.1,0.8,2.7,0.6,3.5-0.5c0.5-0.6,0.6-1.4,0.4-2.2
			c-0.1,1,0.6,1.9,1.5,2s1.9-0.6,2-1.5c-1.5,2.4,2.8,4.2,3.4,1.4c-0.2,1.2,0.1,5.3,2.5,3.9c-1,0.9-1.1,2.4-0.2,3.4c0,0,0,0,0,0
			c0.4,0.5,1,0.8,1.7,0.8c-0.2,0.5-0.2,1.1,0,1.6c2.6,2.2,5.5-0.6,3.7-3.5c3.1,1.5,4.7-2.2,2.4-4.1c3.6-0.1,2.7-5.8-0.7-4.9
			c3.8-3-1.4-7.1-2.7-4.2c-0.4-1.3-1-3.1-2.5-3.7s-2.3,1.1-3.5,1s-2.3-2.3-3.9-2.5s-3.4,1.2-1.9,2.4c-1.5-1-3.3-1.5-5.1-1.5
			c-1,0.1-1.4-0.3-1.7,0.6s0.7,1.8,1.1,2.2c-1.7-0.8-4.1-1.6-5.6,0s-1.1,3.8,1,3.7c-1.9-0.3-5.1-0.7-6,1.7s1,3.7,2.6,2.5
			c-2.3-0.3-5,1.4-4.5,4s3.4,3.2,4.6,1.1c-1.8,0.9-4.7,2.5-3.7,5s3.6,0.8,4.6-0.9c-2.3,3,4.5,4.7,3.6,0.6
			C882.4,469.4,884.4,464.7,882.6,464.1z"/>
		<path fill="#FFFFFF" d="M893.1,471.1c1.6,0-1.3,2.5-2.1,2.7s-4.3-1.2-3.3-2.5S892.1,471.1,893.1,471.1z"/>
	</g>
	<g id="hands-2">
		<path fill="#B58360" d="M863.9,539.4c-0.7-0.1-1.2-0.6-1.3-1.3c-0.1-1.3-0.1-2.5-0.2-3.8c-0.5-13.2,0.8-26.4,3.9-39.2
			c0.1-0.7,0.8-1.2,1.5-1c0,0,0,0,0.1,0c0.8,0.1,1.3,0.9,1.1,1.6c0,0,0,0,0,0.1c-3,12.6-4.3,25.5-3.8,38.4c0.1,1.2,0.1,2.5,0.2,3.7
			c0.1,0.8-0.5,1.4-1.3,1.5c0,0,0,0,0,0L863.9,539.4z"/>
		<path fill="#B58360" d="M911.7,536.7h-0.2c-0.7-0.1-1.2-0.7-1.1-1.5c0,0,0-0.1,0-0.1l0.6-3.7c1.9-12.8,2.1-25.8,0.5-38.6
			c-0.1-0.7,0.4-1.4,1.1-1.5c0,0,0.1,0,0.1,0c0.8-0.1,1.5,0.4,1.6,1.2c0,0,0,0,0,0c1.6,13.1,1.4,26.3-0.5,39.3
			c-0.2,1.3-0.4,2.5-0.7,3.8C913,536.3,912.4,536.7,911.7,536.7z"/>
	</g>
	<g id="legs-4">
		<path fill="#B58360" d="M914.4,596.1c0.5-0.1,0.9-0.3,1.1-0.7c0.5-0.7,0.3-1.7-0.4-2.2l-2.8-2.1c-1-0.7-1.7-1.8-1.8-3l-3.2-32.1
			c-0.1-0.9-0.9-1.5-1.8-1.4c0,0,0,0,0,0c-0.9,0.1-1.6,0.9-1.5,1.8l3.2,32c0.3,2.2,1.4,4.1,3.2,5.4l2.8,2
			C913.5,596.1,914,596.2,914.4,596.1z"/>
		<path fill="#B58360" d="M868.3,596.1l1-0.2l3.6-2.1c1.9-1,3.1-2.9,3.2-5l3-32.4c0.1-0.9-0.6-1.7-1.5-1.8l0,0
			c-0.9-0.1-1.7,0.6-1.8,1.5l-2.9,32.4c-0.1,1-0.7,1.9-1.6,2.4l-3.6,2.1c-0.8,0.5-1.1,1.5-0.7,2.3
			C867.3,595.7,867.8,596,868.3,596.1z"/>
	</g>
	<g id="body-4">
		<path fill="#B58360" d="M873.1,485c3.3-2.1,6.9-3.7,10.7-4.6c0,0,12.6-3.1,24.6,3.6c0.8,0.5,1.8,1.2,1.8,2s-6.8,3.8-9.5,4.4
			c-7.5,1.8-18,4.2-24.4-1.2C874.9,488.1,873.8,486.6,873.1,485z"/>
		<path fill="#C0E5E5" d="M873,484c1-0.4,2.1-0.3,3,0.3c8.8,6.3,20.1,5.5,29.5,0.7c0.6-0.3,2.4-1.8,3.1-1.7s6.6,6,7.3,7.2
			s1.1,1.6-0.2,3.1c-0.9,1.1-2.2,1.8-3.6,2c-1,0.1-1.9-0.1-2.8-0.6c-1.5-0.7-3.4-0.1-4.1,1.5c-0.1,0.3-0.2,0.6-0.3,0.8l-0.4,3.7
			c-0.2,1.3-0.2,15.5,1.3,21.5c0.6,2.5-7-2.2-8.4-1.9s-7.2,2.9-9.8,3c-2.5,0-5-0.2-7.4-0.6c-1.3-0.2-6.1,0-5.5-1.3
			c2.1-5.4,1.3-18.9,1-20.5v-0.5c-0.1-1.7-1.5-3-3.2-3c-0.5,0-1,0.1-1.4,0.4c-0.4,0.3-0.9,0.5-1.4,0.5c-1.9,0.2-5.6-1.5-5.7-3.6
			s3-4,3.7-4.9l2.7-3.6C871.5,485,872,484.4,873,484z"/>
		<path fill="#094063" d="M875.3,517.7c0.4-4.3,2.5-1.4,5.7-0.4c4.1,1.3,8.5,1.1,12.5-0.3c2.4-1,7.3-0.8,9.9-1.4s2.6-0.5,3.4,1.9
			c1.9,5.4,4.4,8.3,5.1,13.4c1.1,7.2,0.7,27.3,2.2,30.4s4,15.7,3.1,18.2s-9.4,4.4-11.6,2.7s-8.5,2.1-8-7.2c0.1-3.4-1.6-8.4-2.1-19.4
			c-0.3-5.3-3.8-11.9-3.8-21.5c-0.4,1.1-0.9,2.1-1.4,3.1c-0.5,1.5-0.9,2.9-1.4,4.3c-1,3.4-1.2,6.9-0.6,10.4c1.4,7-2.2,20.6-2,27.2
			c0,1.3-0.7,1.9-1.5,3s-5,1.3-8,1.5s-5.5,1.1-7.5-0.5s-2.2-4-1.6-6.6s1.9-7.2,1.9-9.1s-0.4-6.4-0.5-9.8s0.2-4.3,0-6.3
			s1.2-14,2.1-17.2C872.8,528.7,873.9,523.2,875.3,517.7z"/>
	</g>
	<g id="head-5">
		<path fill="#441E02" d="M478.9,481.4L478.9,481.4c4.6,0,8.4,3.8,8.4,8.4l0,1.6c0,4.6-3.8,8.4-8.4,8.4l0,0c-4.6,0-8.4-3.8-8.4-8.4
			l0-1.6C470.5,485.2,474.2,481.4,478.9,481.4z"/>
		<path fill="#D5B093" d="M470.5,498.8l0-6.7c0-4.6,3.8-8.4,8.4-8.4h0c4.6,0,8.4,3.8,8.4,8.4l0,6.7c0,4.6-3.8,8.4-8.4,8.4h0
			C474.2,507.2,470.4,503.4,470.5,498.8z"/>
		<path fill="#FFFFFF" d="M482,500.1c0.3-0.1,0.5,0.1,0.6,0.4c0,0.1,0,0.3-0.1,0.4c-0.6,1.4-1.9,2.4-3.5,2.5c-1.5,0-2.9-1-3.4-2.5
			c-0.2-0.2-0.1-0.5,0.1-0.7c0.1-0.1,0.3-0.1,0.4-0.1H482z"/>
		<path fill="#441E02" d="M486.8,489.7c-0.6,0.3-1.6,0.6-2.2-1.1c-0.1,0-0.1,0-0.1-0.1l0,0c-3.4,2.1-7.6,2.1-11,0l0,0
			c-0.6,1.7-1.6,1.3-2.3,1.1s-0.6-0.2,0-1.9c0.3-0.9,0.7-1.7,1.4-2.4l0,0c0.7-1.8,3.3-3.2,6.4-3.2s5.7,1.4,6.4,3.1
			c0.7,0.7,1.2,1.6,1.5,2.5C487.5,489.5,487.5,489.5,486.8,489.7z"/>
	</g>
	<g id="hands-3">
		<path fill="#D5B093" d="M503.4,533.9c-6-1.4-8.6-9-9.4-12.3c-0.1-0.8,0.5-1.6,1.3-1.7c0.7-0.1,1.4,0.3,1.6,1
			c0.5,2.1,2.6,9,7.2,10.1h1.3c4-0.2,8.3-8.5,10.8-16.5c0.2-0.8,1.1-1.2,1.9-1c0,0,0,0,0,0c0.7,0.2,1.1,1,0.9,1.8c0,0,0,0,0,0
			c-1,3.3-2.3,6.6-3.9,9.7c-2.9,5.8-6.2,8.8-9.5,9l-2-0.2C503.5,534,503.4,534,503.4,533.9z"/>
		<path fill="#D5B093" d="M445.9,548.8c-0.4-0.1-0.8-0.3-1.1-0.7c-0.4-0.7-0.1-1.7,0.6-2.1l3-2c4.1-3.3,7.3-7.4,9.5-12.2
			c1.8-3.7,3-7.7,3.7-11.7c0.1-0.8,0.8-1.3,1.6-1.2c0,0,0.1,0,0.1,0l0,0c0.8,0.1,1.3,0.8,1.2,1.6c0,0,0,0.1,0,0.1
			c-0.7,4.3-2,8.5-3.9,12.5c-2.3,5.2-5.9,9.8-10.4,13.3l-3.3,2.2C446.6,548.8,446.2,548.8,445.9,548.8z"/>
	</g>
	<g id="legs-5">
		<path fill="#D5B093" d="M468.6,596.1c-0.5,0-1-0.2-1.3-0.6c-0.6-0.7-0.6-1.8,0.1-2.4l2.7-2.6c0.9-0.9,1.5-2.2,1.4-3.5l-1.3-34.4
			c0-1,0.7-1.7,1.7-1.8c0.9-0.1,1.7,0.7,1.8,1.6c0,0,0,0.1,0,0.1l1.3,34.4c0.1,2.3-0.8,4.6-2.5,6.2l-2.7,2.5
			C469.5,595.9,469,596.1,468.6,596.1z"/>
		<path fill="#D5B093" d="M491.5,596.1l-1-0.3l-3.7-2.6c-1.8-1.3-2.9-3.4-2.9-5.6v-34.7c0-1,0.8-1.8,1.8-1.8l0,0
			c1,0.1,1.7,0.8,1.7,1.8v34.7c0,1.1,0.5,2.1,1.4,2.8l3.7,2.6c0.8,0.5,1,1.6,0.5,2.4C492.6,595.9,492.1,596.1,491.5,596.1z"/>
	</g>
	<g id="shorts_pockets">
		<path id="shorts" fill="#107BC0" d="M479.4,560.8v-9.2c0-0.2-0.1-0.3-0.1-0.5l-0.6-1.8h-0.2c-0.1,3.9-0.1,7.8,0,11.6
			c0,0.4-0.3,0.7-0.7,0.7h0h-11.1c-0.1,0-0.2-0.2-0.2-0.3v-17.5h-0.3c0-0.8,0.1-1.6,0.1-2.4h0.6v0.2h24.9v2.2h-0.4
			c-0.6,5.5-0.5,11.1,0.2,16.6c0.1,0.5-0.3,1-0.9,1.1c0,0,0,0,0,0h-10.5C479.8,561.5,479.5,561.2,479.4,560.8z"/>
		<path fill="#C0E5E5" d="M467.5,548.7l-1-0.2v-0.7c1,0.3,2.1,0.1,2.9-0.5c1.4-1,1.2-3.1,1.2-3.2h0.8c0.1,1.5-0.5,2.9-1.6,3.9
			C469.1,548.5,468.3,548.7,467.5,548.7z"/>
		<path fill="#C0E5E5" d="M490,548.7l1-0.2v-0.7c-0.9,0.3-2,0.1-2.8-0.4c-0.9-0.9-1.4-2.1-1.3-3.3h-0.7c0,0.1-0.2,2.6,1.5,3.9
			C488.4,548.4,489.2,548.7,490,548.7z"/>
	</g>
	<g id="body-5">
		<path fill="#C0E5E5" d="M498,522.7c-1.1,0.3-3.1,1.3-4.2,1.1c-0.7-0.1-1.2-0.5-1.6-1.1v20.6c0,0.9-0.7,1.6-1.6,1.6h-23.2
			c-0.8,0-1.5-0.7-1.5-1.5c0,0,0-0.1,0-0.1v-21c-0.9,1.4-1.3,1.5-3.4,1s-3.2-0.7-3.2-2.9s2.5-8.1,4.1-9.6c1.6-1.5,9.2-1.6,12.4-1.9
			h6.4c3.8,0.4,10.8-0.4,13.2,3.1C496.4,513.4,500.4,522,498,522.7z"/>
		<path fill="#D5B093" d="M482.7,509.2c0,0.1,0,0,0.1,0.1c2,1.3-2.5,3.5-3.7,3.5s-5.4-2-4-3.5S481.3,508.8,482.7,509.2z"/>
	</g>
	<g id="legs-6">
		<path fill="#B58360" d="M428.3,596.1c-0.4,0-0.7-0.2-0.9-0.5c-0.4-0.6-0.3-1.4,0.3-1.8l2.1-1.7c0.8-0.6,1.3-1.5,1.3-2.5l1.4-25.7
			c0-0.7,0.6-1.3,1.3-1.3c0,0,0.1,0,0.1,0c0.7,0.1,1.2,0.7,1.2,1.4l-1.4,25.7c0,1.7-0.8,3.4-2.2,4.4l-2.2,1.8
			C429,596.1,428.6,596.2,428.3,596.1z"/>
		<path fill="#B58360" d="M448.4,595.7c-0.3,0-0.6,0-0.8-0.2l-2.8-1.8c-1.4-0.9-2.3-2.4-2.4-4.1l-1-26c0-0.7,0.6-1.3,1.3-1.3l0,0
			c0.7-0.1,1.2,0.4,1.3,1.1c0,0,0,0.1,0,0.1l1.1,26c0,0.8,0.4,1.6,1.1,2l2.9,1.8c0.6,0.4,0.7,1.2,0.3,1.8
			C449.2,595.5,448.8,595.7,448.4,595.7z"/>
	</g>
	<g id="head-6">
		
			<ellipse transform="matrix(1.745302e-03 -1 1 1.745302e-03 -93.4248 965.661)" fill="#4C3322" cx="437" cy="529.6" rx="8.2" ry="7.4"/>
		<path fill="#B58360" d="M443.8,532.1c0,10.2-14.1,10.2-14.1,0S443.8,521.9,443.8,532.1z"/>
		<path fill="#4C3322" d="M439.4,520.1c0,3.3-5.2,3.3-5.2,0S439.4,516.7,439.4,520.1z"/>
		<path fill="#4C3322" d="M429.6,531.6c2.2,1.3,3.1-3.3,3.4-4.2s0.3-1.5,1.8-1.1c1.1,0.3,2.3,0.4,3.4,0.4c1.2-0.1,0.9-0.4,1.7,0.4
			s1.4,2,2.2,2.8s2.2,2.1,2.1-0.4s-5-6.6-8.3-6.6s-4.4,2.1-5.5,4S428.3,530.7,429.6,531.6z"/>
		<path fill="#C0E5E5" d="M443.9,530.1c-2.6-7.8-11.7-7.8-14.2-0.1c0.6-3.5,3.1-7.3,7.1-7.3S443.3,526.5,443.9,530.1z"/>
		<path fill="#FFFFFF" d="M436.9,537.3c-1.2-0.1-2.2-0.9-2.5-2c-0.1-0.2,0-0.3,0.1-0.3s4.4,0.3,4.5-0.1s0.1-0.3,0.2-0.2
			c0.1,0,0.2,0.1,0.2,0.2l0,0C439.3,536.2,438.2,537.3,436.9,537.3z"/>
	</g>
	<g id="hands-4">
		<path fill="#B58360" d="M461.9,562.8h-0.1c-1.7-0.2-3.3-0.7-4.8-1.4c-2.9-1.3-5.4-3.3-7.3-5.8c-2.6-3.4-4.4-7.4-5.1-11.6
			c-0.1-0.6,0.3-1.2,0.9-1.3c0.6-0.1,1.2,0.3,1.3,0.9l0,0c0.3,1.5,0.7,3.1,1.3,4.5c0.8,2.2,1.9,4.3,3.4,6.2c1.7,2.2,3.9,3.9,6.4,5.1
			c1.3,0.6,2.7,1,4.1,1.2c0.6,0,1,0.4,1,1c0,0.1,0,0.1,0,0.2C462.9,562.4,462.5,562.8,461.9,562.8z"/>
		<path fill="#B58360" d="M417.8,549.3c-0.9,0-1.9-0.1-2.8-0.3c-4.4-1-8.2-3.6-10.7-7.3c-2.8-4.3-4.3-9.3-4.3-14.4
			c0-0.6,0.5-1.1,1.1-1.1s1.1,0.5,1.1,1.1c0,2.4,0.4,4.9,1.1,7.2c0.7,2.1,1.6,4.1,2.9,5.9c2.1,3.2,5.4,5.5,9.2,6.4
			c4.8,0.9,9.1-1.3,11.3-2.7c0.5-0.3,1.2-0.1,1.5,0.4c0.3,0.5,0.2,1.2-0.3,1.5C424.9,548,421.4,549.2,417.8,549.3z"/>
	</g>
	<g id="body-6">
		<path fill="#C0E5E5" d="M445.8,556.6v-8.7h0.6c1.6-0.6,2.4-2.3,1.8-3.8c0,0,0,0,0-0.1c-0.8-1.8-2.9-2.6-4.7-1.8
			c-0.2,0.1-0.3,0.1-0.5,0.2c-1-0.7-2.2-1.1-3.4-1.1h-5.5c-1.3,0-2.7,0.5-3.7,1.3c0-0.1,0-0.1-0.1-0.1c-1.3-1.3-4.6-0.6-5.4,1.4
			c-0.5,1.6,0.3,3.4,1.9,4c0.4,0.1,0.7,0.2,1.1,0.1v8h-0.1c-1.9,2.9-3.2,6-4.1,9.3c-0.9,3.5-1.5,5.8-0.9,7.5
			c2.6,7.7,29.5,6.4,32.2-2C455.9,567.7,452.9,563,445.8,556.6z"/>
		<path fill="#094063" d="M438,560l-2.7-0.2c-5-0.9-7.5-3.8-7.8-4.5c-0.1-0.2,0-0.5,0.2-0.6c0.2-0.1,0.5,0,0.6,0.2
			c0.5,0.8,1.1,1.4,1.9,1.9c1.5,1.1,3.3,1.8,5.2,2.1c2,0.4,4,0.3,5.9-0.3c1.9-0.6,3.5-1.9,4.4-3.7c0.1-0.2,0.4-0.3,0.6-0.2
			c0.2,0.1,0.3,0.4,0.2,0.6C444.8,558.4,441.9,560,438,560z"/>
		<path fill="#B58360" d="M430.9,542.1c1.5,0.8,3.3,1.2,5,1.2c2.1,0,4.3-0.5,6.1-1.6l-1.4-0.4h-7.1c-0.8,0.1-1.6,0.4-2.3,0.8H430.9z
			"/>
	</g>
	<g id="head-7">
		<path fill="#BDBDBD" d="M697.9,445.7l0.1,0c5.6,0,10.1,4.5,10.1,10.1l0,2.1c0,5.6-4.5,10.1-10.1,10.1l-0.1,0
			c-5.6,0-10.1-4.5-10.1-10.1l0-2.1C687.8,450.2,692.3,445.7,697.9,445.7z"/>
		<path fill="#926440" d="M687.8,466.6l0-8.2c0-5.6,4.5-10.1,10.1-10.1l0.1,0c5.6,0,10.1,4.5,10.1,10.1l0,8.2
			c0,5.6-4.5,10.1-10.1,10.1l-0.1,0C692.3,476.7,687.8,472.2,687.8,466.6z"/>
		<path fill="#BDBDBD" d="M687.9,466.2c6.5-2.4,13.5-2.7,20.2-0.9c0.4,7.8-0.8,14.8-10,14.4S687.4,473.7,687.9,466.2z"/>
		<path fill="#FFFFFF" d="M701.8,468.1c0.4,0,0.7,0.3,0.7,0.7c0,0.1,0,0.2-0.1,0.3c-0.7,1.7-2.3,2.9-4.2,3c-1.9-0.1-3.5-1.3-4.1-3
			c-0.2-0.3,0-0.8,0.3-0.9c0.1,0,0.2-0.1,0.3-0.1H701.8z"/>
		<path fill="#BDBDBD" d="M707.6,457.7c-0.7,0.3-2-1.2-2.7-3.3h-0.1c-3.9,2.9-9.3,2.9-13.2,0h-0.1c-0.7,2.1-1.9,3.6-2.7,3.3
			s-0.8-2.2,0-4.3c0.3-1.1,0.8-2.1,1.6-2.9l0,0c0.8-2.1,4-3.8,7.8-3.7s6.9,1.5,7.7,3.7c0.8,0.8,1.4,1.8,1.8,2.9
			C708.4,455.5,708.4,457.5,707.6,457.7z"/>
	</g>
	<g id="cap">
		<path fill="#107BC0" d="M696.7,445.7l2.5,0c5,0,9,4,9,9l0,0.2c0,0.1-0.1,0.2-0.2,0.2l0,0l-19.9,0c-0.2,0-0.4-0.2-0.4-0.4
			c0,0,0,0,0,0l0,0C687.7,449.7,691.8,445.7,696.7,445.7L696.7,445.7z"/>
		<path fill="#89CBF0" d="M690.9,452.3c-0.5,0-0.9-0.2-1.2-0.5c-0.6-0.4-0.9-1.2-0.5-1.8s1.2-0.9,1.8-0.5c0.5,0,1,0.4,1.2,0.9
			c0.3,0.7,0,1.5-0.7,1.8L690.9,452.3z M690.6,450c-0.3,0-0.7,0.1-0.8,0.4s0,0.7,0.3,1l0,0c0.3,0.4,0.8,0.5,1.2,0.3
			c0.4-0.2,0.6-0.6,0.4-1c0,0,0,0,0-0.1c-0.1-0.3-0.4-0.6-0.8-0.6L690.6,450z"/>
		<path fill="#89CBF0" d="M694.3,451.9h-0.5c-0.4-0.2-0.7-0.4-1-0.7l0,0c-0.3-0.5-0.3-1.1-0.1-1.6c0.3-0.7,1.1-1,1.7-0.7
			c0.2,0.1,0.4,0.2,0.5,0.4c0.4,0.4,0.6,1,0.5,1.6c0,0.4-0.3,0.8-0.7,1H694.3z M693.9,449.3L693.9,449.3c-0.3,0.1-0.5,0.3-0.7,0.5
			c-0.1,0.4-0.1,0.8,0.1,1.1l0,0c0.1,0.2,0.4,0.4,0.7,0.4h0.5c0.2-0.1,0.4-0.3,0.4-0.6c0.1-0.4-0.1-0.9-0.4-1.2
			C694.3,449.4,694.1,449.3,693.9,449.3L693.9,449.3z"/>
		<path fill="#89CBF0" d="M698.4,451.7H698c-0.4-0.1-0.7-0.2-0.8-0.5l0,0c-0.3-0.4-0.4-0.8-0.3-1.3v-0.2c0-0.3,0.1-0.5,0.3-0.7
			c0.2-0.2,0.5-0.2,1-0.1l0.7,0.2c0.3,0.1,0.5,0.3,0.6,0.5c0.2,0.4,0.2,0.8,0,1.2c0,0.3-0.1,0.6-0.4,0.8L698.4,451.7z M697.6,450.9
			l0.5,0.3h0.7c0.1-0.1,0.2-0.3,0.2-0.5c0.1-0.2,0.1-0.5,0-0.7l-0.3-0.3l-0.6-0.2h-0.6v0.5C697.5,450.3,697.5,450.7,697.6,450.9
			L697.6,450.9z"/>
		<path fill="#89CBF0" d="M702.8,451.7h-0.5c-0.7-0.2-1.1-0.5-1.2-1.1c-0.1-0.5,0.1-1.1,0.5-1.4c0.4-0.3,0.9-0.3,1.3-0.1
			c0.5,0.2,0.9,0.6,1.1,1.1c0.1,0.5-0.1,1.1-0.5,1.4L702.8,451.7z M702.2,449.5h-0.3c-0.3,0.2-0.3,0.6-0.3,0.9
			c0.1,0.4,0.4,0.7,0.8,0.7h0.8c0.2-0.2,0.4-0.5,0.3-0.8c-0.2-0.3-0.5-0.5-0.8-0.7L702.2,449.5z"/>
		<path fill="#89CBF0" d="M706.2,451.9h-0.5c-0.6-0.3-1-0.8-1.2-1.5c0-0.4,0.2-0.7,0.5-0.9c0.3-0.3,0.8-0.3,1.2-0.1
			c0.6,0.3,0.9,0.9,0.9,1.5c0,0.3-0.1,0.7-0.3,0.9L706.2,451.9z M705.9,451.3h0.6c0.1-0.1,0.1-0.4,0.1-0.5c0-0.4-0.3-0.8-0.6-1
			c-0.2-0.1-0.5-0.1-0.7,0c-0.2,0.1-0.3,0.2-0.3,0.4C705.2,450.7,705.5,451.1,705.9,451.3z"/>
		<path fill="#89CBF0" d="M688.1,453.3c-0.2,0-0.3-0.1-0.3-0.2c0-0.1,0.1-0.2,0.2-0.2l0,0c3.9-0.5,7.7-0.7,11.6-0.8h5.1l3.3,0.3
			l0.2,0.2c0,0.1-0.1,0.2-0.2,0.2l0,0l-3.3-0.2c-1.7-0.1-3.4-0.2-5.1-0.1c-3.8,0-7.7,0.3-11.5,0.7V453.3z"/>
	</g>
	<g id="legs-7">
		<path fill="#926440" d="M685.6,596.1c-0.6-0.1-1.2-0.3-1.6-0.7c-0.8-0.9-0.8-2.3,0.1-3.2l3.5-3.2c1.2-1.2,1.8-2.8,1.8-4.5
			l-1.7-43.9c-0.1-1.2,0.9-2.2,2.1-2.3c0,0,0.1,0,0.1,0c1.2-0.1,2.2,0.9,2.3,2.1c0,0,0,0,0,0l1.6,43.9c0.2,3-1,5.9-3.2,7.9l-3.4,3.3
			C686.8,595.9,686.2,596.1,685.6,596.1z"/>
		<path fill="#926440" d="M713.2,596.1c-0.5,0-0.9-0.1-1.3-0.4l-4.7-3.3c-2.3-1.6-3.7-4.3-3.7-7.1v-44.4c0-1.2,1-2.2,2.2-2.2l0,0
			l0,0c1.2,0,2.2,1,2.2,2.2l0,0v44.4c0,1.4,0.7,2.7,1.9,3.5l4.7,3.3c1,0.7,1.3,2,0.6,3c0,0,0,0,0,0.1
			C714.6,595.8,713.9,596.1,713.2,596.1z"/>
	</g>
	<g id="trouser_">
		<path fill="#094063" d="M691.1,542.8L691.1,542.8c3.2,0,5.8,2.6,5.8,5.7v26.8c0,3.1-2.6,5.7-5.7,5.7h-0.1c-3.1,0-5.7-2.6-5.7-5.7
			v-26.8C685.4,545.3,687.9,542.8,691.1,542.8z"/>
		<path fill="#094063" d="M705.2,544.1L705.2,544.1c3.2,0,5.8,2.6,5.8,5.7l0,26.8c0,3.1-2.6,5.7-5.7,5.7l-0.1,0
			c-3.1,0-5.7-2.6-5.7-5.7l0-26.8C699.4,546.7,702,544.1,705.2,544.1z"/>
		<path fill="#89CBF0" d="M692.2,580.6h-1.7l-1.3-0.2c-1.3-0.3-2.7-0.3-4.1-0.2c-0.2,0-0.3-0.1-0.3-0.2s0-0.3,0.2-0.4
			c1.4-0.1,2.9-0.1,4.3,0.2l1.2,0.2c3.2,0.4,4.5-0.3,5.3-0.9c0.1-0.1,0.2,0,0.3,0.1c0,0,0,0,0,0c0.1,0.2,0.1,0.4-0.1,0.4
			C694.9,580.4,693.5,580.7,692.2,580.6z"/>
		<path fill="#89CBF0" d="M699.9,579.9c-0.1,0-0.2-0.1-0.2-0.3s0-0.3,0.2-0.3c3.6-0.6,7.3-0.7,11-0.3c0.1,0,0.2,0.1,0.2,0.3
			c-0.1,0.1-0.2,0.2-0.3,0.3c-3.6-0.4-7.2-0.3-10.8,0.3H699.9z"/>
	</g>
	<g id="hands-5">
		<path fill="#926440" d="M676,540.5c-0.8,0-1.5-0.4-1.8-1.1c-0.5-0.9-0.9-1.8-1.3-2.7c-2.4-6-3.7-12.4-3.6-18.8
			c0-5.6,0.7-11.2,2.1-16.7c0.2-1,1.3-1.6,2.3-1.4c0,0,0,0,0,0c1,0.2,1.6,1.1,1.5,2.1c0,0.1,0,0.1-0.1,0.2
			c-3.1,12.3-2.6,23.4,1.4,33.1c0.3,0.9,0.7,1.7,1.1,2.6c0.5,0.9,0.1,2-0.8,2.4c0,0-0.1,0-0.1,0.1L676,540.5z"/>
		<path fill="#926440" d="M724.9,542.2c0.7-0.1,1.3-0.6,1.6-1.3c0.3-1,1.5-2.4,1.7-3.4c1.5-6.5,1.7-13.2,0.8-19.8
			c-0.9-5.7-2.5-11.3-4.7-16.7c-0.4-1-1.5-1.5-2.4-1.1c0,0,0,0-0.1,0c-1,0.5-1.4,1.6-1,2.6c4.9,12.1,6.2,23.5,3.7,34
			c-0.2,1-1.4,2.3-1.7,3.2c-0.3,1,0.3,2.1,1.3,2.4L724.9,542.2z"/>
	</g>
	<g id="shirt">
		<path fill="#107BC0" d="M726.8,501.8c0,0.9-0.6,1.3-1.5,1.5l-4.4,1.1v41.7c0,0.4-0.3,0.7-0.7,0.7c0,0-0.1,0-0.1,0h-44.3
			c-0.4,0-0.8-0.4-0.8-0.8v-41.4c-1.6-0.4-5.9-0.5-5.9-2.9c0-5,0.9-10.6,4.4-14.3s12.1-5.5,17.8-6c7.5-0.5,15,0.6,22.4,1.6
			c2.5,0.4,4.8,1.5,6.7,3.2c0,0.1,0.1,0.1,0.1,0.2l0.3,0.2C724.6,490.8,726.7,496.2,726.8,501.8z"/>
		<path fill="#89CBF0" d="M699,493.5c0,0.2-0.1,0.3-0.3,0.3l0,0c-0.1,0-0.1,0-0.1-0.1h-0.3c-1.7-3.8-3-7.8-3.9-11.9
			c-0.1-0.1,0-0.3,0.2-0.3s0.2,0,0.3,0.2c0.9,3.8,2.1,7.4,3.6,11v-11c0-0.2,0.1-0.3,0.3-0.3l0,0c0.2,0,0.3,0.1,0.3,0.3L699,493.5z"
			/>
		<path fill="#89CBF0" d="M675.3,545.4l-0.3-0.2c0-0.2,0.1-0.3,0.3-0.3c6.8-0.5,13.7-0.6,20.5-0.3c8.2,0.3,16.6,0.6,24.8-0.7
			c0.2,0,0.3,0.1,0.3,0.2s-0.1,0.3-0.2,0.3c-8.2,1.3-16.7,1-24.9,0.8C689,544.9,682.1,544.9,675.3,545.4L675.3,545.4z"/>
		<path fill="#89CBF0" d="M719.8,502.6h-0.2c-0.1,0-0.2-0.2-0.1-0.3c0,0,0,0,0,0c0-0.2,0.1-0.3,0.3-0.2c0.7,0.1,1.5,0,2.2-0.3
			l4.4-1.3l0.3,0.2c0,0.1,0,0.3-0.2,0.3l-4.4,1.3C721.4,502.6,720.6,502.7,719.8,502.6z"/>
		<path fill="#89CBF0" d="M674.7,502.9h-1.1l-4.2-1.5c-0.1-0.1-0.2-0.3-0.1-0.4c0-0.1,0.2-0.2,0.3-0.1c0,0,0,0,0,0l4.2,1.5h0.9
			c0.2,0,0.5,0.1,0.6,0h0.2c0.2,0,0.3,0.2,0.2,0.4S675.1,502.9,674.7,502.9z"/>
		<path fill="#89CBF0" d="M713.5,510.7H705l-0.3-0.2c-0.5-1.9-0.9-3.9-1.2-5.9c-0.3-2.5-0.7-5.5-0.4-6s1.9-1.1,3.1-1.1h1
			c2-0.1,3.9-0.5,5.8-1.1c0.1,0,0.3,0,0.3,0.1c0.1,0,0.1,0,0.1,0.1c0.2,4.7,0.4,9.2,0.4,13.9C713.8,510.6,713.7,510.7,713.5,510.7z
			 M705.5,510.1h7.4c0.2,0,0.3-0.2,0.3-0.4c0.1-4,0-8.1-0.2-12.2c0-0.3-0.2-0.6-0.6-0.6c-0.1,0-0.2,0-0.2,0c-1.6,0.5-3.3,0.9-5,1h-1
			c-1.1,0-2.2,0-2.6,0.7l0,0c-0.2,0.3-0.1,2.2,0.5,5.8c0.2,1.8,0.5,3.5,1,5.2C705.1,510,705.3,510.1,705.5,510.1z"/>
	</g>
	<g id="walking_stick">
		<path fill="#333333" d="M726,595.4L726,595.4c-3.3-0.4,1.9-21.6,2.8-25.2c2.2-8.5,5.8-19.4,0.6-27.2c-1.8-2.6-3.2-3.2-5.4-2.3
			c-0.8,0.3-1.6-0.1-1.9-0.9c-1.2-3.2,4.7-2.8,6-2.2c10.3,4.6,6.8,21.2,4.6,29.9c-2.2,8.7-3.9,17.6-5.1,26.5
			C727.5,594.8,726.8,595.5,726,595.4C726,595.4,726,595.4,726,595.4z"/>
		<g id="woodmarks">
			<path fill="#4D4D4D" d="M723.8,540.7L723.8,540.7c-0.3-0.1-0.3-0.5-0.3-0.7s0.1-0.4,0.2-0.5v-0.2c0.2-0.5,0.2-1.1,0.1-1.6
				c0-0.1,0-0.2,0.1-0.2c0.1,0,0.1,0,0.1,0.1c0.1,0.6,0.1,1.2,0,1.8c-0.1,0-0.1,0-0.1,0.1c-0.1,0.2-0.1,0.3-0.1,0.5
				c-0.1,0.2,0,0.4,0.1,0.5C724,540.6,724,540.7,723.8,540.7C723.8,540.7,723.9,540.7,723.8,540.7z"/>
			<path fill="#4D4D4D" d="M725.2,540.3c-0.1,0-0.1,0-0.1-0.1c0-0.1,0-0.1,0.1-0.1c0.2-0.2,0.1-0.6,0.1-0.9l-0.2-0.4
				c0-0.2-0.1-0.4-0.1-0.6c-0.1-0.3,0-0.7,0.2-1c0.1-0.1,0.2-0.1,0.2,0l0,0c-0.3,0.4-0.3,0.9-0.1,1.4l0.2,0.5c0.1,0.4,0,0.8-0.2,1.1
				L725.2,540.3z"/>
			<path fill="#4D4D4D" d="M727.4,540.4L727.4,540.4c-0.6-0.9-1-1.9-1.1-3l0,0C726.4,538.4,726.8,539.4,727.4,540.4v0.1V540.4z"/>
			<path fill="#4D4D4D" d="M729.4,541.6L729.4,541.6c-0.7-1-1-2.2-1.1-3.4c0-0.1,0.1-0.2,0.2-0.2l0,0h0.1c0,1.2,0.3,2.3,0.9,3.3
				c0.1,0.1,0.1,0.2,0,0.2L729.4,541.6z"/>
			<path fill="#4D4D4D" d="M730,543.8L730,543.8c-0.1,0-0.1-0.1,0-0.2c0.2-0.2,0.3-0.4,0.3-0.7c0-0.3-0.1-0.6-0.2-0.9H730
				c-0.1-0.3-0.2-0.6-0.2-0.9c0-0.1,0-0.1,0.1-0.1c0.1,0,0.1,0,0.1,0.1c0,0.3,0.1,0.5,0.2,0.8h0.1c0.1,0.3,0.2,0.7,0.2,1
				C730.5,543.2,730.4,543.6,730,543.8L730,543.8z"/>
			<path fill="#4D4D4D" d="M730.8,541.5h-0.3c-0.1-0.1-0.1-0.1-0.1-0.2h1c0.1,0,0.3-0.1,0.5,0h0.1c0,0.1-0.1,0.1-0.2,0.1h-0.4
				c0,0.1-0.1,0.1-0.2,0.1L730.8,541.5z"/>
			<path fill="#4D4D4D" d="M731.9,546.2L731.9,546.2C731.9,546.2,731.8,546.1,731.9,546.2c0-0.3,0-0.6-0.1-0.8l0,0
				c-0.3-1-0.3-2-0.1-3c0-0.1,0.1-0.1,0.2-0.1s0.1,0.1,0,0.1c-0.2,1-0.2,2,0.1,2.9l0,0c0.1,0.3,0.2,0.6,0.1,0.9L731.9,546.2z"/>
			<path fill="#4D4D4D" d="M732.4,548.4L732.4,548.4C732.3,548.4,732.3,548.4,732.4,548.4l0.1-1.9c0-0.2,0-0.4,0.1-0.6
				c0.1-0.3,0.3-0.4,0.6-0.4c0.1,0,0.1,0,0.1,0.1c0,0.1,0,0.1-0.1,0.1c-0.2,0-0.3,0.2-0.4,0.3c0,0.2-0.1,0.3-0.1,0.5L732.4,548.4
				C732.5,548.4,732.5,548.5,732.4,548.4z"/>
			<path fill="#4D4D4D" d="M733.7,553.6C733.6,553.6,733.6,553.6,733.7,553.6c-0.1-0.2-0.1-0.3,0-0.3c0.2-0.1,0.4-0.3,0.4-0.6v-0.8
				l0,0c-0.2-1.6-0.2-3.3,0-4.9h0.2c0,0.1,0.1,0.1,0.1,0.2c-0.3,1.6-0.3,3.2-0.1,4.8l0,0c0.1,0.3,0.1,0.6,0,0.9
				c0,0.4-0.3,0.7-0.6,0.8L733.7,553.6z"/>
			<path fill="#4D4D4D" d="M733.4,555C733.3,555,733.3,555,733.4,555c-0.5-1.5-0.6-2.9-0.5-4.3h0.3c-0.2,1.4-0.1,2.8,0.3,4.1
				C733.5,554.9,733.5,555,733.4,555z"/>
			<path fill="#4D4D4D" d="M732.7,557.3L732.7,557.3c-0.1,0-0.1-0.1-0.1-0.2c0.3-0.8,0.8-1.5,1.5-1.9h0.2c0,0.1,0,0.1-0.1,0.1
				c-0.6,0.5-1.1,1.1-1.4,1.8L732.7,557.3z"/>
			<path fill="#4D4D4D" d="M733.2,558.9C733.1,558.9,733.1,558.9,733.2,558.9c-0.1-0.6,0-1,0.2-1.4l0.8-0.9c0-0.1,0-0.1,0.1-0.1
				c0.1,0,0.1,0,0.1,0.1v0.2c-0.3,0.2-0.6,0.5-0.8,0.8c-0.2,0.3-0.3,0.7-0.3,1.1v0.2H733.2z"/>
			<path fill="#4D4D4D" d="M733.2,561.4C733.1,561.4,733.1,561.4,733.2,561.4c-0.9-1.2-1.3-2.6-1.3-4c0-0.1,0-0.1,0.1-0.1
				c0.1,0,0.1,0,0.1,0.1c0,1.4,0.4,2.7,1.2,3.8L733.2,561.4L733.2,561.4z"/>
			<path fill="#4D4D4D" d="M731.7,563.8L731.7,563.8c-0.1-0.7,0.2-1.4,0.7-1.9h0.2c-0.5,0.5-0.8,1.1-0.8,1.8L731.7,563.8z"/>
			<path fill="#4D4D4D" d="M731.6,565.9L731.6,565.9c-0.1-1.3,0.5-2.5,1.5-3.2h0.1c0.1,0,0.1,0,0.1,0.1c0,0.1,0,0.1-0.1,0.1
				C732.3,563.6,731.7,564.7,731.6,565.9C731.7,566,731.7,566,731.6,565.9L731.6,565.9z"/>
			<path fill="#4D4D4D" d="M730.3,569.1C730.2,569.1,730.2,569.1,730.3,569.1l0.3-4.7h0.1c0.1,0,0.1,0.1,0.1,0.2L730.3,569.1
				c0.1,0.1,0.1,0.1,0,0.1V569.1z"/>
			<path fill="#4D4D4D" d="M730.8,570.6L730.8,570.6c0.4-0.6,0.8-1.3,0.9-2c0.1-0.8,0.2-1.5,0.2-2.3c0-0.1,0-0.1,0.1-0.1
				c0.1,0,0.1,0,0.1,0.1c0,0.8,0,1.5-0.2,2.3c-0.1,0.8-0.5,1.5-1,2.1C730.8,570.7,730.8,570.7,730.8,570.6L730.8,570.6z"/>
			<path fill="#4D4D4D" d="M728.7,575.2c-0.1,0-0.1,0-0.1-0.1c0-0.1,0-0.1,0.1-0.1c0.4-0.2,0.5-0.7,0.7-1.1c0.3-1,0.4-2.1,0.4-3.2
				c0-0.1,0-0.1,0.1-0.1c0.1,0,0.1,0,0.1,0.1c0,1.1-0.1,2.2-0.4,3.3C729.5,574.5,729.2,575,728.7,575.2L728.7,575.2z"/>
			<path fill="#4D4D4D" d="M729.9,575.9L729.9,575.9C729.8,575.9,729.8,575.9,729.9,575.9c0.5-1.5,0.8-3,0.8-4.5
				c0-0.1,0-0.1,0.1-0.1c0.1,0,0.1,0,0.1,0.1C730.9,572.9,730.6,574.5,729.9,575.9L729.9,575.9z"/>
			<path fill="#4D4D4D" d="M728,580.3L728,580.3c-0.1-1.4,0.1-2.8,0.4-4.2h0.3c-0.4,1.4-0.6,2.8-0.6,4.2H728z"/>
			<path fill="#4D4D4D" d="M729,581.5C728.9,581.5,728.9,581.5,729,581.5c0-1.9,0.1-3.6,0.4-5.4c0-0.1,0-0.1,0.1-0.1
				c0.1,0.1,0.1,0.1,0.1,0.2c-0.2,1.7-0.4,3.5-0.4,5.2C729.2,581.5,729.1,581.6,729,581.5L729,581.5z"/>
			<path fill="#4D4D4D" d="M726.8,586.6C726.7,586.6,726.7,586.6,726.8,586.6c-0.1-0.6,0.1-1.1,0.3-1.5c0.3-0.4,0.7-0.7,1.2-0.9h0.2
				c0,0.1,0,0.1-0.1,0.2c-0.4,0.1-0.8,0.3-1.1,0.7c-0.2,0.4-0.4,0.8-0.4,1.3c0,0.1,0,0.1-0.1,0.1L726.8,586.6z"/>
			<path fill="#4D4D4D" d="M726.6,584.3L726.6,584.3c-0.3-0.4,0-0.8,0.8-1.1c0.3-0.2,0.7-0.3,1.1-0.3c0.1-0.1,0.2,0,0.2,0.1h-0.1
				c-0.4,0-0.8,0.1-1.1,0.3c-0.4,0.2-0.7,0.5-0.8,0.9C726.7,584.2,726.6,584.4,726.6,584.3z"/>
			<path fill="#4D4D4D" d="M728.4,582.2L728.4,582.2C728.3,582.2,728.3,582.2,728.4,582.2l-1.2-0.1c-0.1,0-0.1,0-0.1-0.1
				c0-0.1,0-0.2,0.1-0.2h1.1c0.1,0,0.2,0,0.2,0.1s0.1,0.1,0,0.1S728.5,582.2,728.4,582.2z"/>
			<path fill="#4D4D4D" d="M726.9,589.4C726.8,589.4,726.8,589.4,726.9,589.4c-0.1-0.2-0.1-0.2-0.1-0.2s1.2-2.4,1.1-3.5
				c0-0.1,0-0.1,0.1-0.1c0.1,0,0.2,0,0.2,0.1c0,0.7,0,1.3-0.1,2C728,588.4,727.5,589,726.9,589.4L726.9,589.4z"/>
			<path fill="#4D4D4D" d="M725.3,590L725.3,590c-0.1-0.1-0.1-0.1,0-0.2c0.6-0.6,1-1.4,1.2-2.2c0-0.1,0-0.1,0.1-0.1
				c0.1,0,0.1,0,0.1,0.1c0.1,0,0.1,0,0.1,0.1C726.6,588.6,726.1,589.4,725.3,590L725.3,590z"/>
			<path fill="#4D4D4D" d="M725.3,592.4L725.3,592.4l-0.1-0.2c1.1-1.1,1.9-2.5,2.2-4c0-0.1,0-0.1,0.1-0.1c0.1,0,0.1,0.1,0.1,0.2
				C727.2,589.8,726.5,591.2,725.3,592.4L725.3,592.4z"/>
			<path fill="#4D4D4D" d="M725.7,593.8L725.7,593.8c-0.1-0.1-0.1-0.1,0-0.2c1.1-0.9,1.7-2.1,1.8-3.5h0.3
				C727.7,591.6,726.9,592.9,725.7,593.8L725.7,593.8z"/>
			<path fill="#4D4D4D" d="M725.5,595.1L725.5,595.1c-0.1-0.1-0.1-0.1,0-0.2c0.9-0.4,1.5-1.1,1.7-2c0-0.1,0.1-0.2,0.1-0.1
				s0.1,0,0.1,0.1C727.2,593.9,726.5,594.7,725.5,595.1C725.6,595.1,725.6,595.2,725.5,595.1z"/>
		</g>
	</g>
	<g id="f-head-2">
		<g id="head-8">
			<path fill="#B77E53" d="M613.6,448.7c0,0.1,2.9,16.6,13.4,14.2c2.4-0.6,7.3-6.1,8-11.8c0.8-7.4-3.3-14-9.2-14.7
				S614.4,441.3,613.6,448.7z"/>
		</g>
		<g id="hair-2">
			<path fill="#603813" d="M602.3,461.2c-2.8-3.2-1.7-9,0.5-20.5c1.5-7.3,2.6-9.1,3.5-10.3c3.7-4.7,8.4-4.5,11.3-5s9.9,1.5,12.6,4
				c1.9,1.5,3.5,3.5,4.5,5.7c2.2,5.7,1.8,8.4,1,9c-4.9,3.9-5.6,0.6-9.1,2.9s-7.7,0-9.6-2.8c-0.7-1,0.3,0,0,0s-0.1,2.8-1.2,7.9
				c-1.4,6.8,2,10.6,0.1,12c-0.4,0.3-1,0.5-1.5,0.5C614,464.6,606.2,465.5,602.3,461.2z"/>
		</g>
		<path fill="#FFFFFF" d="M628.4,457l-5.9-0.7c-0.2,0-0.5,0.2-0.5,0.4c-0.1,1.1-0.1,3.5,2,3.7c2,0.3,4-0.8,4.8-2.7
			C628.9,457.4,628.7,457,628.4,457z"/>
	</g>
	<g id="legs-8">
		<path fill="#B77E53" d="M643.6,596.1c0.6,0,1.3-0.2,1.7-0.7c0.8-0.9,0.8-2.3-0.1-3.1l-3.5-3.3c-1.2-1.2-1.8-2.7-1.8-4.4l1.8-44
			c-0.2-1.3-1.4-2.1-2.6-1.9c-0.9,0.1-1.6,0.8-1.9,1.7l-1.7,44c-0.1,2.9,1,5.8,3.2,7.8l3.4,3.3C642.5,595.9,643,596.1,643.6,596.1z"
			/>
		<path fill="#B77E53" d="M609,595.3c0.5,0,0.9-0.1,1.3-0.4l4.7-3.2c2.4-1.6,3.8-4.3,3.8-7.2l0.2-44.4c0-1.2-1-2.2-2.2-2.2l0,0l0,0
			c-1.2,0-2.2,1-2.2,2.2l0,0l-0.3,44.4c0,1.4-0.7,2.7-1.8,3.5l-4.7,3.3c-1,0.7-1.3,2-0.6,3c0,0,0,0,0,0.1
			C607.6,595,608.3,595.3,609,595.3z"/>
	</g>
	<path fill="#B77E53" d="M641.8,473.6h-25.2c-1.4,0-7.1,1-8.2-0.3s0.8-4.4,1.7-5.5c2.6-2.8,6.2-2.8,9.8-2.8s9.6-0.5,14.2,0.1
		c2.8,0.3,5.1,1.2,6.7,3.6C641.1,469.2,643.4,473.6,641.8,473.6z"/>
	<path fill="#89CBF0" d="M653,564.7c-8.5,1.4-17.3,3.8-26,3.9c-4.5,0.1-9.2-0.9-13.7-1.5s-9.2-0.4-12.9-1.8s0.1-8.1,1.8-11.1
		s1.5-8.1,3.1-12c4.8-11.6,2.9-3.4,0.1-27c-0.7-5.7,3.4-10,2.1-15.3s-1.6-8.9-3.1-13s-9.2-7-5.8-11.6c1.2-1.6,3.3-3,4.8-4.3
		c1.6-1.3,3.3-2.5,5.2-3.4c0.9-0.5,1.8-0.9,2.8-1.2c0.5,0.1,0.6,0.9,1,1c3.7,0.9,7.4,2.4,11.2,2.8s10-1.5,14.4-2.7
		c0.3-0.1,0.5-0.5,0.6-0.6c1.4-0.3,2.8-0.1,4.1,0.6c2.8,1.2,5.5,2.8,7.9,4.7c2.1,1.4,4.4,2.6,3.2,5.6s-2.7,3.4-3.8,4.9
		s-1.8,3.7-1.8,6.4s2.6,6.1,4.2,9.7c4.4,9.6,3.6,20.9-2.1,29.8c-2.9,4.7-2.3,10.4-2.1,15.9s1.8,9.2,4.6,13.4
		C654,559.6,657.3,564,653,564.7z"/>
	<path fill="#B77E53" d="M591.6,523.9c-0.5-0.2-0.9-0.5-1.2-1c-2.3-3.2-3.8-6.8-4.4-10.7c-1.1-6.5,0.9-13,4.8-19.8
		c4.3-7.1,10.2-13,17.2-17.5c1-0.7,2.4-0.5,3.2,0.5c0.7,0.7,0.7,1.9-0.1,2.5c-0.1,0.1-0.2,0.2-0.3,0.3c-6.5,4.2-11.9,9.7-15.9,16.3
		c-3.5,6.1-5.4,11.8-4.5,17.4c0.6,3.3,1.9,6.4,3.8,9.1c0.6,0.7,0.5,1.8-0.2,2.4c-0.2,0.1-0.3,0.2-0.5,0.3
		C592.9,524.1,592.2,524.1,591.6,523.9z"/>
	<path fill="#B77E53" d="M647.8,524.4c-1.2,0.1-2.1-0.8-2.2-2c0-0.9,0.4-1.7,1.2-2c3.5-0.9,6.7-2.9,9-5.7c2.8-3.7,3.6-9.3,2.2-15.5
		c-0.8-3.5-2-6.9-3.7-10c-2-3.6-4.3-7-7.1-10.1c-0.7-0.8-0.7-2.1,0.1-2.9c0.9-0.8,2.2-0.7,3,0.1c3,3.3,5.6,7,7.7,11
		c1.9,3.5,3.3,7.2,4.1,11c1.6,7.5,0.5,14.2-3,18.9c-1,1.4-2.3,2.7-3.7,3.7c-2.2,1.6-4.8,2.8-7.4,3.5H647.8z"/>
	<path fill="#89CBF0" d="M604.2,486.3c3-0.2,6.1-0.2,9.2-0.2l19.6,0.5c5.2,0.1,10.4-0.2,15.5-0.8c0.2-1.1,0.7-2.2,1.5-3.1
		c1.1-1.5,3.1-3.1,3.8-4.9s-1.1-4.2-3.2-5.6c-2.4-1.9-5.1-3.5-7.9-4.7c-1.3-0.7-2.7-0.9-4.1-0.6c-0.1,0.1-0.3,0.5-0.6,0.6
		c-4.4,1.2-9.8,3.3-14.4,2.7s-7.5-1.9-11.2-2.8c-0.4-0.1-0.5-0.9-1-1c-1,0.3-1.9,0.7-2.8,1.2c-1.9,0.9-3.6,2.1-5.2,3.4
		c-1.5,1.3-3.6,2.7-4.8,4.3C595.4,479.7,602.2,482.6,604.2,486.3z"/>
	<g id="legs-9">
		<path fill="#D0B195" d="M531.3,596.1c-0.6,0-1.3-0.2-1.7-0.7c-0.8-0.9-0.8-2.3,0.1-3.1l3.5-3.3c1.2-1.1,1.9-2.7,1.8-4.4l-1.6-44
			c0-1.2,0.9-2.2,2.2-2.2s2.2,0.9,2.2,2.2l1.7,43.9c0.1,3-1.1,5.8-3.2,7.9l-3.5,3.2C532.4,595.9,531.9,596.1,531.3,596.1z"/>
		<path fill="#D0B195" d="M572.8,596c-0.4,0-0.8-0.2-1.2-0.4l-4.8-3.3c-2.3-1.7-3.7-4.3-3.7-7.2v-44.3c-0.1-1.2,0.9-2.2,2.1-2.3
			c0,0,0.1,0,0.1,0l0,0c1.2,0,2.2,1,2.2,2.2l0,0v44.4c0.1,1.4,0.8,2.7,1.9,3.5l4.7,3.3c1,0.7,1.3,2,0.6,3c0,0,0,0,0,0.1
			C574.2,595.6,573.5,596,572.8,596z"/>
	</g>
	<g id="head-9">
		<path fill="#1A1A1A" d="M548.1,399.3l0.1,0c5.6,0,10.1,4.5,10.1,10.1l0,2.1c0,5.6-4.5,10.1-10.1,10.1l-0.1,0
			c-5.6,0-10.1-4.5-10.1-10.1l0-2.1C538,403.8,542.5,399.2,548.1,399.3z"/>
		<path fill="#D0B195" d="M538,420.9l0-8.2c0-5.6,4.5-10.1,10.1-10.1l0.1,0c5.6,0,10.1,4.5,10.1,10.1l0,8.2
			c0,5.6-4.5,10.1-10.1,10.1l-0.1,0C542.5,431,538,426.5,538,420.9z"/>
		<path fill="#1A1A1A" d="M538,417.6c3.3-1.2,6.7-1.9,10.2-2.1c3.4-0.2,6.8,0.2,10.1,1.2c0,0.8,0.1,1.9,0,3.3
			c-0.2,3.9-0.3,6.5-1.7,8.3s-7.4,2.8-8.6,2.7s-5.9-0.3-8.2-3.7c-1.1-1.5-1.3-3.4-1.6-5.5C538,420.5,537.9,419.1,538,417.6z"/>
		<path fill="#FFFFFF" d="M551.3,421.1c0.4,0,0.7,0.2,0.8,0.6c0,0.1,0,0.3-0.1,0.4c-0.7,2.3-3.2,3.6-5.5,2.9
			c-1.4-0.4-2.5-1.5-2.9-2.9c-0.2-0.3,0-0.8,0.3-0.9c0.1-0.1,0.2-0.1,0.4-0.1H551.3z"/>
		<path fill="#1A1A1A" d="M557.7,411.4c-0.8,0.3-2-1.2-2.7-3.3c-0.1,0-0.1,0-0.1-0.1c-1.9,1.5-4.2,2.3-6.6,2.2
			c-2.4,0.1-4.8-0.7-6.7-2.2l0,0c-0.7,2.1-2,3.6-2.7,3.3s-0.8-2.2-0.1-4.3c0.4-1.1,0.9-2.1,1.7-2.9l0,0c0.8-2.1,4-3.8,7.8-3.8
			s6.8,1.6,7.7,3.8c0.8,0.8,1.4,1.8,1.8,2.9C558.5,409.2,558.5,411.2,557.7,411.4z"/>
	</g>
	<path fill="#D0B195" d="M593.5,524.2c0.3-0.2,0.6-0.4,0.8-0.7c0.7-1,0.5-2.5-0.5-3.2c-7.1-5.5-10.7-14.5-9.4-23.4
		c0.4-1.2-0.3-2.5-1.5-2.9c-1.2-0.4-2.5,0.3-2.9,1.5c-0.1,0.2-0.1,0.4-0.1,0.6c-0.8,5.2-0.2,10.5,1.8,15.4c1.9,4.9,5.2,9.2,9.4,12.4
		C591.8,524.5,592.7,524.5,593.5,524.2z"/>
	<path fill="#D0B195" d="M517.4,518.8h-0.6c-1.9-0.6-3.5-2-4.3-3.9c-0.7-1.5-1-3.1-1-4.7c-0.5-7.8,1.7-15.5,3.6-22.3
		c0.4-1.2,1.7-2,2.9-1.6c1.2,0.4,2,1.7,1.6,2.9l0,0c-2,6.8-4,13.7-3.6,20.7c0,1.1,0.2,2.1,0.6,3.1c0.3,0.6,0.8,1.1,1.4,1.3
		c1.2,0.3,1.9,1.6,1.6,2.8C519.4,518.1,518.5,518.9,517.4,518.8z"/>
	<path fill="#107BC0" d="M589.8,450.3c0,15-0.1,30.1-0.1,45.1c0,2.6,0.5,4-2.2,4.7s-9.6,0.9-10.9-1.3s-0.3-4.8-0.5-6.3l-1-14.2
		l-1.9-24.8c1.5,7.9,0.3,17,0.3,25c0,2.2,0.9,5.8-1.4,6.8s-5,0-6.6,0h-28.4c-2.7,0-6.6,0.7-9.2,0s-2.1-1.5-2.2-3.8
		c-0.3-8.8-1.3-19.3,0.4-28.1l-3.2,39.8c-0.1,1.3,0.3,4.2-0.4,5.4s-5.6,1.4-8.1,1.4s-4.2,0.6-5-1.9s0-5.1,0-7.1
		c0-13.5-0.6-27.2,0.1-40.7c0.9-18.6,25.2-15.3,38.3-15.7c6.9-0.1,13.9,0.5,20.8,0.8c3.1,0.1,6.5-0.1,9.6,0.6
		C585,437.4,589.8,443.4,589.8,450.3z"/>
	<path fill="#094063" d="M574.4,486.2v77c0,4.2,0.5,8.7,0,12.8s-8.1,5.2-12.6,4.3s-4.2-7-4.6-10.8l-2.5-21.9
		c-0.3-2.9-3.6-39.2-4.8-39.2s-2.6,46-2.8,49.7c-0.3,5.9,0.6,13.6-1,19.3c-1.1,4.1-6.6,2.9-10,2.9s-10.2,1.4-11.3-3.1s0-9.8,0-14
		V501c0-4.8-1.2-11.2,0-15.9s4.1-2.7,6.9-2.7h33.9C568.6,482.5,574.4,481.6,574.4,486.2z"/>
	<path fill="#094063" d="M532.7,490c-0.8,0-1.4-0.6-1.5-1.4c-1.5-17.5-0.7-35,2.4-52.3c0.1-0.8,0.9-1.4,1.7-1.2c0,0,0,0,0.1,0
		c0.8,0.2,1.3,1,1.2,1.8c-3.1,16.9-3.9,34.2-2.4,51.4c0.1,0.8-0.5,1.6-1.3,1.7C532.9,490,532.8,490,532.7,490L532.7,490z"/>
	<path fill="#094063" d="M566.7,490.1h-0.2c-0.8,0-1.4-0.7-1.3-1.5c0,0,0-0.1,0-0.1c1.7-17.2,1.1-34.5-1.8-51.5
		c-0.1-0.8,0.4-1.6,1.2-1.8c0.9-0.1,1.6,0.5,1.8,1.3c2.9,17.3,3.5,34.9,1.8,52.3C568.1,489.5,567.5,490.1,566.7,490.1z"/>
	<path fill="#107BC0" d="M534.4,488.6c0,0.9-0.7,1.6-1.6,1.6c-0.9,0-1.6-0.7-1.6-1.6s0.7-1.6,1.6-1.6
		C533.7,487,534.4,487.7,534.4,488.6z"/>
	<path fill="#107BC0" d="M567.5,488.6c0,0.9-0.7,1.6-1.6,1.6c-0.9,0-1.6-0.7-1.6-1.6s0.7-1.6,1.6-1.6
		C566.8,487,567.5,487.7,567.5,488.6z"/>
	<g id="birds">
		<g opacity="5.000000e-02">
			<path fill="#107BC0" d="M375.2,333c-0.5,0-1-0.3-1.2-0.7c-1.5-2.9-3.8-5.3-6.6-6.9c-0.7-0.4-0.9-1.3-0.6-2c0.4-0.7,1.3-0.9,2-0.5
				l0,0c2.5,1.4,4.6,3.3,6.2,5.6c2.5-4.8,6.6-8.7,11.6-10.9c0.8-0.2,1.6,0.3,1.8,1.1c0.2,0.6-0.1,1.3-0.6,1.6
				c-5.2,2.3-9.2,6.5-11.2,11.8c-0.2,0.5-0.7,0.9-1.3,0.9H375.2z"/>
		</g>
		<g opacity="5.000000e-02">
			<path fill="#107BC0" d="M577.2,323.6c-0.7-0.3-1.1-1.1-0.8-1.8c0.2-0.7,1-1.2,1.7-1l7,1.4c3.5-3.4,8.6-4.6,13.2-2.9
				c0.7,0.2,1.2,1,1,1.7c0,0.1,0,0.1-0.1,0.2c-0.3,0.7-1.2,1.1-1.9,0.8l0,0c-3.8-1.3-8-0.2-10.6,2.8c-0.4,0.4-1,0.6-1.5,0.4
				l-7.9-1.6L577.2,323.6z"/>
		</g>
		<g opacity="5.000000e-02">
			<path fill="#107BC0" d="M891,334.3l-0.3-0.2c-4.5-4.7-9.8-8.6-15.5-11.7c-0.6-0.4-0.9-1.1-0.6-1.8c0.3-0.6,1.1-0.9,1.7-0.6
				c0.1,0,0.1,0.1,0.2,0.1c5.3,2.8,10.2,6.4,14.6,10.6c3.2-8.2,10.9-13.8,19.7-14.5c0.7-0.1,1.4,0.5,1.5,1.2
				c0.1,0.7-0.4,1.4-1.1,1.5c0,0-0.1,0-0.1,0c-8.5,0.7-15.7,6.5-18.1,14.7c-0.1,0.5-0.4,0.9-0.9,1
				C891.7,334.7,891.3,334.6,891,334.3z"/>
		</g>
	</g>
	<g id="clouds">
		<path opacity="0.1" fill="#107BC0" enable-background="new    " d="M393.1,353.4c-2.2,0.1-4.1-1.7-4.1-3.9c0-0.6,0.1-1.2,0.3-1.7
			c2.5-5.6,7.6-9.7,13.6-11c4.2-0.8,8.6-0.1,12.4,2c3.9,2.1,8.7,0.6,10.8-3.3c0,0,0-0.1,0.1-0.1c1-2,2.4-3.8,4.2-5.2
			c6.5-5,16.4-2.9,22.4,2.6c4.3,3.8,7.1,8.7,9.4,13.9c1.2,2.4,0.1,5.4-2.3,6.5c-0.7,0.3-1.4,0.5-2.2,0.5L393.1,353.4z"/>
		<path opacity="0.1" fill="#107BC0" enable-background="new    " d="M822.2,353.2c-0.5-6.8,6.7-11.9,13.4-11.7
			c4.3,0,8.4,1.6,12.2,3.6c2,1.1,4.6,0.4,5.7-1.7c0.3-0.5,0.4-1,0.5-1.5c0.2-2.1,0.6-4.1,1.3-6.1c1.6-4,4.7-7.6,8.9-8.5
			s8,0.9,11.4,3c6.1,4,10.9,9.7,13.9,16.3c1.3,2.9,0.1,6.2-2.8,7.6c-0.8,0.4-1.7,0.6-2.6,0.5L822.2,353.2z"/>
	</g>
</g>
</svg>
