<svg xmlns="http://www.w3.org/2000/svg" viewBox="0 0 200 162.4"><title>heart</title><g id="Layer_2" data-name="Layer 2"><g id="actualsize"><g id="icon_bg"><path d="M194.2,95c6.9-15.6,8.5-34.1,0-49-5.9-10.2-16-17.8-26.9-23.2S144.4,14,132.6,10.4C111.4,3.8,88.7-3.8,67.3,2.2,47.9,7.6,33.9,23,21,37.7,13.7,46,6.2,54.9,4.3,65.5c-1.3,8,.6,16.3-1,24.2-1.3,6-4.5,12-2.8,17.8,1.1,3.8,4.2,6.8,7.2,9.6,21.9,20,48,37.2,77.9,43.2,17.7,3.6,36.7,2.7,53.6-3.3a77.1,77.1,0,0,0,23.7-13c3.6-3,4.9-5,6.2-9.2s3.2-7,6.2-10.7C182.7,115.1,189.6,105.6,194.2,95Z" fill="#107bc0" opacity="0.02"/></g><path d="M157,32.2c-14.8-15-39.1-7.9-54.2,6.6l-2.5,2.4-1.8-1.8C83.8,24.6,59.9,16,44.5,30A37.4,37.4,0,0,0,43,84.1l2.5,2.5,51.6,52.1a2.7,2.7,0,0,0,3.8.1l52.9-50.9,2.5-2.4A37.4,37.4,0,0,0,157,32.2Z" fill="#89cbf0"/><path d="M105.8,99.8h-.2a3.2,3.2,0,0,1-2.6-1.7L87.4,68.6a.5.5,0,0,0-.8,0L75.1,88.3a4.2,4.2,0,0,1-3.7,2.2H22.2A2.3,2.3,0,0,1,20,88.7a2.1,2.1,0,0,1,2.1-2.4H70.7a1.3,1.3,0,0,0,1.1-.6L84.4,64.2a3,3,0,0,1,2.7-1.5h0a3,3,0,0,1,2.7,1.6l15.8,29.8a.3.3,0,0,0,.6.1l13.9-20.9a3.2,3.2,0,0,1,2.7-1.4h55a2.3,2.3,0,0,1,2.2,1.7,2.1,2.1,0,0,1-2.1,2.4H124.8a2.8,2.8,0,0,0-2.3,1.3L108.4,98.4A3.4,3.4,0,0,1,105.8,99.8Z" fill="#084063"/></g></g></svg>