<svg xmlns="http://www.w3.org/2000/svg" viewBox="0 0 200 162.4"><title>hos-environment</title><g id="Layer_2" data-name="Layer 2"><g id="actualsize"><g id="hospital_icon"><g id="icon_bg"><path d="M194.2,95c6.9-15.6,8.5-34.1,0-49-5.9-10.2-16-17.8-26.9-23.2S144.4,14,132.6,10.4C111.4,3.8,88.7-3.8,67.3,2.2,47.9,7.6,33.9,23,21,37.7,13.7,46,6.2,54.9,4.3,65.5c-1.3,8,.6,16.3-1,24.2-1.3,6-4.5,12-2.8,17.8,1.1,3.8,4.2,6.8,7.2,9.6,21.9,20,48,37.2,77.9,43.2,17.7,3.6,36.7,2.7,53.6-3.3a77.1,77.1,0,0,0,23.7-13c3.6-3,4.9-5,6.2-9.2s3.2-7,6.2-10.7C182.7,115.1,189.6,105.6,194.2,95Z" fill="#107bc0" opacity="0.02"/></g><g opacity="0.5"><path d="M161.4,120.8c-.7,0-.5-1.4-.5-1.8V64.9a14.7,14.7,0,0,1,0-2.1.5.5,0,0,1,1,0v57.3C161.9,120.4,161.9,120.8,161.4,120.8Z" fill="#107bc0" opacity="0.1"/><path d="M180,68.8c0,8.2-4.4,16.7-12.2,20a16.9,16.9,0,0,1-11.5.5,19.3,19.3,0,0,1-9.2-6.9,23.9,23.9,0,0,1-1.6-24.7,20.1,20.1,0,0,1,8.2-8.4,17.3,17.3,0,0,1,11.4-1.5c8.1,1.9,13.6,9.6,14.7,17.6C179.9,66.5,180,67.6,180,68.8Z" fill="#107bc0" opacity="0.2"/></g><path d="M29,120.8c-.4,0-.3-.6-.3-.9v-27c.1-.4.5-.4.5,0v27.6C29.2,120.6,29.2,120.8,29,120.8Z" fill="#107bc0" opacity="0.1"/><path d="M37.9,95.7c0,4-2.1,8.1-5.8,9.7a8.3,8.3,0,0,1-5.6.2,9.1,9.1,0,0,1-4.4-3.3,11.4,11.4,0,0,1-.8-11.9,9.9,9.9,0,0,1,4-4.1,8.4,8.4,0,0,1,5.4-.7c4,.9,6.6,4.6,7.1,8.5A8.6,8.6,0,0,1,37.9,95.7Z" fill="#107bc0" opacity="0.2"/><rect x="42.5" y="62" width="39.2" height="58.74" fill="#b0bec5"/><rect x="50.3" y="94.6" width="7.8" height="19.58" fill="#117bbf"/><rect x="66" y="94.6" width="7.8" height="19.58" fill="#117bbf"/><rect x="50.3" y="68.6" width="7.8" height="19.58" fill="#117bbf"/><rect x="66" y="68.6" width="7.8" height="19.58" fill="#117bbf"/><rect x="40.6" y="60.6" width="43.1" height="1.96" fill="#0a4063"/><rect x="41.5" y="62.4" width="41.1" height="0.98" fill="#063954"/><rect x="42.5" y="63.5" width="39.2" height="0.98" fill="#90a4ae"/><rect x="112.8" y="62" width="39.2" height="58.74" fill="#b0bec5"/><rect x="120.7" y="94.6" width="7.8" height="19.58" fill="#5298d2"/><rect x="136.3" y="94.6" width="7.8" height="19.58" fill="#5298d2"/><rect x="120.7" y="68.6" width="7.8" height="19.58" fill="#5298d2"/><rect x="136.3" y="68.6" width="7.8" height="19.58" fill="#5298d2"/><rect x="110.9" y="60.6" width="43.1" height="1.96" fill="#0a4063"/><rect x="111.8" y="62.4" width="41.1" height="0.98" fill="#063954"/><rect x="112.8" y="63.5" width="39.2" height="0.98" fill="#90a4ae"/><rect x="77.8" y="42.5" width="39.2" height="78.32" fill="#cfd8dc"/><rect x="75.8" y="41.6" width="43.1" height="1.96" fill="#0a4063"/><rect x="77.8" y="44.5" width="39.2" height="0.98" fill="#b0bec5"/><rect x="76.8" y="43.5" width="41.1" height="0.98" fill="#063954"/><path d="M86.7,49.6h.5V51h1.7V49.6h.4v3.3h-.4V51.4H87.2v1.5h-.5Z" fill="#e53a35"/><path d="M90,51.3a1.7,1.7,0,0,1,1.7-1.8,1.8,1.8,0,0,1,1.8,1.8A1.7,1.7,0,0,1,91.7,53,1.6,1.6,0,0,1,90,51.3Zm3,0a1.3,1.3,0,0,0-1.3-1.4,1.3,1.3,0,0,0-1.2,1.4,1.2,1.2,0,0,0,1.2,1.3A1.3,1.3,0,0,0,93,51.3Z" fill="#e53a35"/><path d="M94.2,52.2a.8.8,0,0,0,.7.4.7.7,0,0,0,.7-.6c0-.7-1.7-.3-1.7-1.5a1.1,1.1,0,0,1,1.2-1,1.1,1.1,0,0,1,.9.4l-.4.3a.9.9,0,0,0-.5-.3c-.5,0-.7.3-.7.6S96,50.8,96,52a1,1,0,0,1-1.1,1,1.5,1.5,0,0,1-1.1-.4Z" fill="#e53a35"/><path d="M96.7,49.6h1.2c.8,0,1.1.5,1.1.9a1,1,0,0,1-1.1,1h-.7v1.4h-.5Zm.5,1.5h.6c.3,0,.7-.1.7-.6s-.4-.5-.7-.5h-.6Z" fill="#e53a35"/><path d="M99.5,49.6h.5v3.3h-.5Z" fill="#e53a35"/><path d="M101.5,50h-1.1v-.4H103V50h-1v2.9h-.5Z" fill="#e53a35"/><path d="M104.1,49.6h.4l1.5,3.3h-.6l-.3-.8h-1.6l-.3.8h-.5Zm.8,2.1-.6-1.5h0l-.6,1.5Z" fill="#e53a35"/><path d="M106.4,49.6h.4v2.9h1.6v.4h-2Z" fill="#e53a35"/><rect x="83.6" y="58" width="27.4" height="29.37" fill="#b0bec5"/><rect x="83.6" y="57.8" width="27.4" height="0.98" fill="#78909c"/><rect x="79.7" y="87.1" width="35.2" height="2.94" fill="#0a4063"/><rect x="79.7" y="117.8" width="35.2" height="2.94" fill="#c3996b"/><rect x="79.7" y="119.7" width="35.2" height="0.98" fill="#a87c4f"/><rect x="82.6" y="114.9" width="29.4" height="2.94" fill="#c3996b"/><rect x="82.6" y="116.8" width="29.4" height="0.98" fill="#a87c4f"/><rect x="83.8" y="90.1" width="2" height="25.46" fill="#c3996b"/><rect x="109" y="90.1" width="2" height="25.46" fill="#c3996b"/><rect x="83.8" y="90" width="2" height="1.96" fill="#8a5d3b" opacity="0.3"/><rect x="109" y="90" width="2" height="1.96" fill="#8a5d3b" opacity="0.3"/><rect x="87.7" y="63.2" width="7.8" height="19.58" fill="#5298d2"/><rect x="99.3" y="63.2" width="7.8" height="19.58" fill="#5298d2"/><rect x="87.7" y="95" width="8.8" height="19.58" fill="#5298d2" stroke="#fff" stroke-miterlimit="10" stroke-width="2"/><rect x="97.8" y="95" width="9.2" height="19.58" fill="#5298d2" stroke="#fff" stroke-miterlimit="10" stroke-width="2"/><rect x="85.8" y="90" width="23.3" height="10.45" fill="#90a4ae" opacity="0.3"/></g></g></g></svg>