<svg xmlns="http://www.w3.org/2000/svg" viewBox="0 0 200 162.4"><title>hourglass</title><g id="Layer_2" data-name="Layer 2"><g id="actualsize"><g id="icon_bg"><path d="M194.2,95c6.9-15.6,8.5-34.1,0-49-5.9-10.2-16-17.8-26.9-23.2S144.4,14,132.6,10.4C111.4,3.8,88.7-3.8,67.3,2.2,47.9,7.6,33.9,23,21,37.7,13.7,46,6.2,54.9,4.3,65.5c-1.3,8,.6,16.3-1,24.2-1.3,6-4.5,12-2.8,17.8,1.1,3.8,4.2,6.8,7.2,9.6,21.9,20,48,37.2,77.9,43.2,17.7,3.6,36.7,2.7,53.6-3.3a77.1,77.1,0,0,0,23.7-13c3.6-3,4.9-5,6.2-9.2s3.2-7,6.2-10.7C182.7,115.1,189.6,105.6,194.2,95Z" fill="#107bc0" opacity="0.02"/></g><path d="M131.6,60.1A18.6,18.6,0,0,0,140,44.5v-30H60v30a18.6,18.6,0,0,0,8.4,15.6L93.2,78.4a3.5,3.5,0,0,1,1.5,2.8h0A3.5,3.5,0,0,1,93.2,84L68.4,102.3A18.8,18.8,0,0,0,60,118v29.9h80V118a18.8,18.8,0,0,0-8.4-15.7L106.8,84a3.5,3.5,0,0,1-1.5-2.8h0a3.5,3.5,0,0,1,1.5-2.8Z" fill="#e6e6e6"/><rect x="46.7" y="147.9" width="106.7" height="10.67" fill="#9e6c53"/><rect x="46.7" y="3.9" width="106.7" height="10.67" fill="#9e6c53"/><path d="M164,155.9H36a2.7,2.7,0,1,0,0,5.3H164a2.7,2.7,0,1,0,0-5.3Z" fill="#8a5336"/><path d="M36,6.5H164a2.6,2.6,0,0,0,2.7-2.6A2.7,2.7,0,0,0,164,1.2H36a2.7,2.7,0,0,0-2.7,2.7A2.6,2.6,0,0,0,36,6.5Z" fill="#8a5336"/><path d="M127.2,53.5a10.8,10.8,0,0,0,4.8-9h0a7.7,7.7,0,0,0-5.7-7.4l-40.2-10A14.5,14.5,0,0,0,68,41.2v3.3a10.8,10.8,0,0,0,4.8,9l24.5,18v42.3a13.2,13.2,0,0,1-18.8,12h0c-4.7-2.2-10.4,1.1-10.5,6.3h0v15.7h64V117.8c0-5.1-5-8.8-10.1-7.9l-5.5.9a11.7,11.7,0,0,1-13.7-11.6V71.5Z" fill="#5098d2"/></g></g></svg>