<svg xmlns="http://www.w3.org/2000/svg" viewBox="0 0 648.1 226.1"><title>landing-illustration</title><g id="Layer_2" data-name="Layer 2"><g id="actualsize"><g id="img"><g id="business"><g id="bg"><path id="bg-2" data-name="bg" d="M569.3,42C551.2,20.2,526.9,8.7,502.6,3.8S453.4,0,428.8.4c-52.9.9-105.1,6.9-158.6,6.9C56.9,7.3,140.5,46.4,83.4,90.2c-8.7,6.7-17.7,14.3-22.6,25.8-10.7,24.9,1.6,56.1,16.7,76.9l5.1,6.6c6.7,8.4,17.4,13.8,29.3,14.4l143.6,8c2.3.1,4.6.3,6.8.6,46.2,5.9,97.2.7,101.4.5l162.8-9.1c10.6-.6,20.5-5,27.2-12.1h.1c18.1-19.3,35.5-43.1,39.9-73.1C598.4,97,587.4,63.8,569.3,42Z" fill="#167bbf" opacity="0.02"/><path id="bg-3" data-name="bg" d="M491.3,101.3C479,86.5,462.5,78.7,445.9,75.4s-33.4-2.6-50.1-2.3c-36,.6-71.5,4.6-107.8,4.6-144.9,0-88.1,26.6-126.9,56.4-6,4.6-12,9.7-15.4,17.5-7.3,17,1.1,38.2,11.4,52.3l3.4,4.5c4.5,5.7,11.9,9.3,19.9,9.8l97.6,5.4,4.7.4c31.3,4,66,.5,68.8.3l110.7-6.2a27.7,27.7,0,0,0,18.5-8.1h0c12.4-13.1,24.2-29.3,27.2-49.7S503.6,116.1,491.3,101.3Z" fill="#167bbf" opacity="0.02"/></g><g id="groundlevel" opacity="0.02"><path d="M635.6,226.1H2.9c-1.6,0-2.9-1-2.9-2.3a2.7,2.7,0,0,1,2.9-2.4H635.6c1.7,0,3,1.1,3,2.4S637.3,226.1,635.6,226.1Z" fill="#167bbf"/></g><g id="plants" opacity="0.05"><path d="M563,163.5a14.7,14.7,0,0,1,8.7-10.8,13,13,0,0,1,13.6,2.2,15.8,15.8,0,0,1,4.6,9.9,46,46,0,0,1-.3,11.1c-1.3,11.5-3,22.9-4.9,34.4-.7,4.3-1.4,8.6-2.2,13-1.9.1-3.8-.6-5.8-.4l.2-1.7c.4-6.9,1.8-13.8.3-20.6s-5.7-12.1-9.2-17.9S561.6,170.2,563,163.5Z" fill="#167bbf"/><path d="M586.5,223.1l-4.1.2a77.1,77.1,0,0,1,17.4-34.1c6.8-7.5,35.1-31.7,46.4-21.9,7,6.1-6.7,11.9-11.7,15.4-8.4,5.7-17.1,10.9-25.2,16.9s-16.7,14.4-22.1,23.5Z" fill="#167bbf"/><path d="M533.3,178.4c1.7-3.5,6.3-4.7,10-3.6s6.6,3.8,9.3,6.6a185.2,185.2,0,0,1,12.5,14.1c5,6.2,13.6,14.6,14,23a15.8,15.8,0,0,1-.5,4.3l-5,.4a57.1,57.1,0,0,0-5.6-9.9,53.7,53.7,0,0,0-22.6-19.9c-3.2-1.6-6.7-2.9-9.3-5.3S531.8,181.6,533.3,178.4Z" fill="#167bbf"/></g></g><g opacity="0.6"><rect x="8.4" y="138.9" width="54.9" height="82.31" fill="#167bbf" opacity="0.1"/><rect x="19.4" y="184.6" width="11" height="27.44" fill="#f2f8fc"/><rect x="41.4" y="184.6" width="11" height="27.44" fill="#f2f8fc"/><rect x="19.4" y="148.1" width="11" height="27.44" fill="#f2f8fc"/><rect x="41.4" y="148.1" width="11" height="27.44" fill="#f2f8fc"/><rect x="5.7" y="136.9" width="60.4" height="2.74" fill="#167bbf" opacity="0.2"/><rect x="7.1" y="139.4" width="57.6" height="1.37" fill="#cee3f0"/><rect x="8.4" y="141" width="54.9" height="1.37" fill="#167bbf" opacity="0.2"/><rect x="107" y="138.9" width="54.9" height="82.31" fill="#167bbf" opacity="0.1"/><rect x="117.9" y="184.6" width="11" height="27.44" fill="#f2f8fc"/><rect x="139.9" y="184.6" width="11" height="27.44" fill="#f2f8fc"/><rect x="117.9" y="148.1" width="11" height="27.44" fill="#f2f8fc"/><rect x="139.9" y="148.1" width="11" height="27.44" fill="#f2f8fc"/><rect x="104.2" y="136.9" width="60.4" height="2.74" fill="#167bbf" opacity="0.2"/><rect x="105.6" y="139.4" width="57.6" height="1.37" fill="#cee3f0"/><rect x="107" y="141" width="54.9" height="1.37" fill="#167bbf" opacity="0.2"/><rect x="57.8" y="111.5" width="54.9" height="109.75" fill="#cee3f0"/><rect x="55.1" y="110.3" width="60.4" height="2.74" fill="#167bbf"/><rect x="57.8" y="114.3" width="54.9" height="1.37" fill="#167bbf" opacity="0.2"/><rect x="56.5" y="113" width="57.6" height="1.37" fill="#cee3f0"/><path d="M70.4,121.5H71v1.9h2.4v-1.9h.7v4.7h-.7V124H71v2.2h-.6Z" fill="#167bbf"/><path d="M75,123.8a2.4,2.4,0,0,1,4.8,0,2.4,2.4,0,1,1-4.8,0Zm4.2,0a1.8,1.8,0,1,0-3.6,0,1.8,1.8,0,1,0,3.6,0Z" fill="#167bbf"/><path d="M80.9,125.2a1.2,1.2,0,0,0,1,.5.9.9,0,0,0,.9-.8c0-1.1-2.3-.4-2.3-2.2s.4-1.3,1.6-1.3a1.5,1.5,0,0,1,1.3.5l-.5.5a.9.9,0,0,0-.8-.4c-.7,0-.9.4-.9.7s2.3.5,2.3,2.1a1.6,1.6,0,0,1-1.7,1.5,1.8,1.8,0,0,1-1.5-.7Z" fill="#167bbf"/><path d="M84.4,121.5H86c1.2,0,1.5.7,1.5,1.3s-.3,1.3-1.5,1.3H85v2.1h-.6Zm.6,2h.9c.5,0,1-.1,1-.7s-.5-.8-1-.8H85Z" fill="#167bbf"/><path d="M88.3,121.5h.6v4.7h-.6Z" fill="#167bbf"/><path d="M91.1,122.1H89.6v-.6h3.6v.6H91.7v4.1h-.6Z" fill="#167bbf"/><path d="M94.8,121.5h.5l2,4.7h-.7l-.5-1.2H93.9l-.5,1.2h-.7Zm1.1,3-.9-2.2h0l-.9,2.2Z" fill="#167bbf"/><path d="M97.9,121.5h.7v4.1h2.1v.6H97.9Z" fill="#167bbf"/><rect x="66.1" y="133.3" width="38.4" height="41.16" fill="#167bbf" opacity="0.1"/><rect x="66" y="132.9" width="38.4" height="1.37" fill="#167bbf" opacity="0.2"/><rect x="60.5" y="174" width="49.4" height="4.12" fill="#167bbf"/><rect x="60.5" y="217" width="49.4" height="4.12" fill="#c1976b"/><rect x="60.6" y="219.8" width="49.4" height="1.37" fill="#a77c4f"/><rect x="64.6" y="212.9" width="41.2" height="4.12" fill="#c1976b"/><rect x="64.7" y="215.6" width="41.2" height="1.37" fill="#a77c4f"/><rect x="66.3" y="178.2" width="2.7" height="35.67" fill="#c1976b"/><rect x="101.7" y="178.2" width="2.7" height="35.67" fill="#c1976b"/><rect x="66.3" y="178.1" width="2.7" height="2.74" fill="#895d3b" opacity="0.3"/><rect x="101.7" y="178.1" width="2.7" height="2.74" fill="#895d3b" opacity="0.3"/><rect x="71.8" y="140.5" width="11" height="27.44" fill="#dae9f3"/><rect x="88" y="140.5" width="11" height="27.44" fill="#dae9f3"/><rect x="71.8" y="185.1" width="12.3" height="27.44" fill="#dae9f3"/><rect x="86" y="185.1" width="13" height="27.44" fill="#dae9f3"/><rect x="69" y="178.1" width="32.6" height="14.64" fill="#167bbf" opacity="0.1"/></g><path d="M274.6,59c-4.5-4.6-12-2.5-16.6,2l-.8.8-.6-.6c-4.5-4.6-11.9-7.2-16.6-2.9a11.6,11.6,0,0,0-.5,16.7l.8.7,15.9,16.1a.9.9,0,0,0,1.2,0l16.3-15.6.7-.8A11.4,11.4,0,0,0,274.6,59Z" fill="#167bbf" opacity="0.05"/><g opacity="0.1"><path d="M258.9,79.8h-.1a1,1,0,0,1-.8-.5l-4.8-9.1c0-.1-.2-.1-.2,0l-3.6,6.1a1.3,1.3,0,0,1-1.1.6H233.1a.6.6,0,1,1,0-1.2h15l.3-.2,3.9-6.7c.1-.3.5-.4.8-.4h0a1.1,1.1,0,0,1,.9.5l4.8,9.2h.2l4.3-6.4a1,1,0,0,1,.8-.5h17a.6.6,0,0,1,.6.6.6.6,0,0,1-.6.7H264.7a.8.8,0,0,0-.7.4l-4.3,6.5A1.2,1.2,0,0,1,258.9,79.8Z" fill="#167bbf"/></g><g id="Layer_2-2" data-name="Layer 2"><path d="M183.1,172.9c0-2.4.4-20.4-.9-20.4s-.9,17.2-.8,20.3l.7-.2A1.9,1.9,0,0,1,183.1,172.9Z" fill="#167bbf" opacity="0.1"/><path d="M184.1,176.4v-1.8a2.1,2.1,0,0,0-2-2l-.7.2a1.9,1.9,0,0,0-1.3,1.8v1.6l1.8-.3A5.4,5.4,0,0,1,184.1,176.4Z" fill="#167bbf" opacity="0.05"/><polygon points="183 217.9 183 214.7 180.7 214.7 180.5 214.7 180.5 217.9 181.7 217.9 183 217.9" fill="#167bbf" opacity="0.1"/><path d="M179.5,210.3a.5.5,0,1,1,0-1h1.2v-3.1h-1.2a.6.6,0,0,1-.6-.5.6.6,0,0,1,.6-.6h1.2v-3.3h-1.2a.6.6,0,0,1-.6-.6.6.6,0,0,1,.6-.5h1.2v-2.9h-3.2c-.6,0-.9-.5-.9-1.1a.7.7,0,0,1,.6-.7V182.7h0a4.6,4.6,0,0,1,9.2-.4v13.7a1.2,1.2,0,0,1,.7,1,.9.9,0,0,1-1,.9h-3.1v2.8h1.4a.6.6,0,0,1,.6.5.6.6,0,0,1-.6.6h-1.4v3.3h1.4a.6.6,0,0,1,.6.6.6.6,0,0,1-.6.5h-1.4v3.1h1.4a.5.5,0,1,1,0,1h-1.4l.2,4.4h3.3a2,2,0,0,0,2-2V181.6a6.4,6.4,0,0,0-4.2-5.4,5.9,5.9,0,0,0-2.3-.4l-1.7.2a6.4,6.4,0,0,0-4.7,6.2h0v30.4a2,2,0,0,0,2,2h3.3v-4.4Z" fill="#167bbf" opacity="0.05"/><path d="M186,195.8h.3V182.2a4.6,4.6,0,0,0-9.2.4h0v13.2H186Z" fill="#167bbf" opacity="0.1"/><path d="M175.2,221.2H188a1.5,1.5,0,0,0,1.6-1.5v-.4a1.6,1.6,0,0,0-1.6-1.5H175.2a1.6,1.6,0,0,0-1.6,1.5v.4A1.5,1.5,0,0,0,175.2,221.2Z" fill="#167bbf" opacity="0.1"/><g opacity="0.05"><polygon points="183 206.2 180.6 206.2 180.5 209.3 183 209.3 183 206.2" fill="#167bbf"/><polygon points="183 201.8 180.6 201.8 180.6 205.1 183 205.1 183 201.8" fill="#167bbf"/><path d="M180.6,197.9v2.8H183v-2.8h3a1.1,1.1,0,0,0,1-1.1,1.2,1.2,0,0,0-.7-1h-9.2a1,1,0,0,0-.6.9,1.1,1.1,0,0,0,1,1.1Z" fill="#167bbf"/><polygon points="180.7 214.7 183 214.7 183 210.3 180.5 210.3 180.5 214.7 180.5 214.7 180.7 214.7" fill="#167bbf"/></g><path d="M184.2,201.8a.6.6,0,0,0,.6-.6.6.6,0,0,0-.6-.5h-4.7a.6.6,0,0,0-.6.5.6.6,0,0,0,.6.6h4.7Z" fill="#167bbf" opacity="0.1"/><path d="M184.2,206.2a.6.6,0,0,0,.6-.5.6.6,0,0,0-.6-.6h-4.7a.6.6,0,0,0-.6.6.6.6,0,0,0,.6.5h4.7Z" fill="#167bbf" opacity="0.1"/><path d="M184.8,209.8a.6.6,0,0,0-.6-.5h-4.7a.5.5,0,1,0,0,1h4.7A.6.6,0,0,0,184.8,209.8Z" fill="#167bbf" opacity="0.1"/></g><g id="Layer_2-3" data-name="Layer 2"><path d="M363.4,100.7,356,93.2l-10.3,10.3,7.4,7.5h0a7.3,7.3,0,0,0,10.3-10.3Z" fill="#167bbf" opacity="0.05"/><path d="M348.5,85.8h0a7.2,7.2,0,0,0-10.1.2,7.3,7.3,0,0,0-.2,10.1h0l7.5,7.4L356,93.2Z" fill="#167bbf" opacity="0.1"/><path d="M357.2,67.4h0a7.3,7.3,0,0,0-10.1.2,7.2,7.2,0,0,0-.2,10.1h0l7.5,7.5,10.3-10.3Z" fill="#167bbf" opacity="0.05"/><path d="M372.1,82.3h0l-7.4-7.4L354.4,85.2l7.4,7.4h0a7.3,7.3,0,0,0,10.3-10.3Z" fill="#167bbf" opacity="0.1"/></g><g id="_Group_" data-name="&lt;Group&gt;"><path id="_Path_" data-name="&lt;Path&gt;" d="M523.6,222.2H461.7a3.8,3.8,0,0,1-3.9-3.9V132.8a3.8,3.8,0,0,1,3.9-3.8h61.9a3.8,3.8,0,0,1,3.9,3.8v85.5A3.8,3.8,0,0,1,523.6,222.2Z" fill="#167bbf" opacity="0.05"/><path id="_Path_2" data-name="&lt;Path&gt;" d="M518.6,215.3H466.7a1.9,1.9,0,0,1-1.9-1.9V136.7a1.9,1.9,0,0,1,1.9-2h51.9a2,2,0,0,1,1.9,2v76.7A2,2,0,0,1,518.6,215.3Z" fill="#167bbf" opacity="0.02"/><path id="_Path_3" data-name="&lt;Path&gt;" d="M511.5,137.3H473.7a1.9,1.9,0,0,1-1.9-1.9v-6.1a1.9,1.9,0,0,1,1.9-1.9h37.8a1.9,1.9,0,0,1,2,1.9v6.1A1.9,1.9,0,0,1,511.5,137.3Z" fill="#167bbf" opacity="0.05"/><g id="_Group_2" data-name="&lt;Group&gt;" opacity="0.1"><g id="_Group_3" data-name="&lt;Group&gt;"><path id="_Path_4" data-name="&lt;Path&gt;" d="M510.3,176.5H475a1.5,1.5,0,0,1-1.4-1.5,1.4,1.4,0,0,1,1.4-1.4h35.3a1.4,1.4,0,0,1,1.4,1.4A1.5,1.5,0,0,1,510.3,176.5Z" fill="#167bbf"/></g><g id="_Group_4" data-name="&lt;Group&gt;"><path id="_Path_5" data-name="&lt;Path&gt;" d="M510.3,183.4H475a1.5,1.5,0,0,1-1.4-1.5,1.4,1.4,0,0,1,1.4-1.4h35.3a1.4,1.4,0,0,1,1.4,1.4A1.5,1.5,0,0,1,510.3,183.4Z" fill="#167bbf"/></g><g id="_Group_5" data-name="&lt;Group&gt;"><path id="_Path_6" data-name="&lt;Path&gt;" d="M510.3,190.3H475a1.4,1.4,0,0,1-1.4-1.4,1.5,1.5,0,0,1,1.4-1.5h35.3a1.5,1.5,0,0,1,1.4,1.5A1.4,1.4,0,0,1,510.3,190.3Z" fill="#167bbf"/></g><g id="_Group_6" data-name="&lt;Group&gt;"><path id="_Path_7" data-name="&lt;Path&gt;" d="M510.3,197.2H475a1.4,1.4,0,0,1-1.4-1.4,1.5,1.5,0,0,1,1.4-1.5h35.3a1.5,1.5,0,0,1,1.4,1.5A1.4,1.4,0,0,1,510.3,197.2Z" fill="#167bbf"/></g><g id="_Group_7" data-name="&lt;Group&gt;"><path id="_Path_8" data-name="&lt;Path&gt;" d="M510.3,204.1H475a1.4,1.4,0,1,1,0-2.8h35.3a1.4,1.4,0,0,1,0,2.8Z" fill="#167bbf"/></g><g id="_Group_8" data-name="&lt;Group&gt;"><path id="_Path_9" data-name="&lt;Path&gt;" d="M510.3,166.4h-8.2a1.5,1.5,0,0,1-1.5-1.4,1.5,1.5,0,0,1,1.5-1.5h8.2a1.5,1.5,0,0,1,1.4,1.5A1.4,1.4,0,0,1,510.3,166.4Z" fill="#167bbf"/></g><path d="M504.6,161.2a1.1,1.1,0,0,1-.9-.4l-3.2-3.1a1.4,1.4,0,0,1,2-2l2.1,2.2,6.1-6.1a1.4,1.4,0,1,1,2,2l-7.1,7A1.2,1.2,0,0,1,504.6,161.2Z" fill="#167bbf"/><path d="M482.3,156.2v-1.4h-4.4a1.5,1.5,0,0,0-1.1.4,2.1,2.1,0,0,0-.4,1.1,1.6,1.6,0,0,0,1.5,1.4h4.4v4.4a1.6,1.6,0,0,0,1.6,1.5,1.6,1.6,0,0,0,1.3-1.5v-4.4h-1.4A1.5,1.5,0,0,1,482.3,156.2Z" fill="#167bbf"/><path d="M491.1,156.1a1.6,1.6,0,0,0-1.5-1.3h-4.4v-4.4a1.5,1.5,0,0,0-1.6-1.5,1.5,1.5,0,0,0-1.3,1.5v4.4h1.4a1.5,1.5,0,0,1,1.5,1.5v1.4h4.4a1.5,1.5,0,0,0,1-.4A1.7,1.7,0,0,0,491.1,156.1Z" fill="#167bbf"/><path d="M483.7,154.8h-1.4v1.4a1.5,1.5,0,0,0,1.5,1.5h1.4v-1.4A1.5,1.5,0,0,0,483.7,154.8Z" fill="#167bbf"/></g></g><path d="M441.2,209.8h0c-.1,2-.1,5.3-.1,8.3h-2.4c0-3.1,0-6.4.1-8.5h0c0-2.7-.1-5.1-2-5.8h-.1a5.4,5.4,0,0,0-3.6.2,3,3,0,0,0-1,.9,2.4,2.4,0,0,0-.4,1.5,1.2,1.2,0,0,1-1.1,1.3,1.2,1.2,0,0,1-1.2-1.1,4.7,4.7,0,0,1,2.5-4.7h.1a6.8,6.8,0,0,1,4.7-.5,1.7,1.7,0,0,1,1,.3C441.3,203.1,441.2,207.3,441.2,209.8Z" fill="#167bbf"/><path d="M388.4,207h-.3a2.4,2.4,0,0,1-2.9-1.6l-1.6-5.7-1.1-3.5a2.4,2.4,0,0,1,1.7-2.9,2.4,2.4,0,0,1,2.9,1.6l1.2,4.1v.3l1.4,4.8A2.4,2.4,0,0,1,388.4,207Z" fill="#b38260"/><path d="M390.2,198.9l-1.8.2h-.1l-4.7.7-2.5.4-3.6-25.1a2.5,2.5,0,0,1,.4-1.7,2.6,2.6,0,0,1,1.6-.9l6.8-1,.3,2.2,1.8,12.3.4,3,.5,3.2Z" fill="#cee3f0"/><path d="M436.7,194.6v9.5a2.4,2.4,0,0,1-2.4,2.4,2.4,2.4,0,0,1-2.2-1.6,1.9,1.9,0,0,1-.2-.8v-9.5a2.4,2.4,0,1,1,4.8,0Z" fill="#b38260"/><path d="M440.2,173.6,439,200.1h-9.2l.9-26.4v-1.2l8.7.6a.9.9,0,0,1,.6.4A.6.6,0,0,1,440.2,173.6Z" fill="#cee3f0"/><path d="M411.1,142.3v7.4a3,3,0,1,1-5.9,0v-7.4a2.7,2.7,0,0,1,1.4-2.5,2.8,2.8,0,0,1,1.6-.5,2.4,2.4,0,0,1,1.8.7l.3.2A3,3,0,0,1,411.1,142.3Z" fill="#b38260"/><path d="M427.9,160.1v32.1H388.4V160.1a12.8,12.8,0,0,1,12.5-12.8h14.2a12.9,12.9,0,0,1,11.2,6.6A12.7,12.7,0,0,1,427.9,160.1Z" fill="#b38260"/><polygon points="427.9 189 427.9 219 388.4 221.7 388.4 189 427.9 189" fill="#064163"/><path d="M427.9,154.1v58H388.4v-58c.1-3.6.7-5.3,1.6-6.1a4.2,4.2,0,0,1,3-.7h7.9a2.5,2.5,0,0,1,2.2,1.6l4.4,8.2c.3.8,1,.8,1.3,0l4.1-8.3a2.4,2.4,0,0,1,2.2-1.5h8.2a4.3,4.3,0,0,1,2.6.9C427.2,149.1,428,151,427.9,154.1Z" fill="#cee3f0"/><path d="M392.3,148.8h-.1l-.6,2.7-3.2,14.3-1.8,7.8-.3,1.5a.1.1,0,0,1-.1.1l-8.3-1.9h-.6l4.2-18.4A8.6,8.6,0,0,1,390,148l1.8.2A.6.6,0,0,1,392.3,148.8Z" fill="#cee3f0"/><path d="M440.1,173.2h0l-8.9,2a.1.1,0,0,1-.1-.1l-.4-1.8L427.9,161l-1.6-7.1-1.1-5h-.1a.6.6,0,0,1,.5-.6h.3a8.6,8.6,0,0,1,10,6.6Z" fill="#cee3f0"/><path d="M418,124.5V134a9.9,9.9,0,0,1-6.9,9.3,9.3,9.3,0,0,1-2.9.5,9.4,9.4,0,0,1-3-.5,9.9,9.9,0,0,1-6.9-9.3v-9.5a7,7,0,0,1,1.6-4.4l1-.9a6.8,6.8,0,0,1,4.4-1.6H411a6.7,6.7,0,0,1,4.8,1.9l.6.6A7,7,0,0,1,418,124.5Z" fill="#b38260"/><path d="M411.1,144.1a13.6,13.6,0,0,1-2.9.3,9.5,9.5,0,0,1-3-.4c-4.1-.9-7.1-4-6.9-10l7-1.1a18.2,18.2,0,0,1,5.7,0l7,1.1C418.4,140.7,415.2,143.4,411.1,144.1Z" fill="#bcbcbc"/><path d="M415.8,119.5c0,.2-.1.3-.1.4a1.1,1.1,0,0,1-.5.9,5.2,5.2,0,0,1-1.9,1.4,7,7,0,0,1-2.5.5h-4.7a6.2,6.2,0,0,1-4.7-2.2,1.6,1.6,0,0,1-.5-1.1v-.2a6.8,6.8,0,0,1,4.4-1.6H411A6.7,6.7,0,0,1,415.8,119.5Z" fill="#bcbcbc"/><path d="M418,124.5v2.6l-.8-.2a3.2,3.2,0,0,1-1.9-2.9,27.5,27.5,0,0,1,1.1-3.9A7,7,0,0,1,418,124.5Z" fill="#bcbcbc"/><path d="M418,133.1c-.4.2-.7.3-.9.2s-1.5-5.8,0-6.4h.1a1.1,1.1,0,0,1,.8,0,3.6,3.6,0,0,1,1.8,2C420.4,130.6,419.1,132.4,418,133.1Z" fill="#b38260"/><path d="M401,124a3.1,3.1,0,0,1-1.8,2.9l-.9.2v-2.6a7,7,0,0,1,1.6-4.4A27.5,27.5,0,0,1,401,124Z" fill="#bcbcbc"/><path d="M399,133.3c-.2.1-.4,0-.7-.1s-2.6-2.6-1.8-4.5a3.3,3.3,0,0,1,1.8-1.7,1,1,0,0,1,.9-.1h.2C400.8,127.7,400.3,133,399,133.3Z" fill="#b38260"/><path d="M406.1,136.8h4.7a.6.6,0,0,1,.6.6v.1a2.9,2.9,0,0,1-2.9,2.9h-.2a2.9,2.9,0,0,1-2.9-2.9v0a.7.7,0,0,1,.7-.7Z" fill="#f7f8f9"/><path d="M314,121v9.8a13.9,13.9,0,0,1-7.8,12.4h-.3l-.6.3-2.1.6a14.3,14.3,0,0,1-2.9.3,14.5,14.5,0,0,1-3-.3,10.6,10.6,0,0,1-2.5-.9h-.1l-.8-.4a13.8,13.8,0,0,1-7.3-12.1v-6.9a9.9,9.9,0,0,1,.2-1.7h0a6.8,6.8,0,0,1,4.9-4.8,4.4,4.4,0,0,1,1.6-.2h16.9a3.9,3.9,0,0,1,3.8,3.4Z" fill="#1a1a1a"/><rect x="297.2" y="133.5" width="5.9" height="13.38" rx="3" ry="3" fill="#e29c5f"/><ellipse cx="300.3" cy="125.8" rx="11.7" ry="12.3" fill="#e29c5f"/><path d="M314,121v.6c-.2,1.5-.9,3.5-2,4h-.2c-1.9.4-3.7-4.1-8.8-8-.8-.6-1.7.4-2.5-.5l-.3-.5c-.2-.4-.2-.1-.2.5v1.3c-.3,4.6-4.6,9.1-9.5,10h0l-1.6.2a1.8,1.8,0,0,1-1.2-.5h-.1a5,5,0,0,1-1-3.5,23.2,23.2,0,0,1,.2-2.4h0a23.6,23.6,0,0,1,2.2-6.3,13.3,13.3,0,0,1,15.1-6.1c4.7,1.4,9.6,6.1,9.9,10.8Z" fill="#1a1a1a"/><path d="M290.4,131.7c-.7.4-3.2-1-3-2.9s1-2.3,1.8-2.1S291.3,131.2,290.4,131.7Z" fill="#e29c5f"/><path d="M310.4,131.5c.7.4,3.2-1.1,3-3s-1.1-2.2-1.9-2.1S309.5,131,310.4,131.5Z" fill="#e29c5f"/><path d="M320,149.4v68.5a8.2,8.2,0,0,1-7.8,8.2H300l-14.9-.7a8.3,8.3,0,0,1-4.7-7.4V148.6h.1v-.3h.1c0-.1,0-.2.1-.2s.2-.3.3-.5l.2-.2a.2.2,0,0,1,.2-.2l.3-.2h0l.3-.2h1l.8-.2,6.1-1.7h.4l2-.6h0l2.3-.6,2.5-.7h0l1.7-.5a4.8,4.8,0,0,1,2.9,0l1.4.4h0l2.7.8h0l.8.2h0l3.3.9h.5l4.1,1.2,1.4.3.5.2.8.2a2.4,2.4,0,0,1,1.6.7l.3.2v.2c.1.1.2.1.2.2h0l.2.3v.2h0a.4.4,0,0,0,.1.3h0v.7Z" fill="#e29c5f"/><path d="M320,149.4V226H300l-14.9-.7-4.7-.4V148.6h.1v-.3h.1c0-.1,0-.2.1-.2s.2-.3.3-.5l.2-.2a.2.2,0,0,1,.2-.2l.3-.2h0l.3-.2h1l.8-.2,6.1-1.7h.4l.8.9h0l.5.5,6.3,6.8a2.8,2.8,0,0,0,4.1.1l6.2-6.6.5-.5,1.2-1.3h.5l4.1,1.2,1.4.3.5.2.8.2a2.4,2.4,0,0,1,1.6.7l.3.2v.2c.1.1.2.1.2.2h0l.2.3v.2h0a.4.4,0,0,0,.1.3h0v.7Z" fill="#5298d2"/><path d="M310.5,144.6v16.2h0a7.7,7.7,0,0,1-.2,1.5,9.9,9.9,0,0,1-4.4,6.9l-.5.3a10.4,10.4,0,0,1-4.2,1.4h-1.4a9.9,9.9,0,0,1-5.1-1.6l-.9-.6a10.4,10.4,0,0,1-3.8-8V144.6h.4l.8.9h0l.5.5,6.3,6.8a2.8,2.8,0,0,0,4.1.1l6.2-6.6.5-.5,1.2-1.3h.5Z" fill="#cee3f0"/><path d="M310.9,153h3l-1.5,2-1.9,2.8-.6.9-.9,1.2h0l-.8,1.1-1.5,2.2h0l-1.1,1.5h0l-1.1,1.6v.2l-3.2,4.5h0l-.7,1-.5-.6-.2-.4-7.2-9.9-1.3-1.7-1.3-1.8h0l-3.2-4.3H290l-.2-.2-5.3-6.7,5.5-1.6h.2l.6,1.5.4,1,9.3,23.8,8.6-23.1.4-1,.8-2.2h0l4.3,1.3,1.4.3Z" fill="#064163"/><polygon points="284.5 157.7 290 157.6 300.5 172 312.4 155 317.2 156.3 307.6 178.3 297.2 178.8 284.5 157.7" fill="#5298d2"/><path d="M285,151.6a2.7,2.7,0,0,1-.2,1.3l-4.4,15.5-1.7,6.1v.5h-.1l-8.8-2.4h0v-.2l6.2-21.9a4.6,4.6,0,0,1,5.5-3.2h.2A4.6,4.6,0,0,1,285,151.6Z" fill="#5298d2"/><path d="M334,170.4h0l-8.2,3.9h-.1l-.5-.9L320,162.3l-2.9-6h0l-1.2-2.6a4.4,4.4,0,0,1,2.2-6.1,1.1,1.1,0,0,1,.8-.3,4.7,4.7,0,0,1,5.3,2.5l9.4,19.8.2.6Z" fill="#5298d2"/><polygon points="301.2 170.8 301.2 226 300 226 300 170.8 301.2 170.8" fill="#064163"/><rect x="297.9" y="176.4" width="15.8" height="21.33" rx="3.4" ry="3.4" transform="translate(-50.6 148.5) rotate(-25.3)" fill="#fff"/><path d="M305.9,188.7a2.4,2.4,0,0,1,1-3.2l8.4-4.4a2.3,2.3,0,0,1,3.2,1,2.3,2.3,0,0,1-1,3.2l-8.4,4.4A2.4,2.4,0,0,1,305.9,188.7Z" fill="#e29c5f"/><rect x="269.5" y="172.3" width="9.2" height="27.64" fill="#5298d2"/><path d="M329.2,181.8l-9.2,4.4-4.8,2.2-.7.3-.7-1.5-2-4.3-1.2-2.5.7-.3L320,176l5.2-2.5,8.4-4h0a1.4,1.4,0,0,1,.2.6c.1.1.1.3.2.4A9.2,9.2,0,0,1,329.2,181.8Z" fill="#5298d2"/><rect x="280.7" y="196.2" width="12.2" height="1.49" transform="translate(111.6 -103.6) rotate(25.3)" fill="#064163"/><rect x="307.2" y="196.2" width="12.2" height="1.49" transform="translate(-54.1 152.6) rotate(-25.3)" fill="#064163"/><rect x="303.9" y="171.3" width="12.2" height="1.49" fill="#064163"/><path d="M276.5,199.5v6.9a2.4,2.4,0,0,1-2.4,2.4,2.4,2.4,0,0,1-2.4-2.4v-6.9Z" fill="#e29c5f"/><path d="M298.4,131.1h4.4a.8.8,0,0,1,.8.8v0a2.8,2.8,0,0,1-2.8,2.8h-.4a2.8,2.8,0,0,1-2.8-2.8v0a.8.8,0,0,1,.8-.8Z" fill="#f7f6f6"/><path d="M247.4,126.3l-.3,2c-.2.9-.3,1.9-.6,3s-1.3,3.8-3,4.7-1.7.5-2.1,1.2.3,2.1,1.5,5.4c.2.7.5,1.3.7,2a6.4,6.4,0,0,1,.2.7c.6,1.8,2.5,8.8.3,14.8s-9.3,11.5-16.6,12.2a22.9,22.9,0,0,1-6.9-.4,28.6,28.6,0,0,1-5.8-2.1l-1.2-.8h0l-1-.7a13.5,13.5,0,0,1-4.8-6.1c-.3-.9-1.7-4.6-.3-8.3s4-6.7,8.1-9.8c.9-.7,2.1-1.6,2-2.7s-2.6-1.5-3.5-3.6,0-4.6,1.5-5.9,2.1-.8,2.6-1.8a1.5,1.5,0,0,0,.2-.9,5.2,5.2,0,0,0-.2-1.1,11.7,11.7,0,0,1-.3-2.2,18.2,18.2,0,0,1,.6-2.9,18.9,18.9,0,0,1,5.2-8.1,13.1,13.1,0,0,1,7.6-3.5,14.9,14.9,0,0,1,15.5,9.2c0,.1.1.2.1.3A14.7,14.7,0,0,1,247.4,126.3Z" fill="#603917"/><rect x="230.2" y="133.5" width="5.9" height="13.38" rx="3" ry="3" transform="translate(466.3 280.4) rotate(180)" fill="#dd9869"/><ellipse cx="233.1" cy="125.8" rx="13.1" ry="13.8" fill="#dd9869"/><path d="M246.5,131.3a2.9,2.9,0,0,1-1.6.6h-.4c-.7-.4-.6-2.6,0-4.3s.9-1.8,1.5-1.9h.6a2.1,2.1,0,0,1,.8.6,3.3,3.3,0,0,1,.8,1.9A3.6,3.6,0,0,1,246.5,131.3Z" fill="#dd9869"/><path d="M221.8,131.5h-.6a4.3,4.3,0,0,1-2.8-2.4,4.3,4.3,0,0,1-.2-1.1v-.3a3.1,3.1,0,0,1,1.8-2.5h.4a.8.8,0,0,1,.7.4C222.3,126.9,222.8,131,221.8,131.5Z" fill="#dd9869"/><path d="M253.1,149.4v68.5a8,8,0,0,1-1.1,4l-38.3-2.5a7.6,7.6,0,0,1-.1-1.5v-69a.4.4,0,0,0,.1-.3.4.4,0,0,1,.1-.3h.1v-.3h.1l.2-.2h0l.2-.2.2-.2.3-.2h.3c0-.1.1-.1.2-.2h.8l.8-.2,9.9-2.8,3.2-.9,1.6-.5a4.5,4.5,0,0,1,2.8,0l1.5.4,3.7,1.1,3.8,1,6,1.7.8.2h.9l.4.2.4.3.2.2h.1c.1.1.2.2.2.3s.1.1.1.2h.1l.2.3h0v.3h.1Z" fill="#e29c5f"/><path d="M251.4,155h4.8a0,0,0,0,1,0,0v9.1a0,0,0,0,1,0,0h-4.8a4.5,4.5,0,0,1-4.5-4.5v0A4.5,4.5,0,0,1,251.4,155Z" transform="translate(372.4 431.8) rotate(-146.3)" fill="#e29c5f"/><path d="M263.7,191v1.4c0,.2-.1.4-.1.6v.5c0,.2-.1.5-.1.8h0c-.1.3-.1.6-.2.9a.4.4,0,0,1-.1.3.7.7,0,0,1-.1.5h0c0,.2-.1.4-.1.6l-.3.7a1.9,1.9,0,0,1-.2.8h-.1a.6.6,0,0,1-.1.4l-.3.6a.8.8,0,0,1-.2.5.4.4,0,0,1-.1.3l-.2.5-.4.6-.3.6-.7,1.2-.2.3h0v.2h0c-.1,0-.1.1-.2.2l-.3.5-.4.4-.4.5h-.1l-.8.9h-.1l-.9.9h0l-.5.4-.5.4h0l-.4.4-.4.2a1,1,0,0,1-.5.4l-.6.4-.6.4h0a22.4,22.4,0,0,1-11.2,3.1A21.9,21.9,0,0,1,220,191a25,25,0,0,1,.7-5.4,20.3,20.3,0,0,1,2.4-5.7,21.8,21.8,0,0,1,18.8-10.7,21.4,21.4,0,0,1,11.2,3.1h.3l.7.4h0l.6.4v.2l.4.2.4.4h0l.6.4h.2l.4.4h.1l.2.3.4.3.4.5.5.5.9,1.1.3.5h.2l.3.4.3.6a2.1,2.1,0,0,1,.4.6,7.5,7.5,0,0,0,.7,1.2l.2.6v.2l.2.5c.1.1.1.1.1.2a1.4,1.4,0,0,1,.2.6v.2l.3.9.3.8h0c0,.2.1.4.1.6s.1.5.2.8.1.7.2,1h0c0,.3.1.6.1.9h0v.4c0,.3.1.5.1.7V191Z" fill="#e29c5f"/><path d="M264.8,200.9c-.1,1.3-.1,2.7-.2,4.1h-.1l-4.7-.4a4.9,4.9,0,0,0,.1-1.2h0a24.4,24.4,0,0,0,.1-2.7,28.1,28.1,0,0,0,0-2.9h0a86,86,0,0,0-1.7-16.7l-.9-3.8c-.2-.7-.3-1.4-.5-2.2s-1.3-4.1-2-6.2-1.1-3.1-1.7-4.7l4.4-1.8,1.7,4.5A96.1,96.1,0,0,1,264.8,200.9Z" fill="#dd9869"/><path d="M264.8,198l-.3,7v2.5a2.5,2.5,0,0,1-2.5,2.3,2.4,2.4,0,0,1-2.3-2.5l.2-3.7h0l.2-5.8h0a2.4,2.4,0,0,1,2.5-2.3h.7A2.5,2.5,0,0,1,264.8,198Z" fill="#dd9869"/><path d="M262,165.7l-2.7,1.2-4.4,2-1.2.5h-.1l-.5-1.1-1.9-4.2-3.3-7.5-.9-1.9a4.6,4.6,0,0,1,2.3-6.1,4.3,4.3,0,0,1,1.9-.4l1.8.3h0a5.1,5.1,0,0,1,2.4,2.4l6.6,14.7Z" fill="#083b56"/><path d="M263.7,191v1.4c0,.2-.1.4-.1.6v.5c0,.2-.1.5-.1.8h0c-.1.3-.1.6-.2.9a.4.4,0,0,1-.1.3.7.7,0,0,1-.1.5h0c0,.2-.1.4-.1.6l-.3.7a1.9,1.9,0,0,1-.2.8h-.1c0,.1-.1.3-.1.4l-.3.6a.8.8,0,0,1-.2.5.4.4,0,0,1-.1.3l-.2.5-.4.6-.3.6-.7,1.2-.2.3h0v.2h0c-.1,0-.1.1-.2.2l-.3.5-.4.4-.4.5h-.1l-.8.9h-.1l-.9.9h0l-.5.4-.5.4h0l-.4.4-.4.2a1,1,0,0,1-.5.4l-.6.4-.6.4V222H252l-38.3-2.5h-.1V148.9a.4.4,0,0,0,.1-.3.4.4,0,0,1,.1-.3h.1v-.3h.1l.2-.2h0l.2-.2.2-.2.3-.2h.3c0-.1.1-.1.2-.2h.8l.8-.2,9.9-2.8,3.2-.9,1.6-.5a4.5,4.5,0,0,1,2.8,0l1.5.4,3.7,1.1,3.8,1,6,1.7.8.2h.9l.4.2.4.3.2.2h.1c.1.1.2.2.2.3s.1.1.1.2h.1l.2.3h0v.3h.1v6l1,.7a1,1,0,0,1,.5.4,2.7,2.7,0,0,1,.7.8,1.3,1.3,0,0,1,.3.5h0l.2.4h0v.6h0a1.3,1.3,0,0,1,.1.6v1.6c0,.2-.1.3-.1.5l-.2.3-.3.6-.2.3-.3.3c-.1.2-.3.3-.5.5h-.3l-.4.2h-.2l-.4.2v8.4h.3l.7.4h0l.6.4v.2l.4.2.4.4h0l.6.4h.2l.4.4h.1l.2.3.4.3.4.5.5.5.9,1.1.3.5h.2l.3.4.3.6a2.1,2.1,0,0,1,.4.6,7.5,7.5,0,0,0,.7,1.2l.2.6v.2l.2.5c.1.1.1.1.1.2a1.4,1.4,0,0,1,.2.6v.2l.3.9.3.8h0c0,.2.1.4.1.6s.1.5.2.8.1.7.2,1h0c0,.3.1.6.1.9h0v.4c0,.3.1.5.1.7V191Z" fill="#064163"/><path d="M247.1,123.4a6.8,6.8,0,0,1-.5,2.3l-.3.9c-.4.7-.9,1.2-1.4,1h-.4c-7.3-2-3.1-7.2-8.6-8-3.4-.5-3-2.8-2.9-1.1s-.1.7-.2,1.9c-.3,4.7-6.5,6.8-9.7,5.4a2.2,2.2,0,0,0-2,0,1.5,1.5,0,0,1-.9-.2l-.2-.2h0c-1.7-1.8-.8-3.6,1.6-7.6a12.1,12.1,0,0,1,2.1-2.8,13.3,13.3,0,0,1,13.3-3.5c4.3,1.3,8.8,5.3,9.9,9.5A7.2,7.2,0,0,1,247.1,123.4Z" fill="#603917"/><path d="M227,143.5l1.2,8.9a6.2,6.2,0,0,0,3.5,4.6c5.3,2.5,10.8-.7,9.9-5.7l-1.2-6.7a1.7,1.7,0,0,0-.6-1l-5.2-1.5a4.5,4.5,0,0,0-2.8,0Z" fill="#dd9869"/><path d="M230,190.3a11.3,11.3,0,0,1-5.2-1.1c-3.2-1.6-5.5-4.8-7-10.1a10.4,10.4,0,0,1-.4-1.3,71.2,71.2,0,0,0-3.1-9.2l4.3-2a77.7,77.7,0,0,1,3.4,9.9,13,13,0,0,0,.3,1.3c1.2,3.9,2.6,6.2,4.6,7.1,4.2,2.1,12.1-1,24.1-5.8l3.4-1.3,1.7,4.4-3.4,1.3C242.6,187.5,235.5,190.3,230,190.3Z" fill="#dd9869"/><path d="M221.8,167.3h-.1l-2.5.5-4.8.9-.8.2h0l-.8.2h-.1v-.8l-3-15a4.6,4.6,0,0,1,3.6-5.4h.9a4.6,4.6,0,0,1,4.5,3.7Z" fill="#064163"/><path d="M245.4,183.8a2.5,2.5,0,0,1,1.4-3.1l8.9-3.4a2.2,2.2,0,0,1,3,1.4,2.2,2.2,0,0,1-1.3,3l-8.9,3.5A2.5,2.5,0,0,1,245.4,183.8Z" fill="#e29c5f"/><path d="M229.7,131.9h6.6a.6.6,0,0,1,.6.6v.4a3.7,3.7,0,0,1-3.7,3.7h0a4.1,4.1,0,0,1-4.1-4.1v0a.5.5,0,0,1,.5-.5Z" fill="#f7f8f9"/><path d="M357.6,174.1v7.4a3,3,0,1,1-5.9,0v-7.4a3,3,0,0,1,3-3,3.3,3.3,0,0,1,2.1.9A3,3,0,0,1,357.6,174.1Z" fill="#b47031"/><path d="M369.5,189.7v33.2l-8.3.5-6.4.6h-15V189.7a10.3,10.3,0,0,1,2.4-6.7,10,10,0,0,1,2.1-2,12.4,12.4,0,0,1,3.3-1.5l1.1-.2,1.7-.2H359l1.6.2a10.3,10.3,0,0,1,6.6,3.8A10.2,10.2,0,0,1,369.5,189.7Z" fill="#b47031"/><path d="M369.5,183v39.9l-8.3.5-6.4.6h-15V183a3.8,3.8,0,0,1,2.6-3.6h0a2.8,2.8,0,0,1,1.3-.3h5v.3a6,6,0,1,0,11.9,0v-.3h5.1a3.1,3.1,0,0,1,1.3.3A3.7,3.7,0,0,1,369.5,183Z" fill="#b4daed"/><path d="M364.5,155.8v10a8.8,8.8,0,0,1-.2,1.7,9.8,9.8,0,0,1-6.7,7.6,9.3,9.3,0,0,1-2.9.5,9.4,9.4,0,0,1-3-.5,10,10,0,0,1-6.7-7.7,8.6,8.6,0,0,1-.1-1.6V155.3a.6.6,0,0,1,.1-.4v-.4c.1,0,.1-.1.1-.2a.4.4,0,0,0,.1-.3l.3-.4a.5.5,0,0,1,.2-.4l.2-.3h.4l.9-.7H361l.8.2h.4l.5.3h.2l.2.2.3.3.5.7.2.3h0c0,.1.1.2.1.3v.2c0,.2.1.3.1.4a.6.6,0,0,0,.1.4Z" fill="#b47031"/><path d="M364.5,155.8v3.7a3.1,3.1,0,0,1-2.7-3.1v-1.5l-.3.4a6.5,6.5,0,0,1-4.5,1.8h-4.7a6.5,6.5,0,0,1-5.1-2.5v1.8a3,3,0,0,1-2.3,3v-4.1a.6.6,0,0,1,.1-.4v-.4c.1,0,.1-.1.1-.2a.4.4,0,0,0,.1-.3l.3-.4a.5.5,0,0,1,.2-.4l.2-.3h.4l.9-.7H361l.8.2h.4l.5.3h.2l.2.2.3.3.5.7.2.3h0c0,.1.1.2.1.3v.2c0,.2.1.3.1.4a.6.6,0,0,0,.1.4Z" fill="#41210f"/><path d="M354.8,224l6.4-.6,8.3-.5" fill="none"/><path d="M369.5,216.6v6.3l-8.3.5-6.4.6c-3.7.4-8.8.8-15,1.2v-8.6Z" fill="#064163"/><path d="M374,217.8l-.3,1.7a2.4,2.4,0,0,1-2.9,1.8,3.3,3.3,0,0,1-1.3-.7,2.9,2.9,0,0,1-.5-2l.3-1.6a.6.6,0,0,1,.1-.4c0-.4.1-.7.1-1.1a85.2,85.2,0,0,0,.5-23.7l-.3-2.1c-.5-3.3,4.1-4.6,4.6-1.4l.3,2.1A96.5,96.5,0,0,1,374,217.8Z" fill="#b47031"/><path d="M375,188.7a2.5,2.5,0,0,1-.4,1.7,2.9,2.9,0,0,1-2.2,1.3h-2.9a3.1,3.1,0,0,1-1.9-2.5l-.4-6.1-.2-3.7h0a7.4,7.4,0,0,1,7.9,6.9Z" fill="#b4daed"/><path d="M360.8,205.2a2.4,2.4,0,0,1-2.4,2.4h-5l-12.4-.2h-2.2a4.8,4.8,0,0,1-3.5-1.6,4.9,4.9,0,0,1-1.2-3.8l1.4-10.6h0a2.4,2.4,0,0,1,2.6-2,2.7,2.7,0,0,1,1.7,1,2.3,2.3,0,0,1,.4,1.4v.3l-.4,3-1,7.6h2.8l10.8.2h6.1A2.3,2.3,0,0,1,360.8,205.2Z" fill="#b47031"/><path d="M342.5,179.4l-.3,3.6-.4,6.2a2.6,2.6,0,0,1-1.6,2.3l-.4.2h-2.7a2.3,2.3,0,0,1-1.6-.6,2.8,2.8,0,0,1-1.1-2.4l.2-2.4a7.3,7.3,0,0,1,7.8-6.9h.1Z" fill="#b4daed"/><polygon points="353.5 207.7 341 207.4 341 207.3 341.6 202.5 344.3 181 344.6 179.1 347.5 179.1 347.6 179.5 352.4 202.7 353.4 207.5 353.5 207.7" fill="#fff"/><path d="M353,167.4h3.1a1,1,0,0,1,1,1v0a2.6,2.6,0,0,1-2.6,2.6h0a2.6,2.6,0,0,1-2.6-2.6v0a1,1,0,0,1,1-1Z" fill="#f2ecec"/><path d="M364.3,167.5a.7.7,0,0,1-.6.2c-1.3-.4-1.6-5.8-.1-6.5a1,1,0,0,1,.9.1,3.4,3.4,0,0,1,1.8,1.9C367,165,365.4,167.1,364.3,167.5Z" fill="#b47031"/><path d="M345.8,167.5a.8.8,0,0,1-.8-.1,3.8,3.8,0,0,1-2.4-4c.3-1.2,1.4-2.3,2.3-2.3h.2C346.6,161.6,347,167,345.8,167.5Z" fill="#b47031"/><g id="Layer_2-4" data-name="Layer 2"><path d="M310.6,151.1a7.6,7.6,0,0,0-.1,1.5q-.3,3.6-.6,6h0c-.1.4-.1.8-.2,1.2v.2l-.6-.2h-.1a73.1,73.1,0,0,0,.9-8.8,6.9,6.9,0,0,0-.7-3.4,10.9,10.9,0,0,0-.8-1.5l-.9-1.1a6.9,6.9,0,0,0-2.1-1.5,3.9,3.9,0,0,0-2.1-.6v-.7a5.5,5.5,0,0,1,3,.9l.5.3h0l1.2,1.1a3.1,3.1,0,0,1,.9,1.1,6.1,6.1,0,0,1,.7,1,11.8,11.8,0,0,1,1,3A6.1,6.1,0,0,1,310.6,151.1Z" fill="#fff"/><path d="M297.2,142.3v.7a8.8,8.8,0,0,0-2.4.3,5.6,5.6,0,0,0-2.9,2.4c-.1.1-.1.2-.2.2a5.4,5.4,0,0,0-.5,1.1,11.9,11.9,0,0,0-.8,4.7,26.3,26.3,0,0,0,1.3,6.2l.9,3.2h0l1.4,5.3c.3,1,.5,2,.7,3a9.7,9.7,0,0,1,0,3.8c0,.2-.1.3-.1.4s-.1.3-.2.5h-.1l-.6-.3a.8.8,0,0,0,.2-.5h0a.8.8,0,0,0,.1-.4,9.6,9.6,0,0,0-.2-4.1,17.4,17.4,0,0,0-.5-2.2l-2-7.2h0l-.3-1.3a27.3,27.3,0,0,1-1-4.1c-.1-.3-.1-.5-.2-.8v-.3a4.9,4.9,0,0,1-.1-1.2,9.9,9.9,0,0,1,.3-3.3,7.5,7.5,0,0,1,.8-2.4l.4-.6h.1a7.6,7.6,0,0,1,1.1-1.4h0l1.5-1A5.8,5.8,0,0,1,297.2,142.3Z" fill="#fff"/><path d="M309,159.9c-2,.3-3.3,1.7-3.4,2.4a5.6,5.6,0,0,1,3.3-1.4h.2a5.5,5.5,0,0,1,3.9,1h.1c-.1-.6-1.4-1.9-3.4-2H309Z" fill="#d0d2d3"/><path d="M314,165.7v.3c.1,1.5-.4,3.2-1.5,3.9a.7.7,0,0,1,.4.5,4.3,4.3,0,0,0,1.1-1.2,5.9,5.9,0,0,0,.6-3.3v-.4l-.4.2Z" fill="#fff"/><path d="M304.7,166.3h-.3v.4a5.2,5.2,0,0,0,1,3.1,3.3,3.3,0,0,0,1.3,1.1,1.4,1.4,0,0,1,.2-.6c-1.1-.5-1.8-2.1-1.9-3.6v-.3Z" fill="#fff"/><path d="M309.1,160.9h-.2a5.6,5.6,0,0,0-3.3,1.4h-.2a4.4,4.4,0,0,0-1.3,3.1.9.9,0,0,0,.3.7h.6a.8.8,0,0,0,.4-.7c.2-1.9,1.6-3.1,4-3.2h0c2.2-.1,3.7.9,4,2.7a.9.9,0,0,0,.6.6h.2l.4-.2a1.4,1.4,0,0,0,.2-.7,4.6,4.6,0,0,0-1.7-2.9H313A5.5,5.5,0,0,0,309.1,160.9Z" fill="#e6e7e8"/><path d="M312.6,169.9h-.4c-.4,0-1,.4-1,.8s.7.7,1.1.6a.7.7,0,0,0,.7-.7h0A1,1,0,0,0,312.6,169.9Z" fill="#fff"/><path d="M306.6,170.8h0a.8.8,0,0,0,.7.7c.4-.1,1.1-.4,1-.8s-.7-.7-1-.7h-.4A.9.9,0,0,0,306.6,170.8Z" fill="#fff"/><path d="M295.2,173.8l-.3-.4-.2-.2-.7-.3h-.7a2,2,0,0,0-1.6,2.2,1.9,1.9,0,0,0,2.2,1.5,1.6,1.6,0,0,0,1.4-1,2,2,0,0,0,.2-1.1Zm-1.4,2.5a1.6,1.6,0,0,1-.4-3.1h.4c.1,0,.1,0,.1.1a.9.9,0,0,1,.7.3,1.2,1.2,0,0,1,.5.9,2.2,2.2,0,0,1,0,.8A1.7,1.7,0,0,1,293.8,176.3Z" fill="#e0dbd2"/><path d="M295.1,174.5a1.2,1.2,0,0,0-.5-.9.9.9,0,0,0-.7-.3c0-.1,0-.1-.1-.1h-.4a1.6,1.6,0,0,0,.4,3.1,1.7,1.7,0,0,0,1.3-1A2.2,2.2,0,0,0,295.1,174.5Zm-1.4,1a.6.6,0,0,1-.8-.6.7.7,0,1,1,1.4-.2C294.4,175.1,294.1,175.4,293.7,175.5Z" fill="#fff"/><circle cx="293.6" cy="174.8" r="0.8" fill="#4d4e4e"/></g></g></g></g></svg>