<svg xmlns="http://www.w3.org/2000/svg" viewBox="0 0 323.1 262.1"><title>report</title><g id="Layer_2" data-name="Layer 2"><g id="actualsize"><g opacity="0.6"><g opacity="0.05"><path d="M126.7,227.6c-33.4,27.9-75.4,54.8-110.6,12.5-21.7-26-21.6-69.4,1-94.8,30.7-34.6,64.5-12.4,97.9,3.7,15.3,7.4,38.4,12.8,39.9,33.3C156.1,200.4,139.3,217.2,126.7,227.6Z" fill="#107bc0"/></g><g opacity="0.05"><path d="M265.8,34.5c-24.3-20-54.4-39-87.3-33.6-29.4,4.9-54.4,26-76.7,44.3C74,68,41,90.1,18,118c-14.6,17.7-9.3,32,5.8,47.5,23.6,24.3,52,45.5,78.8,66.2,17.6,13.4,36.9,27.1,59.5,29.8,26,3.1,52.1-7.5,75.5-17.4,28-11.9,55.6-25.9,72-52.8C342.7,137.1,310,70.9,265.8,34.5Z" fill="#107bc0"/></g></g><g id="_Group_" data-name="&lt;Group&gt;"><path id="_Path_" data-name="&lt;Path&gt;" d="M226.5,262.1H96.6a8,8,0,0,1-8-8.1V74.8a8,8,0,0,1,8-8.1H226.5a8.1,8.1,0,0,1,8.1,8.1V254A8.1,8.1,0,0,1,226.5,262.1Z" fill="#084063"/><path id="_Path_2" data-name="&lt;Path&gt;" d="M234.6,74.8V254a8.1,8.1,0,0,1-8.1,8.1h-7.6A8.1,8.1,0,0,0,227,254V74.8a8.1,8.1,0,0,0-8.1-8.1h7.6A8.1,8.1,0,0,1,234.6,74.8Z" fill="#07354c"/><path id="_Path_3" data-name="&lt;Path&gt;" d="M215.9,247.6H107.2a4,4,0,0,1-4-4V82.9a4,4,0,0,1,4-4.1H215.9a4,4,0,0,1,4,4.1V243.6A4,4,0,0,1,215.9,247.6Z" fill="#fff"/><path id="_Path_4" data-name="&lt;Path&gt;" d="M219.9,82.9V243.6a4,4,0,0,1-4,4h-8.1a4,4,0,0,0,4.1-4V82.9a4.1,4.1,0,0,0-4.1-4.1h8.1A4,4,0,0,1,219.9,82.9Z" fill="#107bc0" opacity="0.02"/><path id="_Path_5" data-name="&lt;Path&gt;" d="M201.2,84.3H122a4.1,4.1,0,0,1-4.1-4.1V67.4a4,4,0,0,1,4.1-4h79.2a4,4,0,0,1,4,4V80.2A4.1,4.1,0,0,1,201.2,84.3Z" fill="#89cbf0"/><g id="_Group_2" data-name="&lt;Group&gt;"><g id="_Group_3" data-name="&lt;Group&gt;"><path id="_Path_6" data-name="&lt;Path&gt;" d="M198.5,166.2H124.6a3,3,0,0,1-3-3,3.1,3.1,0,0,1,3-3h73.9a3.1,3.1,0,0,1,3,3A3,3,0,0,1,198.5,166.2Z" fill="#b3aec1"/></g><g id="_Group_4" data-name="&lt;Group&gt;"><path id="_Path_7" data-name="&lt;Path&gt;" d="M198.5,180.7H124.6a3,3,0,0,1-3-3,3.1,3.1,0,0,1,3-3h73.9a3.1,3.1,0,0,1,3,3A3,3,0,0,1,198.5,180.7Z" fill="#b3aec1"/></g><g id="_Group_5" data-name="&lt;Group&gt;"><path id="_Path_8" data-name="&lt;Path&gt;" d="M198.5,195.2H124.6a3,3,0,0,1-3-3,3.1,3.1,0,0,1,3-3h73.9a3.1,3.1,0,0,1,3,3A3,3,0,0,1,198.5,195.2Z" fill="#b3aec1"/></g><g id="_Group_6" data-name="&lt;Group&gt;"><path id="_Path_9" data-name="&lt;Path&gt;" d="M198.5,209.7H124.6a3,3,0,0,1-3-3,3.1,3.1,0,0,1,3-3h73.9a3.1,3.1,0,0,1,3,3A3,3,0,0,1,198.5,209.7Z" fill="#b3aec1"/></g><g id="_Group_7" data-name="&lt;Group&gt;"><path id="_Path_10" data-name="&lt;Path&gt;" d="M198.5,224.2H124.6a3,3,0,0,1-3-3,3.1,3.1,0,0,1,3-3h73.9a3.1,3.1,0,0,1,3,3A3,3,0,0,1,198.5,224.2Z" fill="#b3aec1"/></g><g id="_Group_8" data-name="&lt;Group&gt;"><path id="_Path_11" data-name="&lt;Path&gt;" d="M198.5,145.2H181.3a3.1,3.1,0,0,1-3-3,3,3,0,0,1,3-3h17.2a3,3,0,0,1,3,3A3.1,3.1,0,0,1,198.5,145.2Z" fill="#b3aec1"/></g><path d="M186.7,134.3a2.8,2.8,0,0,1-2-.8l-6.6-6.5a3.1,3.1,0,0,1,0-4.2,3,3,0,0,1,4.1,0l4.5,4.5,12.7-12.7a3,3,0,0,1,4.1,0,2.8,2.8,0,0,1,0,4.1l-14.7,14.8A3.2,3.2,0,0,1,186.7,134.3Z" fill="#b3aec1"/><path d="M139.9,123.7v-2.9h-9.3a3.1,3.1,0,0,0-2.1.9,3,3,0,0,0-.9,2.4,3.2,3.2,0,0,0,3.1,2.9h9.2v9.2a3,3,0,0,0,3.2,3,3.1,3.1,0,0,0,2.9-3.1V127h-2.9A3.2,3.2,0,0,1,139.9,123.7Z" fill="#0a4063"/><path d="M158.3,123.7a3.1,3.1,0,0,0-3.2-2.9H146v-9.2a3.1,3.1,0,0,0-3.3-3.1,3.2,3.2,0,0,0-2.8,3.2v9.1h2.8a3.3,3.3,0,0,1,3.3,3.3V127h9.2a3.1,3.1,0,0,0,3.1-3.3Z" fill="#88caef"/><path d="M142.7,120.8h-2.8v2.9a3.2,3.2,0,0,0,3.2,3.3H146v-2.9A3.3,3.3,0,0,0,142.7,120.8Z" fill="#5298d2"/></g></g></g></g></svg>