<svg xmlns="http://www.w3.org/2000/svg" viewBox="0 0 200 162.4"><title>star</title><g id="Layer_2" data-name="Layer 2"><g id="actualsize"><g id="icon_bg"><path d="M194.2,95c6.9-15.6,8.5-34.1,0-49-5.9-10.2-16-17.8-26.9-23.2S144.4,14,132.6,10.4C111.4,3.8,88.7-3.8,67.3,2.2,47.9,7.6,33.9,23,21,37.7,13.7,46,6.2,54.9,4.3,65.5c-1.3,8,.6,16.3-1,24.2-1.3,6-4.5,12-2.8,17.8,1.1,3.8,4.2,6.8,7.2,9.6,21.9,20,48,37.2,77.9,43.2,17.7,3.6,36.7,2.7,53.6-3.3a77.1,77.1,0,0,0,23.7-13c3.6-3,4.9-5,6.2-9.2s3.2-7,6.2-10.7C182.7,115.1,189.6,105.6,194.2,95Z" fill="#107bc0" opacity="0.02"/></g><path d="M161.5,50.6l-41.8-3.9L103.1,8.1a3.4,3.4,0,0,0-6.2,0L80.3,46.7,38.5,50.6a3.3,3.3,0,0,0-1.9,5.8L68.2,84.1l-9.3,41a3.4,3.4,0,0,0,5,3.6L100,107.3l36.1,21.4a3.4,3.4,0,0,0,5-3.6l-9.3-41,31.6-27.7A3.3,3.3,0,0,0,161.5,50.6Z" fill="#ffdc64"/><path d="M57.3,6.8c2.1,3,8.1,15.7,11.6,23.1A1.2,1.2,0,0,1,67,31.2c-5.9-5.6-16.1-15.3-18.2-18.3A5.2,5.2,0,0,1,50,5.6,5.3,5.3,0,0,1,57.3,6.8Z" fill="#fff082"/><path d="M142.7,6.8c-2.1,3-8.1,15.7-11.6,23.1a1.2,1.2,0,0,0,1.9,1.3c5.9-5.6,16.1-15.3,18.2-18.3A5.2,5.2,0,0,0,150,5.6,5.3,5.3,0,0,0,142.7,6.8Z" fill="#fff082"/><path d="M176.4,93.6c-3.5-1.1-17.4-3-25.5-4a1.1,1.1,0,0,0-.7,2.1c7.1,4,19.5,10.7,23,11.8a5.2,5.2,0,0,0,6.5-3.3A5.2,5.2,0,0,0,176.4,93.6Z" fill="#fff082"/><path d="M23.6,93.6c3.5-1.1,17.4-3,25.5-4a1.1,1.1,0,0,1,.7,2.1c-7.1,4-19.5,10.7-23,11.8a5.2,5.2,0,0,1-6.5-3.3A5.2,5.2,0,0,1,23.6,93.6Z" fill="#fff082"/><path d="M94.9,152.6c0-3.7,2.6-17.5,4.1-25.5a1.2,1.2,0,0,1,2.3,0c1.5,8,4.1,21.8,4.1,25.5a5.3,5.3,0,0,1-10.5,0Z" fill="#fff082"/><path d="M109.1,22.2l-6-14.1a3.4,3.4,0,0,0-6.2,0L80.3,46.7,38.5,50.6a3.3,3.3,0,0,0-1.9,5.8L68.2,84.1l-9.3,41a3.4,3.4,0,0,0,5,3.6l4.8-2.9C76.6,74.9,98.7,37.4,109.1,22.2Z" fill="#ffc850"/></g></g></svg>