<svg xmlns="http://www.w3.org/2000/svg" viewBox="0 0 538 225.9"><title>testimonial</title><g id="Layer_2" data-name="Layer 2"><g id="actualsize"><g id="img"><g id="business"><g id="bg"><path id="bg-2" data-name="bg" d="M512.5,42C494.4,20.2,470.1,8.7,445.8,3.8S396.6,0,372,.4c-52.9.9-105.1,6.9-158.6,6.9C.1,7.3,83.7,46.4,26.6,90.2,17.9,96.9,9,104.5,4,116c-10.7,24.9,1.7,56.1,16.7,76.9l5.1,6.6c6.7,8.4,17.5,13.8,29.3,14.4l143.6,8q3.5.2,6.9.6c46.1,5.9,97.1.7,101.3.5l162.8-9.1c10.6-.6,20.5-5,27.2-12.1h.1c18.2-19.3,35.5-43.1,39.9-73.1C541.6,97,530.6,63.8,512.5,42Z" fill="#167bbf" opacity="0.02"/><path id="bg-3" data-name="bg" d="M434.5,101.3c-12.3-14.8-28.8-22.6-45.3-25.9s-33.4-2.6-50.2-2.3c-36,.6-71.4,4.6-107.8,4.6-144.9,0-88.1,26.6-126.9,56.4-5.9,4.6-12,9.7-15.4,17.5-7.2,17,1.1,38.2,11.4,52.3l3.4,4.5a27.7,27.7,0,0,0,19.9,9.8l97.6,5.4,4.7.4c31.3,4,66,.5,68.9.3l110.6-6.2a27.7,27.7,0,0,0,18.5-8.1h.1c12.3-13.1,24.1-29.3,27.1-49.7S446.8,116.1,434.5,101.3Z" fill="#167bbf" opacity="0.02"/></g></g></g><path d="M351.2,118.5c-23.5,0-28.8,22.5-29.1,47.2a2.6,2.6,0,0,0,1.9,2.4l3.5,1.2a56.3,56.3,0,0,0,15.8,2.2H359a53.4,53.4,0,0,0,16.4-2.4,21.1,21.1,0,0,0,3-1,2.8,2.8,0,0,0,1.9-2.4C380,141,374.7,118.5,351.2,118.5Z" fill="#ad8a6d"/><path d="M383.5,195.1h0a9.9,9.9,0,0,0-4.9-8.4l-10.9-6.2c-9.1-5.2-23.9-5.2-33,0l-10.9,6.2a9.9,9.9,0,0,0-4.9,8.4h0a10.5,10.5,0,0,0,10.5,10.6H373A10.5,10.5,0,0,0,383.5,195.1Z" fill="#d3a471"/><path d="M367.3,144.3v16.6a10.6,10.6,0,0,1-5.1,9.1,21.2,21.2,0,0,1-22,0,10.6,10.6,0,0,1-5.1-9.1V144.3c1.6-3.2,4.8-1,7.1-6.6C343.3,134.8,359.1,135.4,367.3,144.3Z" fill="#d3a471"/><path d="M357.7,160.5a1.3,1.3,0,0,1,1.2,1.7c-1.5,3.3-4.3,5.6-7.6,5.6s-6.1-2.3-7.6-5.6a1.3,1.3,0,0,1,1.2-1.7Z" fill="#fff"/><path d="M378.6,186.7l-9.4-5.4h0a22,22,0,0,1-36,0h0l-9.4,5.4a9.9,9.9,0,0,0-4.9,8.4h0a10.5,10.5,0,0,0,10.5,10.6H373a10.5,10.5,0,0,0,10.5-10.6h0A9.9,9.9,0,0,0,378.6,186.7Z" fill="#107bc0"/><path d="M186.8,118.5c-23.5,0-28.8,22.5-29,47.2a2.6,2.6,0,0,0,1.8,2.4l3.5,1.2a56.5,56.5,0,0,0,15.9,2.2h15.6a53.4,53.4,0,0,0,16.4-2.4l3.1-1a2.6,2.6,0,0,0,1.8-2.4C215.7,141,210.3,118.5,186.8,118.5Z" fill="#42210b"/><path d="M219.1,195.1h0a9.7,9.7,0,0,0-4.9-8.4l-10.9-6.2c-9-5.2-23.9-5.2-33,0l-10.9,6.2a9.9,9.9,0,0,0-4.9,8.4h0a10.6,10.6,0,0,0,10.6,10.6h43.5A10.5,10.5,0,0,0,219.1,195.1Z" fill="#d19a6e"/><path d="M203,144.3v16.6a10.7,10.7,0,0,1-5.2,9.1h0a21,21,0,0,1-21.9,0h0a10.7,10.7,0,0,1-5.2-9.1V144.3s19.4,0,25.8-6.4Z" fill="#d19a6e"/><path d="M193.4,160.5a1.2,1.2,0,0,1,1.1,1.7c-1.4,3.3-4.3,5.6-7.6,5.6s-6.1-2.3-7.5-5.6a1.2,1.2,0,0,1,1.1-1.7Z" fill="#fff"/><path d="M214.2,186.7l-9.4-5.4h0a21.9,21.9,0,0,1-35.9,0h0l-9.5,5.4a9.9,9.9,0,0,0-4.9,8.4h0a10.6,10.6,0,0,0,10.6,10.6h43.5a10.5,10.5,0,0,0,10.5-10.6h0A9.7,9.7,0,0,0,214.2,186.7Z" fill="#89cbf0"/><path d="M299.7,192.7l-13.7-5c-1.2-.5-8.5-2-16.6-1.9a94.7,94.7,0,0,0-18.5,2.3l-12.5,5.7c-3.6,1.3-6,3.5-6,7.1l5,5.7a13.1,13.1,0,0,1,2.8,4.5,6,6,0,0,0,5.8,4.1l46-1.1c3.4,0,9.3-1.5,9.3-4.7l2.2-8.5C303.5,197.3,303.2,194,299.7,192.7Z" fill="#c69e7b"/><path d="M299.7,191.9l-11.4-3.3-15.4,12.5a6,6,0,0,1-7.8,0l-15-12.5L237,193.5a7.2,7.2,0,0,0-4.6,6.6h0a16.5,16.5,0,0,0,16.5,16.5h40.6a16.1,16.1,0,0,0,16.1-16.1h0A9.3,9.3,0,0,0,299.7,191.9Z" fill="#084063"/><path d="M289.5,142.4l-1.9,28.5a9,9,0,0,1-3.7,6.7l-5,3.8a14.7,14.7,0,0,1-8.5,2.8h0a22,22,0,0,1-13.4-4.4l-2.9-2.2a8.9,8.9,0,0,1-3.6-6.7l-2-28.5a12.3,12.3,0,0,1,12.2-13h16.6A12.3,12.3,0,0,1,289.5,142.4Z" fill="#c69e7b"/><path d="M275.5,169.7a1.4,1.4,0,0,1,1.2,1.9c-1.5,3.5-4.5,5.9-8,5.9s-6.4-2.4-7.9-5.9a1.4,1.4,0,0,1,1.2-1.9Z" fill="#fff"/><path d="M277.3,129.4H260.7a12.3,12.3,0,0,0-12.2,13l.8,11.4c1.1-.1,27.2-2,40-8.6l.2-2.8A12.3,12.3,0,0,0,277.3,129.4Z" fill="#333"/><path d="M265.3,36.1h88.6a14.7,14.7,0,0,1,14.7,14.8v51.6a14.8,14.8,0,0,1-14.7,14.8h-48v14a1.8,1.8,0,0,1-3.1,1.3l-15.3-15.3H265.3a14.8,14.8,0,0,1-14.7-14.8V50.9A14.7,14.7,0,0,1,265.3,36.1Z" fill="#167bbf" opacity="0.15"/><path d="M350.1,65.6H294.8V58.2h29.4a3.7,3.7,0,0,0,3.8-3.4,3.6,3.6,0,0,0-3.6-3.9H294.8V36.1h-7.3V87.8a14.8,14.8,0,0,1-14.8,14.7H250.6a15.4,15.4,0,0,0,2,7.4h20.1a22.1,22.1,0,0,0,22.1-22.1h14.7a4,4,0,0,0,3.8-3.2,3.7,3.7,0,0,0-3.7-4.2H294.8V73h55.4a3.7,3.7,0,0,0,3.7-3.9A3.9,3.9,0,0,0,350.1,65.6Z" fill="#107bc0" opacity="0.2"/><g opacity="0.1"><path d="M350.2,58.2H339.1a3.7,3.7,0,1,1,0-7.3h11.1a3.7,3.7,0,1,1,0,7.3Z" fill="#167bbf"/><path d="M350.2,87.8H324.4a3.7,3.7,0,0,1-3.7-3.7,3.6,3.6,0,0,1,3.7-3.7h25.8a3.7,3.7,0,0,1,3.7,3.7A3.8,3.8,0,0,1,350.2,87.8Z" fill="#167bbf"/></g><g opacity="0.15"><path d="M350.2,102.5H298.5a3.7,3.7,0,0,1-3.7-3.7,3.8,3.8,0,0,1,3.7-3.7h51.7a3.8,3.8,0,0,1,3.7,3.7A3.7,3.7,0,0,1,350.2,102.5Z" fill="#107bc0"/></g><path d="M272.7,21.3H184.2a14.8,14.8,0,0,0-14.8,14.8V87.8a14.7,14.7,0,0,0,14.8,14.7h47.9v14a1.9,1.9,0,0,0,3.2,1.3l15.3-15.3h22.1a14.8,14.8,0,0,0,14.8-14.7V36.1A14.9,14.9,0,0,0,272.7,21.3Z" fill="#cfe5f2"/><path d="M198.9,43.5H187.8a3.7,3.7,0,0,1,0-7.4h11.1a3.7,3.7,0,0,1,0,7.4Z" fill="#107bc0" opacity="0.2"/><g opacity="0.1"><path d="M269,43.5H213.7a3.7,3.7,0,1,1,0-7.4H269a3.7,3.7,0,0,1,0,7.4Z" fill="#167bbf"/><path d="M269,58.2H187.8a3.7,3.7,0,0,1,0-7.3H269a3.7,3.7,0,1,1,0,7.3Z" fill="#167bbf"/></g><path d="M269,73H257.9a3.6,3.6,0,0,1-3.6-3.7,3.7,3.7,0,0,1,3.6-3.7H269a3.7,3.7,0,0,1,3.7,3.7A3.6,3.6,0,0,1,269,73Z" fill="#107bc0" opacity="0.2"/><g opacity="0.1"><path d="M243.2,73H187.8a3.6,3.6,0,0,1-3.6-3.7,3.7,3.7,0,0,1,3.6-3.7h55.4a3.8,3.8,0,0,1,3.7,3.7A3.7,3.7,0,0,1,243.2,73Z" fill="#167bbf"/><path d="M269,87.8H187.8a3.7,3.7,0,0,1-3.6-3.7,3.6,3.6,0,0,1,3.6-3.7H269a3.6,3.6,0,0,1,3.7,3.7A3.7,3.7,0,0,1,269,87.8Z" fill="#167bbf"/></g></g></g></svg>